<svg xmlns="http://www.w3.org/2000/svg" xmlns:xlink="http://www.w3.org/1999/xlink" width="500" zoomAndPan="magnify" viewBox="0 0 375 374.999991" height="500" preserveAspectRatio="xMidYMid meet" version="1.0"><defs><g/><clipPath id="afc39e7a24"><path d="M 187 61 L 372.5625 61 L 372.5625 375 L 187 375 Z M 187 61 " clip-rule="nonzero"/></clipPath><clipPath id="62edcd5e99"><path d="M 2.8125 0 L 372.5625 0 L 372.5625 173 L 2.8125 173 Z M 2.8125 0 " clip-rule="nonzero"/></clipPath><clipPath id="66ec165ce8"><path d="M 2.8125 61 L 188 61 L 188 375 L 2.8125 375 Z M 2.8125 61 " clip-rule="nonzero"/></clipPath></defs><g clip-path="url(#afc39e7a24)"><path fill="#d12764" d="M 187.726562 374.890625 L 372.609375 263.910156 L 372.609375 61.6875 L 187.726562 172.667969 L 187.726562 374.890625 " fill-opacity="1" fill-rule="nonzero"/></g><g clip-path="url(#62edcd5e99)"><path fill="#ff9292" d="M 260.75 0.53125 L 187.726562 43.738281 L 115.515625 0.0898438 L 2.847656 61.6875 L 187.726562 172.667969 L 372.609375 61.6875 L 260.75 0.53125 " fill-opacity="1" fill-rule="nonzero"/></g><g clip-path="url(#66ec165ce8)"><path fill="#a4204f" d="M 187.726562 374.890625 L 2.847656 263.910156 L 2.847656 61.6875 L 187.726562 172.667969 L 187.726562 374.890625 " fill-opacity="1" fill-rule="nonzero"/></g><path fill="#701536" d="M 260.363281 129.066406 L 187.726562 172.667969 L 115.09375 129.066406 L 187.726562 89.355469 L 260.363281 129.066406 " fill-opacity="1" fill-rule="nonzero"/><path fill="#ff9292" d="M 260.363281 302.609375 L 187.726562 346.210938 L 115.09375 302.609375 L 187.726562 262.898438 L 260.363281 302.609375 " fill-opacity="1" fill-rule="nonzero"/><path fill="#701536" d="M 115.09375 129.066406 L 115.09375 302.609375 L 187.726562 262.898438 L 187.726562 89.355469 L 115.09375 129.066406 " fill-opacity="1" fill-rule="nonzero"/><path fill="#a4204f" d="M 260.363281 129.066406 L 260.363281 302.609375 L 187.726562 262.898438 L 187.726562 89.355469 L 260.363281 129.066406 " fill-opacity="1" fill-rule="nonzero"/><g fill="#ffffff" fill-opacity="1"><g transform="translate(2.824223, 232.356371)"><g><path d="M 32.691406 1.46875 C 47.886719 1.46875 60.460938 -6.183594 60.460938 -22.003906 C 60.460938 -38.457031 46.417969 -41.914062 35.3125 -44.742188 C 27.453125 -46.628906 21.167969 -48.199219 21.167969 -53.335938 C 21.167969 -58.152344 26.300781 -60.355469 31.433594 -60.355469 C 37.40625 -60.355469 42.644531 -57.421875 42.644531 -51.027344 L 58.257812 -51.027344 C 58.257812 -65.699219 48.722656 -74.710938 31.855469 -74.710938 C 15.613281 -74.710938 5.238281 -66.746094 5.238281 -52.707031 C 5.238281 -36.882812 18.652344 -33.636719 29.757812 -30.910156 C 37.722656 -29.128906 44.429688 -27.558594 44.429688 -21.792969 C 44.429688 -16.347656 38.558594 -13.203125 32.585938 -13.203125 C 26.089844 -13.203125 20.222656 -16.660156 20.222656 -23.679688 L 4.191406 -23.679688 C 4.191406 -7.964844 15.820312 1.46875 32.691406 1.46875 Z M 32.691406 1.46875 "/></g></g></g><g fill="#ffffff" fill-opacity="1"><g transform="translate(67.681355, 232.356371)"><g><path d="M 51.867188 -73.347656 L 51.867188 -45.054688 L 24.203125 -45.054688 L 24.203125 -73.347656 L 8.382812 -73.347656 L 8.382812 0 L 24.203125 0 L 24.203125 -30.28125 L 51.867188 -30.28125 L 51.867188 0 L 67.691406 0 L 67.691406 -73.347656 Z M 51.867188 -73.347656 "/></g></g></g><g fill="#ffffff" fill-opacity="1"><g transform="translate(143.854426, 232.356371)"><g><path d="M 24.203125 -14.667969 L 24.203125 -29.757812 L 49.667969 -29.757812 L 49.667969 -44.113281 L 24.203125 -44.113281 L 24.203125 -58.679688 L 52.390625 -58.679688 L 52.390625 -73.347656 L 8.382812 -73.347656 L 8.382812 0 L 53.542969 0 L 53.542969 -14.667969 Z M 24.203125 -14.667969 "/></g></g></g><g fill="#ffffff" fill-opacity="1"><g transform="translate(202.424918, 232.356371)"><g><path d="M 40.550781 -38.246094 L 40.550781 -26.089844 L 62.554688 -26.089844 C 59.832031 -18.546875 51.554688 -13.515625 42.121094 -13.515625 C 28.921875 -13.515625 20.222656 -22.949219 20.222656 -36.570312 C 20.222656 -50.296875 29.128906 -59.726562 42.121094 -59.726562 C 51.34375 -59.726562 59.097656 -54.800781 62.242188 -46.941406 L 78.585938 -46.941406 C 75.128906 -63.394531 60.039062 -74.917969 41.808594 -74.917969 C 20.117188 -74.917969 4.085938 -58.46875 4.085938 -36.570312 C 4.085938 -14.566406 20.539062 1.675781 42.121094 1.675781 C 64.125 1.675781 79.53125 -15.296875 79.53125 -38.246094 Z M 40.550781 -38.246094 "/></g></g></g><g fill="#ffffff" fill-opacity="1"><g transform="translate(285.932404, 232.356371)"><g><path d="M 43.171875 1.675781 C 65.488281 1.675781 82.148438 -14.773438 82.148438 -36.675781 C 82.148438 -58.46875 65.488281 -74.917969 43.171875 -74.917969 C 20.746094 -74.917969 3.980469 -58.363281 3.980469 -36.675781 C 3.980469 -14.878906 20.746094 1.675781 43.171875 1.675781 Z M 43.171875 -13.308594 C 30.074219 -13.308594 20.117188 -23.472656 20.117188 -36.675781 C 20.117188 -49.875 30.074219 -59.9375 43.171875 -59.9375 C 56.269531 -59.9375 66.011719 -49.980469 66.011719 -36.675781 C 66.011719 -23.367188 56.269531 -13.308594 43.171875 -13.308594 Z M 43.171875 -13.308594 "/></g></g></g></svg>