<svg xmlns="http://www.w3.org/2000/svg" xmlns:xlink="http://www.w3.org/1999/xlink" width="500" zoomAndPan="magnify" viewBox="0 0 375 374.999991" height="500" preserveAspectRatio="xMidYMid meet" version="1.0"><defs><g/><clipPath id="98fce80f5f"><path d="M 187 61 L 372.066406 61 L 372.066406 374.566406 L 187 374.566406 Z M 187 61 " clip-rule="nonzero"/></clipPath><clipPath id="8c7106e4f1"><path d="M 2.8125 0 L 372.066406 0 L 372.066406 173 L 2.8125 173 Z M 2.8125 0 " clip-rule="nonzero"/></clipPath><clipPath id="e9e986c2a4"><path d="M 2.8125 61 L 188 61 L 188 374.566406 L 2.8125 374.566406 Z M 2.8125 61 " clip-rule="nonzero"/></clipPath></defs><g clip-path="url(#98fce80f5f)"><path fill="#d12764" d="M 187.480469 374.445312 L 372.113281 263.601562 L 372.113281 61.625 L 187.480469 172.46875 L 187.480469 374.445312 " fill-opacity="1" fill-rule="nonzero"/></g><g clip-path="url(#8c7106e4f1)"><path fill="#ff9292" d="M 260.402344 0.542969 L 187.480469 43.695312 L 115.363281 0.101562 L 2.847656 61.625 L 187.480469 172.46875 L 372.113281 61.625 L 260.402344 0.542969 " fill-opacity="1" fill-rule="nonzero"/></g><g clip-path="url(#e9e986c2a4)"><path fill="#a4204f" d="M 187.480469 374.445312 L 2.847656 263.601562 L 2.847656 61.625 L 187.480469 172.46875 L 187.480469 374.445312 " fill-opacity="1" fill-rule="nonzero"/></g><path fill="#701536" d="M 260.015625 128.917969 L 187.480469 172.46875 L 114.941406 128.917969 L 187.480469 89.257812 L 260.015625 128.917969 " fill-opacity="1" fill-rule="nonzero"/><path fill="#ff9292" d="M 260.015625 302.253906 L 187.480469 345.800781 L 114.941406 302.253906 L 187.480469 262.589844 L 260.015625 302.253906 " fill-opacity="1" fill-rule="nonzero"/><path fill="#701536" d="M 114.941406 128.917969 L 114.941406 302.253906 L 187.480469 262.589844 L 187.480469 89.257812 L 114.941406 128.917969 " fill-opacity="1" fill-rule="nonzero"/><path fill="#a4204f" d="M 260.015625 128.917969 L 260.015625 302.253906 L 187.480469 262.589844 L 187.480469 89.257812 L 260.015625 128.917969 " fill-opacity="1" fill-rule="nonzero"/><g fill="#ffffff" fill-opacity="1"><g transform="translate(29.585077, 238.704265)"><g><path d="M 35.183594 1.578125 C 51.535156 1.578125 65.066406 -6.652344 65.066406 -23.679688 C 65.066406 -41.386719 49.957031 -45.109375 38.003906 -48.152344 C 29.546875 -50.183594 22.777344 -51.875 22.777344 -57.398438 C 22.777344 -62.585938 28.304688 -64.953125 33.832031 -64.953125 C 40.257812 -64.953125 45.898438 -61.796875 45.898438 -54.917969 L 62.699219 -54.917969 C 62.699219 -70.707031 52.4375 -80.402344 34.28125 -80.402344 C 16.800781 -80.402344 5.636719 -71.832031 5.636719 -56.722656 C 5.636719 -39.695312 20.074219 -36.199219 32.027344 -33.265625 C 40.597656 -31.351562 47.8125 -29.65625 47.8125 -23.457031 C 47.8125 -17.59375 41.5 -14.207031 35.070312 -14.207031 C 28.078125 -14.207031 21.765625 -17.929688 21.765625 -25.484375 L 4.511719 -25.484375 C 4.511719 -8.570312 17.027344 1.578125 35.183594 1.578125 Z M 35.183594 1.578125 "/></g></g></g><g fill="#ffffff" fill-opacity="1"><g transform="translate(99.368352, 238.704265)"><g><path d="M 55.820312 -78.9375 L 55.820312 -48.492188 L 26.050781 -48.492188 L 26.050781 -78.9375 L 9.023438 -78.9375 L 9.023438 0 L 26.050781 0 L 26.050781 -32.589844 L 55.820312 -32.589844 L 55.820312 0 L 72.847656 0 L 72.847656 -78.9375 Z M 55.820312 -78.9375 "/></g></g></g><g fill="#ffffff" fill-opacity="1"><g transform="translate(181.327051, 238.704265)"><g><path d="M 26.050781 -15.789062 L 26.050781 -32.027344 L 53.453125 -32.027344 L 53.453125 -47.476562 L 26.050781 -47.476562 L 26.050781 -63.152344 L 56.382812 -63.152344 L 56.382812 -78.9375 L 9.023438 -78.9375 L 9.023438 0 L 57.625 0 L 57.625 -15.789062 Z M 26.050781 -15.789062 "/></g></g></g><g fill="#ffffff" fill-opacity="1"><g transform="translate(244.346204, 238.704265)"><g><path d="M 9.023438 0 L 26.050781 0 L 26.050781 -78.9375 L 9.023438 -78.9375 Z M 9.023438 0 "/></g></g></g><g fill="#ffffff" fill-opacity="1"><g transform="translate(279.519702, 238.704265)"><g><path d="M 63.375 -78.9375 L 2.367188 -78.9375 L 2.367188 -63.039062 L 24.359375 -63.039062 L 24.359375 0 L 41.386719 0 L 41.386719 -63.039062 L 63.375 -63.039062 Z M 63.375 -78.9375 "/></g></g></g></svg>