<svg xmlns="http://www.w3.org/2000/svg" xmlns:xlink="http://www.w3.org/1999/xlink" width="500" zoomAndPan="magnify" viewBox="0 0 375 225" height="300" preserveAspectRatio="xMidYMid meet" version="1.0"><defs><clipPath id="67e769be1b"><path d="M 1 8.203125 L 111 8.203125 L 111 148 L 1 148 Z M 1 8.203125 " clip-rule="nonzero"/></clipPath><clipPath id="38f5a09071"><path d="M 125 8.203125 L 235 8.203125 L 235 152 L 125 152 Z M 125 8.203125 " clip-rule="nonzero"/></clipPath><clipPath id="8a7fac5910"><path d="M 250 8.203125 L 360 8.203125 L 360 148 L 250 148 Z M 250 8.203125 " clip-rule="nonzero"/></clipPath><clipPath id="5e3a542b32"><path d="M 44.328125 168.105469 L 88.335938 168.105469 L 88.335938 216.703125 L 44.328125 216.703125 Z M 44.328125 168.105469 " clip-rule="nonzero"/></clipPath><clipPath id="eb4c12374f"><path d="M 182 168.105469 L 226 168.105469 L 226 216.703125 L 182 216.703125 Z M 182 168.105469 " clip-rule="nonzero"/></clipPath><clipPath id="6968ecbedc"><path d="M 232.941406 169.5 L 271 169.5 L 271 216.703125 L 232.941406 216.703125 Z M 232.941406 169.5 " clip-rule="nonzero"/></clipPath><clipPath id="22cd0eb737"><path d="M 11 28.285156 L 90.488281 28.285156 L 90.488281 40.582031 L 11 40.582031 Z M 120.703125 67.117188 L 121 67.117188 L 121 80.066406 L 120.703125 80.066406 Z M 56.820312 129.410156 L 121 129.410156 L 121 138.792969 L 56.820312 138.792969 Z M 56.820312 129.410156 " clip-rule="nonzero"/></clipPath><clipPath id="e9f7c615fa"><path d="M 192.296875 40.582031 L 244 40.582031 L 244 51.585938 L 192.296875 51.585938 Z M 135.140625 67.117188 L 244 67.117188 L 244 80.066406 L 135.140625 80.066406 Z M 135.140625 67.117188 " clip-rule="nonzero"/></clipPath><clipPath id="e17aaa6097"><path d="M 274.375 28.285156 L 332.648438 28.285156 L 332.648438 40.582031 L 274.375 40.582031 Z M 314.6875 80.066406 L 365.667969 80.066406 L 365.667969 87.179688 L 314.6875 87.179688 Z M 261.550781 133.128906 L 369.863281 133.128906 L 369.863281 144.457031 L 261.550781 144.457031 Z M 261.550781 133.128906 " clip-rule="nonzero"/></clipPath><clipPath id="fc8cfe0ce1"><path d="M 33.1875 181.023438 L 47 181.023438 L 47 189.121094 L 33.1875 189.121094 Z M 33.1875 181.023438 " clip-rule="nonzero"/></clipPath><clipPath id="d6d86fe81f"><path d="M 54.109375 181.023438 L 76.242188 181.023438 L 76.242188 189.121094 L 54.109375 189.121094 Z M 54.109375 181.023438 " clip-rule="nonzero"/></clipPath><clipPath id="418cf47167"><path d="M 107.972656 204.320312 L 137.238281 204.320312 L 137.238281 210.792969 L 107.972656 210.792969 Z M 107.972656 204.320312 " clip-rule="nonzero"/></clipPath><clipPath id="575dbffc9a"><path d="M 159.59375 204.320312 L 181.457031 204.320312 L 181.457031 210.792969 L 159.59375 210.792969 Z M 159.59375 204.320312 " clip-rule="nonzero"/></clipPath><clipPath id="e074cd2b49"><path d="M 215.453125 189.121094 L 236 189.121094 L 236 195.90625 L 215.453125 195.90625 Z M 215.453125 189.121094 " clip-rule="nonzero"/></clipPath><clipPath id="7e31f1b39e"><path d="M 242.023438 189.121094 L 280.445312 189.121094 L 280.445312 195.90625 L 242.023438 195.90625 Z M 242.023438 189.121094 " clip-rule="nonzero"/></clipPath><clipPath id="90ff688864"><path d="M 305.128906 212.085938 L 327 212.085938 L 327 216 L 305.128906 216 Z M 305.128906 212.085938 " clip-rule="nonzero"/></clipPath><clipPath id="0766a7399a"><path d="M 355.703125 185.550781 L 375 185.550781 L 375 192.691406 L 355.703125 192.691406 Z M 336.332031 212.085938 L 373.113281 212.085938 L 373.113281 216 L 336.332031 216 Z M 336.332031 212.085938 " clip-rule="nonzero"/></clipPath></defs><g clip-path="url(#67e769be1b)"><path fill="#ffffff" d="M 62.179688 147.894531 L 94.863281 147.894531 L 94.863281 138.796875 L 62.113281 138.796875 Z M 94.863281 94.683594 L 94.863281 62.425781 L 65.996094 62.425781 L 62.394531 94.683594 L 36.074219 94.683594 L 60.566406 40.582031 L 27.421875 40.582031 L 1.476562 97.292969 L 1.476562 118.46875 L 61.964844 118.46875 L 62.042969 129.410156 L 94.863281 129.410156 L 94.863281 118.46875 L 110.992188 118.46875 L 110.992188 94.683594 Z M 42.230469 8.207031 L 33.042969 28.285156 L 66.140625 28.285156 L 70.667969 18.28125 L 42.230469 8.207031 " fill-opacity="1" fill-rule="nonzero"/></g><g clip-path="url(#38f5a09071)"><path fill="#ffffff" d="M 231.113281 51.578125 L 197.742188 51.578125 C 198.550781 55.792969 199.101562 60.976562 199.414062 67.113281 L 233.550781 67.113281 C 233.074219 61.550781 232.261719 56.378906 231.113281 51.578125 Z M 220.1875 27.15625 C 210.914062 14.933594 197.507812 8.816406 179.96875 8.816406 C 162.417969 8.816406 149.019531 14.933594 139.75 27.15625 C 132.292969 37 127.835938 50.308594 126.378906 67.113281 L 160.523438 67.113281 C 160.847656 60.941406 161.421875 55.746094 162.246094 51.542969 C 163.585938 44.691406 165.675781 39.785156 168.507812 36.835938 C 171.335938 33.875 175.152344 32.398438 179.96875 32.398438 C 184.777344 32.398438 188.59375 33.808594 191.429688 36.628906 C 192.480469 37.667969 193.414062 38.988281 194.246094 40.582031 L 227.679688 40.582031 C 225.65625 35.550781 223.160156 31.078125 220.1875 27.15625 Z M 199.707031 80.0625 C 199.707031 92.246094 199.035156 101.789062 197.6875 108.691406 C 196.34375 115.613281 194.257812 120.515625 191.429688 123.398438 C 188.59375 126.292969 184.777344 127.738281 179.96875 127.738281 C 175.152344 127.738281 171.335938 126.253906 168.507812 123.304688 C 165.675781 120.351562 163.585938 115.410156 162.246094 108.488281 C 160.894531 101.585938 160.226562 92.113281 160.226562 80.0625 L 125.84375 80.0625 C 125.851562 102.859375 130.488281 120.429688 139.75 132.777344 C 149.019531 145.136719 162.417969 151.320312 179.96875 151.320312 C 197.507812 151.320312 210.914062 145.136719 220.1875 132.777344 C 229.445312 120.429688 234.074219 102.859375 234.089844 80.0625 L 199.707031 80.0625 " fill-opacity="1" fill-rule="nonzero"/></g><g clip-path="url(#8a7fac5910)"><path fill="#ffffff" d="M 290.960938 8.207031 L 281.78125 28.285156 L 314.882812 28.285156 L 319.40625 18.28125 Z M 310.894531 144.457031 L 310.917969 147.894531 L 343.601562 147.894531 L 343.601562 144.457031 Z M 343.601562 94.683594 L 343.601562 87.179688 L 311.96875 87.179688 L 311.121094 94.683594 L 284.8125 94.683594 L 309.308594 40.582031 L 276.15625 40.582031 L 250.21875 97.292969 L 250.21875 118.46875 L 310.703125 118.46875 L 310.8125 133.125 L 343.601562 133.125 L 343.601562 118.46875 L 359.734375 118.46875 L 359.734375 94.683594 Z M 314.738281 62.425781 L 312.769531 80.0625 L 343.601562 80.0625 L 343.601562 62.425781 L 314.738281 62.425781 " fill-opacity="1" fill-rule="nonzero"/></g><path fill="#ffffff" d="M 27.023438 189.121094 C 27.070312 194.21875 27.566406 199.625 28.546875 205.355469 L 14.269531 169.773438 L 0.0625 169.773438 L 0.0625 215.605469 L 10.226562 215.605469 L 10.226562 198.808594 C 10.226562 195.152344 10.101562 191.988281 9.839844 189.316406 C 9.589844 186.644531 9.230469 183.570312 8.761719 180.09375 L 22.691406 215.605469 L 37.25 215.605469 L 37.25 189.121094 Z M 27.011719 169.773438 L 27.011719 181.023438 L 37.25 181.023438 L 37.25 169.773438 L 27.011719 169.773438 " fill-opacity="1" fill-rule="nonzero"/><g clip-path="url(#5e3a542b32)"><path fill="#ffffff" d="M 82.546875 174.929688 C 78.722656 170.746094 73.367188 168.648438 66.492188 168.648438 C 61.996094 168.648438 58.109375 169.605469 54.867188 171.523438 C 51.613281 173.445312 49.117188 176.210938 47.378906 179.820312 C 47.183594 180.21875 47.011719 180.617188 46.84375 181.023438 L 58.78125 181.023438 C 58.898438 180.804688 59.023438 180.589844 59.152344 180.382812 C 60.753906 177.851562 63.199219 176.585938 66.492188 176.585938 C 69.796875 176.585938 72.25 177.839844 73.875 180.355469 C 75.507812 182.871094 76.3125 186.96875 76.3125 192.65625 C 76.3125 198.34375 75.515625 202.460938 73.914062 204.996094 C 72.3125 207.527344 69.84375 208.789062 66.492188 208.789062 C 63.25 208.789062 60.808594 207.519531 59.179688 204.953125 C 57.558594 202.402344 56.75 198.296875 56.75 192.65625 C 56.75 191.402344 56.789062 190.21875 56.878906 189.121094 L 44.929688 189.121094 C 44.824219 190.257812 44.765625 191.433594 44.765625 192.65625 C 44.765625 197.734375 45.640625 202.0625 47.378906 205.65625 C 49.117188 209.246094 51.613281 211.992188 54.867188 213.886719 C 58.109375 215.78125 61.996094 216.730469 66.492188 216.730469 C 71 216.730469 74.882812 215.769531 78.15625 213.847656 C 81.429688 211.933594 83.9375 209.167969 85.683594 205.558594 C 87.421875 201.9375 88.296875 197.636719 88.296875 192.65625 C 88.296875 185.027344 86.371094 179.125 82.546875 174.929688 " fill-opacity="1" fill-rule="nonzero"/></g><path fill="#ffffff" d="M 103.058594 210.789062 L 103.058594 215.605469 L 114.480469 215.605469 L 114.480469 210.789062 Z M 90.589844 169.773438 L 90.589844 178.105469 L 103.058594 178.105469 L 103.058594 204.324219 L 114.480469 204.324219 L 114.480469 178.105469 L 126.386719 178.105469 L 127.503906 169.773438 L 90.589844 169.773438 " fill-opacity="1" fill-rule="nonzero"/><path fill="#ffffff" d="M 150.132812 210.789062 L 150.132812 215.605469 L 161.558594 215.605469 L 161.558594 210.789062 Z M 177.707031 177.511719 L 178.894531 169.773438 L 150.132812 169.773438 L 150.132812 204.324219 L 161.558594 204.324219 L 161.558594 197.421875 L 175.617188 197.421875 L 175.617188 189.683594 L 161.558594 189.683594 L 161.558594 177.511719 L 177.707031 177.511719 " fill-opacity="1" fill-rule="nonzero"/><g clip-path="url(#eb4c12374f)"><path fill="#ffffff" d="M 214.019531 195.90625 C 213.769531 199.945312 213.011719 202.976562 211.726562 204.996094 C 210.125 207.527344 207.648438 208.789062 204.308594 208.789062 C 201.0625 208.789062 198.628906 207.519531 196.996094 204.953125 C 195.375 202.402344 194.554688 198.296875 194.554688 192.65625 C 194.554688 187.015625 195.359375 182.921875 196.96875 180.382812 C 198.570312 177.851562 201.015625 176.585938 204.308594 176.585938 C 207.609375 176.585938 210.070312 177.839844 211.691406 180.355469 C 212.960938 182.316406 213.730469 185.226562 214 189.121094 L 225.957031 189.121094 C 225.453125 183.179688 223.578125 178.453125 220.363281 174.929688 C 216.535156 170.746094 211.183594 168.648438 204.308594 168.648438 C 199.8125 168.648438 195.925781 169.605469 192.679688 171.523438 C 189.429688 173.445312 186.933594 176.210938 185.195312 179.820312 C 183.457031 183.441406 182.582031 187.710938 182.582031 192.65625 C 182.582031 197.734375 183.457031 202.0625 185.195312 205.65625 C 186.933594 209.246094 189.429688 211.992188 192.679688 213.886719 C 195.925781 215.78125 199.8125 216.730469 204.308594 216.730469 C 208.816406 216.730469 212.699219 215.769531 215.972656 213.847656 C 219.246094 211.933594 221.757812 209.167969 223.5 205.558594 C 224.847656 202.753906 225.675781 199.527344 225.976562 195.90625 L 214.019531 195.90625 " fill-opacity="1" fill-rule="nonzero"/></g><g clip-path="url(#6968ecbedc)"><path fill="#ffffff" d="M 259.261719 195.90625 L 259.261719 199.925781 C 259.261719 202.890625 258.667969 205.082031 257.480469 206.507812 C 256.296875 207.945312 254.402344 208.664062 251.800781 208.664062 C 249.246094 208.664062 247.382812 207.945312 246.199219 206.507812 C 245.011719 205.082031 244.417969 202.890625 244.417969 199.925781 L 244.417969 195.90625 L 232.996094 195.90625 L 232.996094 200.394531 C 232.996094 205.371094 234.601562 209.34375 237.808594 212.292969 C 241.011719 215.253906 245.675781 216.730469 251.800781 216.730469 C 255.886719 216.730469 259.347656 216.023438 262.183594 214.613281 C 265.011719 213.207031 267.136719 211.265625 268.554688 208.789062 C 269.964844 206.324219 270.671875 203.527344 270.671875 200.394531 L 270.671875 195.90625 Z M 259.261719 169.773438 L 259.261719 189.121094 L 270.671875 189.121094 L 270.671875 169.773438 Z M 232.996094 169.773438 L 232.996094 189.121094 L 244.417969 189.121094 L 244.417969 169.773438 L 232.996094 169.773438 " fill-opacity="1" fill-rule="nonzero"/></g><path fill="#ffffff" d="M 306.753906 169.773438 L 306.753906 188.285156 C 306.753906 193.625 307.257812 199.3125 308.277344 205.355469 L 294 169.773438 L 279.800781 169.773438 L 279.800781 215.605469 L 289.972656 215.605469 L 289.972656 198.808594 C 289.972656 195.152344 289.835938 191.988281 289.582031 189.316406 C 289.328125 186.644531 288.96875 183.570312 288.503906 180.09375 L 301.050781 212.089844 L 316.988281 212.089844 L 316.988281 169.773438 L 306.753906 169.773438 " fill-opacity="1" fill-rule="nonzero"/><path fill="#ffffff" d="M 353.410156 192.695312 C 353.382812 198.296875 352.402344 202.195312 350.488281 204.390625 C 348.535156 206.625 345.679688 207.730469 341.921875 207.730469 L 338.152344 207.730469 L 338.152344 177.648438 L 341.773438 177.648438 C 344.242188 177.648438 346.300781 178.054688 347.972656 178.871094 C 349.640625 179.6875 350.972656 181.171875 351.945312 183.328125 C 352.246094 183.988281 352.5 184.722656 352.699219 185.550781 L 364.648438 185.550781 C 363.703125 180.5625 361.617188 176.917969 358.382812 174.636719 C 353.808594 171.398438 347.738281 169.773438 340.171875 169.773438 L 326.742188 169.773438 L 326.742188 212.089844 L 356.050781 212.089844 C 356.9375 211.585938 357.761719 211.023438 358.558594 210.410156 C 362.976562 206.984375 365.210938 201.074219 365.246094 192.695312 L 353.410156 192.695312 " fill-opacity="1" fill-rule="nonzero"/><g clip-path="url(#22cd0eb737)"><path fill="#ffffff" d="M 104.574219 118.460938 L 104.574219 147.890625 L 71.886719 147.890625 L 71.675781 118.460938 L 11.1875 118.460938 L 11.1875 97.300781 L 51.9375 8.207031 L 80.378906 18.285156 L 45.785156 94.679688 L 72.101562 94.679688 L 75.707031 62.429688 L 104.574219 62.429688 L 104.574219 94.679688 L 120.703125 94.679688 L 120.703125 118.460938 L 104.574219 118.460938 " fill-opacity="1" fill-rule="nonzero"/></g><g clip-path="url(#e9f7c615fa)"><path fill="#ffffff" d="M 178.21875 36.832031 C 175.386719 39.789062 173.300781 44.691406 171.957031 51.542969 C 170.609375 58.398438 169.941406 67.871094 169.941406 79.964844 C 169.941406 92.058594 170.609375 101.566406 171.957031 108.484375 C 173.300781 115.40625 175.386719 120.347656 178.21875 123.300781 C 181.046875 126.257812 184.867188 127.734375 189.675781 127.734375 C 194.484375 127.734375 198.308594 126.292969 201.140625 123.402344 C 203.96875 120.511719 206.054688 115.609375 207.402344 108.6875 C 208.742188 101.765625 209.417969 92.191406 209.417969 79.964844 C 209.417969 67.738281 208.742188 58.164062 207.402344 51.242188 C 206.054688 44.324219 203.96875 39.453125 201.140625 36.628906 C 198.308594 33.808594 194.484375 32.398438 189.675781 32.398438 C 184.867188 32.398438 181.046875 33.878906 178.21875 36.832031 Z M 229.898438 27.15625 C 239.164062 39.382812 243.796875 56.984375 243.796875 79.964844 C 243.796875 102.8125 239.164062 120.410156 229.898438 132.773438 C 220.628906 145.136719 207.21875 151.316406 189.675781 151.316406 C 172.132812 151.316406 158.722656 145.136719 149.460938 132.773438 C 140.191406 120.410156 135.558594 102.8125 135.558594 79.964844 C 135.558594 56.984375 140.191406 39.382812 149.460938 27.15625 C 158.722656 14.929688 172.132812 8.8125 189.675781 8.8125 C 207.21875 8.8125 220.628906 14.929688 229.898438 27.15625 " fill-opacity="1" fill-rule="nonzero"/></g><g clip-path="url(#e17aaa6097)"><path fill="#ffffff" d="M 353.3125 118.460938 L 353.3125 147.890625 L 320.625 147.890625 L 320.417969 118.460938 L 259.925781 118.460938 L 259.925781 97.300781 L 300.679688 8.207031 L 329.117188 18.285156 L 294.523438 94.679688 L 320.839844 94.679688 L 324.445312 62.429688 L 353.3125 62.429688 L 353.3125 94.679688 L 369.441406 94.679688 L 369.441406 118.460938 L 353.3125 118.460938 " fill-opacity="1" fill-rule="nonzero"/></g><g clip-path="url(#fc8cfe0ce1)"><path fill="#ffffff" d="M 32.40625 215.605469 L 18.476562 180.089844 C 18.941406 183.574219 19.300781 186.648438 19.558594 189.316406 C 19.8125 191.984375 19.941406 195.144531 19.941406 198.804688 L 19.941406 215.605469 L 9.773438 215.605469 L 9.773438 169.773438 L 23.980469 169.773438 L 38.257812 205.355469 C 37.234375 199.3125 36.722656 193.625 36.722656 188.292969 L 36.722656 169.773438 L 46.960938 169.773438 L 46.960938 215.605469 L 32.40625 215.605469 " fill-opacity="1" fill-rule="nonzero"/></g><g clip-path="url(#d6d86fe81f)"><path fill="#ffffff" d="M 68.863281 180.386719 C 67.261719 182.921875 66.460938 187.011719 66.460938 192.65625 C 66.460938 198.296875 67.269531 202.402344 68.894531 204.957031 C 70.519531 207.515625 72.957031 208.792969 76.207031 208.792969 C 79.550781 208.792969 82.023438 207.527344 83.625 204.988281 C 85.226562 202.457031 86.027344 198.34375 86.027344 192.65625 C 86.027344 186.96875 85.214844 182.867188 83.589844 180.355469 C 81.964844 177.839844 79.503906 176.585938 76.207031 176.585938 C 72.910156 176.585938 70.460938 177.851562 68.863281 180.386719 Z M 92.257812 174.929688 C 96.089844 179.121094 98.003906 185.027344 98.003906 192.65625 C 98.003906 197.636719 97.136719 201.9375 95.394531 205.550781 C 93.652344 209.167969 91.144531 211.933594 87.875 213.851562 C 84.597656 215.769531 80.710938 216.730469 76.207031 216.730469 C 71.707031 216.730469 67.828125 215.78125 64.578125 213.886719 C 61.328125 211.992188 58.832031 209.246094 57.09375 205.652344 C 55.351562 202.058594 54.480469 197.726562 54.480469 192.65625 C 54.480469 187.71875 55.351562 183.441406 57.09375 179.824219 C 58.832031 176.210938 61.328125 173.441406 64.578125 171.523438 C 67.828125 169.605469 71.707031 168.648438 76.207031 168.648438 C 83.078125 168.648438 88.429688 170.742188 92.257812 174.929688 " fill-opacity="1" fill-rule="nonzero"/></g><g clip-path="url(#418cf47167)"><path fill="#ffffff" d="M 124.1875 178.105469 L 124.1875 215.605469 L 112.769531 215.605469 L 112.769531 178.105469 L 100.304688 178.105469 L 100.304688 169.773438 L 137.214844 169.773438 L 136.097656 178.105469 L 124.1875 178.105469 " fill-opacity="1" fill-rule="nonzero"/></g><g clip-path="url(#575dbffc9a)"><path fill="#ffffff" d="M 171.265625 177.511719 L 171.265625 189.679688 L 185.332031 189.679688 L 185.332031 197.417969 L 171.265625 197.417969 L 171.265625 215.605469 L 159.84375 215.605469 L 159.84375 169.773438 L 188.605469 169.773438 L 187.421875 177.511719 L 171.265625 177.511719 " fill-opacity="1" fill-rule="nonzero"/></g><g clip-path="url(#e074cd2b49)"><path fill="#ffffff" d="M 206.675781 180.386719 C 205.074219 182.921875 204.273438 187.011719 204.273438 192.65625 C 204.273438 198.296875 205.082031 202.402344 206.710938 204.957031 C 208.335938 207.515625 210.773438 208.792969 214.023438 208.792969 C 217.367188 208.792969 219.839844 207.527344 221.441406 204.988281 C 223.042969 202.457031 223.84375 198.34375 223.84375 192.65625 C 223.84375 186.96875 223.03125 182.867188 221.40625 180.355469 C 219.78125 177.839844 217.320312 176.585938 214.023438 176.585938 C 210.726562 176.585938 208.277344 177.851562 206.675781 180.386719 Z M 230.074219 174.929688 C 233.90625 179.121094 235.820312 185.027344 235.820312 192.65625 C 235.820312 197.636719 234.949219 201.9375 233.210938 205.550781 C 231.472656 209.167969 228.960938 211.933594 225.6875 213.851562 C 222.414062 215.769531 218.527344 216.730469 214.023438 216.730469 C 209.519531 216.730469 205.644531 215.78125 202.394531 213.886719 C 199.144531 211.992188 196.648438 209.246094 194.90625 205.652344 C 193.167969 202.058594 192.296875 197.726562 192.296875 192.65625 C 192.296875 187.71875 193.167969 183.441406 194.90625 179.824219 C 196.648438 176.210938 199.144531 173.441406 202.394531 171.523438 C 205.644531 169.605469 209.519531 168.648438 214.023438 168.648438 C 220.894531 168.648438 226.246094 170.742188 230.074219 174.929688 " fill-opacity="1" fill-rule="nonzero"/></g><g clip-path="url(#7e31f1b39e)"><path fill="#ffffff" d="M 278.265625 208.792969 C 276.847656 211.261719 274.726562 213.203125 271.894531 214.613281 C 269.058594 216.023438 265.601562 216.730469 261.519531 216.730469 C 255.390625 216.730469 250.722656 215.253906 247.519531 212.300781 C 244.316406 209.34375 242.714844 205.375 242.714844 200.394531 L 242.714844 169.773438 L 254.136719 169.773438 L 254.136719 199.929688 C 254.136719 202.882812 254.726562 205.078125 255.910156 206.511719 C 257.09375 207.945312 258.960938 208.660156 261.519531 208.660156 C 264.117188 208.660156 266.007812 207.945312 267.195312 206.511719 C 268.375 205.078125 268.96875 202.882812 268.96875 199.929688 L 268.96875 169.773438 L 280.390625 169.773438 L 280.390625 200.394531 C 280.390625 203.523438 279.679688 206.324219 278.265625 208.792969 " fill-opacity="1" fill-rule="nonzero"/></g><g clip-path="url(#90ff688864)"><path fill="#ffffff" d="M 312.144531 215.605469 L 298.214844 180.089844 C 298.679688 183.574219 299.039062 186.648438 299.296875 189.316406 C 299.550781 191.984375 299.675781 195.144531 299.675781 198.804688 L 299.675781 215.605469 L 289.511719 215.605469 L 289.511719 169.773438 L 303.714844 169.773438 L 317.992188 205.355469 C 316.972656 199.3125 316.460938 193.625 316.460938 188.292969 L 316.460938 169.773438 L 326.699219 169.773438 L 326.699219 215.605469 L 312.144531 215.605469 " fill-opacity="1" fill-rule="nonzero"/></g><g clip-path="url(#0766a7399a)"><path fill="#ffffff" d="M 347.867188 207.734375 L 351.628906 207.734375 C 355.390625 207.734375 358.242188 206.621094 360.195312 204.394531 C 362.144531 202.167969 363.121094 198.1875 363.121094 192.457031 C 363.121094 188.535156 362.632812 185.492188 361.65625 183.328125 C 360.683594 181.171875 359.359375 179.683594 357.6875 178.867188 C 356.015625 178.050781 353.949219 177.644531 351.488281 177.644531 L 347.867188 177.644531 Z M 368.097656 174.632812 C 372.671875 177.871094 374.960938 183.816406 374.960938 192.457031 C 374.960938 200.96875 372.730469 206.953125 368.273438 210.414062 C 363.816406 213.871094 358.035156 215.605469 350.933594 215.605469 L 336.449219 215.605469 L 336.449219 169.773438 L 349.886719 169.773438 C 357.453125 169.773438 363.527344 171.394531 368.097656 174.632812 " fill-opacity="1" fill-rule="nonzero"/></g></svg>