<svg xmlns="http://www.w3.org/2000/svg" xmlns:xlink="http://www.w3.org/1999/xlink" width="1920" zoomAndPan="magnify" viewBox="0 0 1440 809.999993" height="1080" preserveAspectRatio="xMidYMid meet" version="1.0"><defs><clipPath id="79cfe157d8"><path d="M 729 365 L 837.804688 365 L 837.804688 466.878906 L 729 466.878906 Z M 729 365 " clip-rule="nonzero"/></clipPath><clipPath id="fa4c59fe82"><path d="M 802 381 L 837.863281 381 L 837.863281 405 L 802 405 Z M 802 381 " clip-rule="nonzero"/></clipPath><clipPath id="e87a344468"><path d="M 613 518.128906 L 721.289062 518.128906 L 721.289062 603.640625 L 613 603.640625 Z M 613 518.128906 " clip-rule="nonzero"/></clipPath><clipPath id="0fca877d9b"><path d="M 676.628906 369.121094 L 745 369.121094 L 745 603.640625 L 676.628906 603.640625 Z M 676.628906 369.121094 " clip-rule="nonzero"/></clipPath><clipPath id="f80f4d04fc"><path d="M 606.3125 366 L 683.277344 366 L 683.277344 603.640625 L 606.3125 603.640625 Z M 606.3125 366 " clip-rule="nonzero"/></clipPath><clipPath id="9681b295b1"><path d="M 606.3125 415 L 654 415 L 654 603.640625 L 606.3125 603.640625 Z M 606.3125 415 " clip-rule="nonzero"/></clipPath><clipPath id="610ba4ef71"><path d="M 797.925781 240.785156 L 879.089844 240.785156 L 879.089844 335 L 797.925781 335 Z M 797.925781 240.785156 " clip-rule="nonzero"/></clipPath><clipPath id="cc4e05c2ad"><path d="M 861.078125 251.128906 L 879.089844 251.128906 L 879.089844 255.65625 L 861.078125 255.65625 Z M 861.078125 251.128906 " clip-rule="nonzero"/></clipPath><clipPath id="8c47c1f0cf"><path d="M 837.4375 251.128906 L 879.089844 251.128906 L 879.089844 335 L 837.4375 335 Z M 837.4375 251.128906 " clip-rule="nonzero"/></clipPath><clipPath id="6fd8d38bb9"><path d="M 754.855469 239.492188 L 850 239.492188 L 850 347.128906 L 754.855469 347.128906 Z M 754.855469 239.492188 " clip-rule="nonzero"/></clipPath><clipPath id="a300737ab2"><path d="M 754.71875 260 L 777 260 L 777 330 L 754.71875 330 Z M 754.71875 260 " clip-rule="nonzero"/></clipPath><clipPath id="2608bc0153"><path d="M 754.71875 245 L 804 245 L 804 330 L 754.71875 330 Z M 754.71875 245 " clip-rule="nonzero"/></clipPath></defs><path fill="#d1d3d4" d="M 759.050781 419.628906 C 766.71875 421.890625 779.953125 432.78125 779.589844 440.644531 C 764.8125 440.144531 754.789062 427.136719 759.050781 419.628906 " fill-opacity="1" fill-rule="nonzero"/><g clip-path="url(#79cfe157d8)"><path fill="#ffae92" d="M 823.753906 390.515625 C 822.84375 391.128906 817.308594 395.761719 817.308594 395.761719 C 817.308594 395.761719 806.050781 404 801.667969 406.414062 C 800.871094 406.84375 800.359375 407.207031 800.214844 407.464844 C 799.53125 408.433594 788.84375 409.367188 783.050781 418.414062 C 779.113281 431.648438 770.277344 446.910156 770.277344 446.910156 C 770.277344 446.910156 731.683594 473.96875 729.695312 465.03125 C 729.695312 465.03125 757.546875 423.382812 769.007812 411.460938 C 769.007812 411.460938 762.960938 407.964844 766.300781 395.40625 C 771.09375 377.402344 762.523438 375.375 764.429688 371.5625 C 766.40625 370.046875 775.835938 369.277344 774.417969 383.167969 C 773.632812 390.820312 779.882812 390.484375 781.617188 389.148438 C 793.507812 380.015625 808.472656 374.421875 808.472656 374.421875 C 808.472656 374.421875 818.769531 360.492188 824.472656 367.03125 C 825.050781 369.238281 817.472656 374.347656 815.636719 376.886719 C 813.8125 378.105469 802.648438 384.191406 802.648438 384.191406 L 813.773438 381.914062 C 813.773438 381.914062 834.941406 370.199219 837.683594 378.566406 C 838.140625 379.019531 837.074219 380.082031 837.074219 380.082031 L 834.027344 382.214844 C 834.027344 382.214844 825.714844 380.132812 826.023438 382.414062 C 826.316406 384.691406 827.09375 386.582031 823.753906 390.515625 " fill-opacity="1" fill-rule="nonzero"/></g><path fill="#ea8e75" d="M 761.164062 420.78125 C 748.121094 437.480469 729.695312 465.03125 729.695312 465.03125 C 731.683594 473.96875 770.277344 446.910156 770.277344 446.910156 C 770.277344 446.910156 773.964844 440.535156 777.636719 432.460938 C 770.808594 430.648438 763.363281 427.183594 761.164062 420.78125 " fill-opacity="1" fill-rule="nonzero"/><g clip-path="url(#fa4c59fe82)"><path fill="#ffae92" d="M 828.410156 381.933594 C 828.410156 381.933594 835.089844 379.550781 837.121094 382.769531 C 836.523438 385.988281 818.621094 399.820312 818.621094 399.820312 L 802.746094 404.113281 L 828.410156 381.933594 " fill-opacity="1" fill-rule="nonzero"/></g><path fill="#ffbba9" d="M 832.109375 379.789062 C 825.558594 376.292969 818.378906 389.925781 818.378906 389.925781 C 818.378906 389.925781 811.816406 391.234375 805.730469 395.527344 C 795.363281 396 782.691406 397.476562 773.460938 405.101562 C 764.890625 412.191406 777.300781 422.398438 786.035156 417.183594 C 794.585938 412.082031 805.636719 403.757812 808.234375 402.320312 L 821.246094 396.601562 C 821.246094 396.601562 833.175781 380.699219 832.109375 379.789062 " fill-opacity="1" fill-rule="nonzero"/><path fill="#e6edf2" d="M 779.589844 440.644531 C 774.25 452.984375 746.988281 489.710938 737.425781 488.511719 C 731.164062 487.726562 725.863281 483.835938 721.738281 479.390625 C 715.464844 472.628906 711.894531 464.582031 711.71875 464.183594 C 711.707031 464.171875 711.707031 464.160156 711.707031 464.160156 L 721.394531 423.128906 L 734.613281 444.773438 L 738.089844 450.480469 L 759.050781 419.628906 C 759.050781 419.628906 763.558594 438.640625 779.589844 440.644531 " fill-opacity="1" fill-rule="nonzero"/><path fill="#cbe2f2" d="M 734.613281 444.773438 C 728.050781 453.683594 723.691406 465.113281 721.738281 479.390625 C 715.464844 472.628906 711.894531 464.582031 711.71875 464.183594 C 711.707031 464.171875 711.707031 464.160156 711.707031 464.160156 L 721.394531 423.128906 L 734.613281 444.773438 " fill-opacity="1" fill-rule="nonzero"/><g clip-path="url(#e87a344468)"><path fill="#8fe4ea" d="M 697.921875 522.160156 L 682.734375 524.316406 L 668.765625 526.300781 L 657.144531 527.9375 L 649.398438 529.03125 L 624.570312 532.542969 C 623.464844 532.890625 622.417969 534.386719 621.414062 536.882812 C 619.847656 540.808594 618.417969 547.210938 617.195312 555.578125 C 616.804688 558.300781 616.433594 561.222656 616.089844 564.34375 L 616.089844 564.386719 C 615.859375 566.347656 615.660156 568.40625 615.460938 570.507812 C 615.371094 571.472656 615.28125 572.441406 615.210938 573.441406 C 614.929688 576.765625 614.660156 580.25 614.429688 583.871094 C 614.316406 585.511719 614.226562 587.175781 614.121094 588.863281 C 613.886719 593.566406 613.679688 598.511719 613.519531 603.625 L 674.539062 603.625 C 674.53125 603.636719 674.523438 603.652344 674.519531 603.667969 L 721.226562 603.667969 L 721.226562 518.863281 L 697.921875 522.160156 " fill-opacity="1" fill-rule="nonzero"/></g><path fill="#4a1e14" d="M 604.03125 391.621094 C 604.03125 391.621094 666.335938 413.507812 693.320312 395.980469 C 706.347656 376.710938 667.351562 332.820312 650.746094 311.320312 C 616.476562 305.324219 624.878906 312.65625 624.878906 312.65625 C 611.878906 334.96875 604.03125 362.132812 604.03125 391.621094 " fill-opacity="1" fill-rule="nonzero"/><path fill="#8fe4ea" d="M 615.5625 378.257812 C 615.582031 377.914062 615.601562 377.496094 615.621094 377.007812 L 616.304688 378.347656 C 616.304688 378.347656 615.941406 378.296875 615.5625 378.257812 Z M 714.714844 434.5625 L 694.464844 434.5625 L 694.464844 375.375 C 694.183594 375.234375 693.90625 375.09375 693.632812 374.953125 C 693.523438 374.894531 693.410156 374.84375 693.300781 374.792969 C 692.992188 374.640625 692.679688 374.492188 692.371094 374.363281 C 691.765625 374.09375 691.195312 373.851562 690.644531 373.632812 C 690.375 373.523438 690.117188 373.421875 689.867188 373.332031 C 688.835938 372.941406 687.960938 372.652344 687.28125 372.453125 C 686.21875 372.152344 685.597656 372.019531 685.597656 372.019531 L 685.328125 371.949219 L 680.246094 370.359375 L 678.875 369.941406 L 676.71875 369.269531 L 671.902344 367.757812 L 669.917969 367.148438 L 662.992188 366.679688 L 662.515625 366.648438 L 644.578125 365.476562 C 644.578125 365.476562 644.347656 365.476562 643.914062 365.507812 L 643.90625 365.507812 C 643.855469 365.519531 643.777344 365.53125 643.636719 365.535156 C 643.394531 365.566406 643.035156 365.609375 642.554688 365.667969 C 642.34375 365.695312 642.109375 365.726562 641.863281 365.753906 C 641.289062 365.835938 640.613281 365.925781 639.847656 366.039062 C 639.816406 366.046875 639.789062 366.046875 639.757812 366.054688 L 639.726562 366.054688 C 639.578125 366.078125 639.417969 366.097656 639.257812 366.125 C 639.226562 366.125 639.199219 366.136719 639.167969 366.136719 C 638.976562 366.167969 638.785156 366.195312 638.597656 366.226562 C 638.183594 366.289062 637.765625 366.347656 637.324219 366.417969 C 634.96875 366.777344 632.214844 367.257812 629.421875 367.847656 C 627.152344 368.308594 624.886719 368.851562 622.792969 369.460938 L 622.789062 369.460938 L 615.582031 372.492188 L 615.5625 372.511719 C 615.1875 373.511719 615.101562 376.367188 615.171875 378.1875 C 614.898438 378.1875 614.6875 378.167969 614.617188 378.1875 C 613.175781 378.527344 613.566406 383.492188 615.3125 395.089844 C 616.121094 400.433594 617.214844 407.199219 618.554688 415.574219 C 618.566406 415.632812 618.578125 415.695312 618.585938 415.753906 C 619.980469 423.621094 616.945312 428.503906 614.070312 433.058594 L 614.058594 433.066406 L 610.84375 433.066406 C 611.234375 434.160156 611.644531 435.257812 612.074219 436.328125 C 612.988281 438.761719 613.925781 441.152344 614.871094 443.464844 C 615.160156 444.167969 615.453125 444.867188 615.730469 445.554688 C 616.273438 446.839844 616.804688 448.089844 617.335938 449.320312 C 617.433594 449.539062 617.496094 449.769531 617.59375 449.980469 C 618.324219 451.671875 619.050781 453.34375 619.769531 454.933594 C 626.421875 469.835938 632.132812 479.914062 632.132812 479.914062 C 632.113281 480.023438 632.09375 480.140625 632.050781 480.289062 C 632.035156 480.414062 632.015625 480.53125 631.984375 480.664062 C 631.972656 480.703125 631.964844 480.742188 631.953125 480.792969 C 631.914062 480.984375 631.863281 481.191406 631.804688 481.433594 C 629.667969 491.34375 620.253906 526.660156 620.253906 536.523438 C 620.640625 536.644531 621.019531 536.773438 621.414062 536.882812 C 625.152344 538.054688 628.980469 539.039062 632.855469 539.867188 L 632.976562 539.886719 C 637.976562 540.957031 642.925781 541.816406 647.773438 542.5 C 660.328125 544.28125 672.273438 544.878906 682.980469 544.808594 C 689.164062 544.78125 694.925781 544.519531 700.167969 544.144531 C 705.640625 543.742188 710.53125 543.210938 714.714844 542.660156 L 714.714844 434.5625 " fill-opacity="1" fill-rule="nonzero"/><path fill="#ea8e75" d="M 678.867188 369.929688 L 671.898438 367.753906 L 671.890625 367.75 L 671.832031 345.328125 C 672.296875 334.769531 668.433594 333.554688 661.386719 332.855469 L 658.003906 332.535156 C 650.933594 331.835938 644.363281 324.613281 643.925781 335.148438 L 643.925781 365.5 L 643.90625 365.5 C 643.59375 365.539062 640.957031 365.839844 637.324219 366.414062 C 641.914062 383.203125 656.574219 392.316406 670.9375 391.082031 C 679.128906 390.367188 680.304688 375.734375 678.867188 369.929688 " fill-opacity="1" fill-rule="nonzero"/><path fill="#ffae92" d="M 678.867188 369.929688 L 671.898438 367.753906 L 671.890625 367.75 L 671.871094 361.363281 C 661.90625 366.484375 653.21875 373.527344 646.625 382.339844 C 653.261719 388.714844 662.15625 391.835938 670.9375 391.082031 C 679.128906 390.367188 680.304688 375.734375 678.867188 369.929688 " fill-opacity="1" fill-rule="nonzero"/><g clip-path="url(#0fca877d9b)"><path fill="#e6edf2" d="M 723.679688 451.699219 C 723.75 451.492188 723.953125 450.832031 724.242188 449.859375 C 724.292969 449.660156 724.359375 449.460938 724.421875 449.242188 C 724.464844 449.089844 724.511719 448.9375 724.554688 448.789062 C 724.601562 448.628906 724.652344 448.46875 724.695312 448.300781 C 724.714844 448.257812 724.722656 448.21875 724.730469 448.171875 C 724.800781 447.949219 724.871094 447.730469 724.933594 447.488281 C 724.964844 447.398438 724.996094 447.300781 725.023438 447.199219 C 725.0625 447.027344 725.113281 446.867188 725.164062 446.699219 C 725.183594 446.648438 725.195312 446.597656 725.214844 446.535156 C 725.386719 445.957031 725.554688 445.34375 725.734375 444.71875 C 725.96875 443.914062 726.207031 443.082031 726.433594 442.222656 C 726.578125 441.722656 726.71875 441.222656 726.859375 440.714844 C 727.097656 439.820312 727.347656 438.914062 727.589844 438.011719 C 727.648438 437.792969 727.707031 437.558594 727.757812 437.339844 C 727.839844 437.03125 727.921875 436.730469 728 436.429688 C 728.078125 436.109375 728.160156 435.792969 728.25 435.46875 C 728.25 435.4375 728.257812 435.410156 728.269531 435.378906 C 728.339844 435.097656 728.398438 434.828125 728.46875 434.5625 C 729.421875 430.695312 730.113281 427.34375 730.019531 425.992188 C 729.953125 424.667969 729.742188 423.347656 729.324219 422.148438 C 729.0625 421.371094 728.757812 420.640625 728.328125 419.957031 C 728.328125 419.957031 728.308594 419.917969 728.25 419.828125 C 728.25 419.828125 721.085938 408.605469 713.460938 397.574219 C 706.898438 388.085938 699.996094 378.734375 697 376.773438 C 696.128906 376.253906 695.273438 375.785156 694.464844 375.375 C 694.183594 375.234375 693.90625 375.09375 693.632812 374.953125 C 693.523438 374.894531 693.410156 374.84375 693.300781 374.792969 C 692.992188 374.640625 692.679688 374.492188 692.371094 374.363281 C 691.917969 374.152344 691.476562 373.964844 691.058594 373.804688 C 690.917969 373.734375 690.777344 373.683594 690.644531 373.632812 C 690.375 373.523438 690.117188 373.421875 689.867188 373.332031 C 689.253906 373.105469 688.707031 372.902344 688.210938 372.75 C 687.871094 372.632812 687.5625 372.53125 687.28125 372.453125 C 686.21875 372.152344 685.597656 372.019531 685.597656 372.019531 L 685.328125 371.949219 L 680.246094 370.359375 L 678.875 369.941406 L 676.71875 369.257812 L 676.71875 369.269531 C 676.75 369.328125 676.777344 369.382812 676.808594 369.441406 C 677.769531 371.351562 678.625 373.441406 679.386719 375.65625 C 681.902344 382.9375 683.441406 391.597656 684.464844 400.042969 C 686.199219 414.414062 686.460938 428.191406 687.539062 433.667969 C 689.242188 442.304688 693.023438 475.480469 696.859375 511.964844 C 697.207031 515.335938 697.574219 518.75 697.921875 522.160156 C 698.394531 526.71875 698.863281 531.28125 699.324219 535.835938 C 699.601562 538.617188 699.886719 541.386719 700.167969 544.144531 C 702.445312 566.769531 704.519531 588.28125 705.910156 603.667969 L 744.753906 603.667969 C 740.675781 571.203125 731.867188 520.730469 717.046875 483.503906 C 715.246094 478.972656 723.679688 451.699219 723.679688 451.699219 " fill-opacity="1" fill-rule="nonzero"/></g><g clip-path="url(#f80f4d04fc)"><path fill="#e6edf2" d="M 615.5625 378.257812 C 615.582031 377.914062 615.601562 377.496094 615.621094 377.007812 L 616.304688 378.347656 C 616.304688 378.347656 615.941406 378.296875 615.5625 378.257812 Z M 682.980469 544.808594 C 682.941406 536.71875 682.863281 529.667969 682.734375 524.316406 C 682.703125 523.074219 682.664062 521.925781 682.621094 520.875 C 682.53125 518.238281 682.421875 516.230469 682.28125 514.976562 C 681.230469 505.363281 679.195312 490.28125 677.050781 475.550781 L 677.050781 475.539062 C 676.851562 474.199219 676.660156 472.875 676.460938 471.554688 L 676.460938 471.546875 C 673.753906 453.359375 670.976562 436.570312 669.757812 432.417969 C 669.171875 431.648438 661.800781 417.90625 654.414062 402.402344 C 650.882812 394.976562 647.34375 387.15625 644.539062 380.148438 L 644.527344 380.136719 C 644.527344 380.128906 644.515625 380.128906 644.515625 380.117188 C 642.402344 374.765625 640.6875 369.902344 639.757812 366.054688 L 639.726562 366.054688 C 639.578125 366.078125 639.417969 366.097656 639.257812 366.125 C 639.226562 366.125 639.199219 366.136719 639.167969 366.136719 C 638.976562 366.167969 638.785156 366.195312 638.597656 366.226562 C 638.183594 366.289062 637.765625 366.347656 637.324219 366.417969 C 635.257812 366.738281 632.886719 367.136719 630.441406 367.628906 C 630.101562 367.710938 629.757812 367.78125 629.421875 367.847656 C 629.066406 367.917969 628.71875 367.992188 628.378906 368.070312 C 626.460938 368.476562 624.570312 368.941406 622.792969 369.460938 L 622.789062 369.460938 L 615.582031 372.492188 L 615.5625 372.511719 C 615.1875 373.511719 615.101562 376.367188 615.171875 378.1875 C 614.898438 378.1875 614.6875 378.167969 614.617188 378.1875 C 613.175781 378.527344 613.566406 383.492188 615.3125 395.089844 C 616.121094 400.433594 617.214844 407.199219 618.554688 415.574219 C 618.566406 415.632812 618.578125 415.695312 618.585938 415.753906 C 619.980469 423.621094 616.945312 428.503906 614.070312 433.058594 L 614.058594 433.066406 L 610.84375 433.066406 C 611.234375 434.160156 611.644531 435.257812 612.074219 436.328125 C 612.988281 438.761719 613.925781 441.152344 614.871094 443.464844 C 615.160156 444.167969 615.453125 444.867188 615.730469 445.554688 C 616.273438 446.839844 616.804688 448.089844 617.335938 449.320312 C 617.433594 449.539062 617.496094 449.769531 617.59375 449.980469 C 618.324219 451.671875 619.050781 453.34375 619.769531 454.933594 C 626.421875 469.835938 632.132812 479.914062 632.132812 479.914062 C 632.113281 480.023438 632.09375 480.140625 632.050781 480.289062 C 632.035156 480.414062 632.015625 480.53125 631.984375 480.664062 C 631.972656 480.703125 631.964844 480.742188 631.953125 480.792969 C 631.914062 480.984375 631.863281 481.191406 631.804688 481.433594 C 631.550781 482.515625 631.171875 484.046875 630.691406 485.96875 C 630.640625 486.179688 630.589844 486.386719 630.53125 486.609375 C 630.429688 487.027344 630.320312 487.46875 630.199219 487.929688 C 630.101562 488.308594 630.011719 488.710938 629.898438 489.109375 C 628.296875 495.472656 625.984375 504.570312 623.425781 515.089844 C 623.253906 515.808594 623.078125 516.542969 622.894531 517.273438 C 622.835938 517.5 622.789062 517.71875 622.734375 517.949219 C 622.257812 519.945312 621.761719 521.972656 621.273438 524.046875 C 621.089844 524.804688 620.914062 525.578125 620.71875 526.359375 C 620.671875 526.578125 620.613281 526.800781 620.570312 527.007812 C 620.390625 527.777344 620.199219 528.5625 620.019531 529.339844 C 619.839844 530.121094 619.652344 530.898438 619.46875 531.699219 C 619.339844 532.292969 619.199219 532.882812 619.058594 533.472656 C 618.367188 536.445312 617.683594 539.480469 617.003906 542.53125 C 616.683594 543.980469 616.355469 545.441406 616.03125 546.902344 C 615.992188 547.070312 615.953125 547.253906 615.921875 547.421875 C 615.601562 548.894531 615.28125 550.375 614.960938 551.847656 C 614.582031 553.648438 614.199219 555.4375 613.828125 557.242188 C 613.65625 558.050781 613.496094 558.871094 613.324219 559.679688 C 613.054688 560.992188 612.796875 562.292969 612.546875 563.585938 C 612.207031 565.265625 611.875 566.929688 611.5625 568.589844 C 611.402344 569.417969 611.253906 570.25 611.089844 571.074219 C 611.074219 571.191406 611.042969 571.308594 611.019531 571.433594 C 610.742188 572.953125 610.460938 574.460938 610.199219 575.964844 C 608.75 584.128906 607.578125 591.835938 606.855469 598.601562 C 606.734375 599.671875 606.632812 600.714844 606.542969 601.734375 C 606.488281 602.394531 606.441406 603.03125 606.390625 603.667969 L 682.914062 603.667969 C 682.941406 597.074219 682.964844 590.328125 682.980469 583.628906 C 683.035156 569.839844 683.042969 556.28125 682.980469 544.808594 " fill-opacity="1" fill-rule="nonzero"/></g><g clip-path="url(#9681b295b1)"><path fill="#cbe2f2" d="M 647.773438 542.5 C 647.792969 542.320312 647.816406 542.140625 647.835938 541.960938 C 648.285156 537.65625 648.824219 533.34375 649.398438 529.03125 C 651.578125 512.386719 654.167969 495.625 653.84375 478.921875 C 648.222656 470.367188 642.847656 461.65625 637.933594 452.710938 C 633.296875 444.246094 629.480469 434.578125 624.710938 425.640625 C 622.847656 422.128906 620.820312 418.738281 618.554688 415.574219 C 618.566406 415.632812 618.578125 415.695312 618.585938 415.753906 C 619.980469 423.621094 616.945312 428.503906 614.070312 433.058594 L 614.058594 433.066406 L 610.84375 433.066406 C 611.234375 434.160156 611.644531 435.257812 612.074219 436.328125 C 612.988281 438.761719 613.925781 441.152344 614.871094 443.464844 C 615.160156 444.167969 615.453125 444.867188 615.730469 445.554688 C 616.273438 446.839844 616.804688 448.089844 617.335938 449.320312 C 617.433594 449.539062 617.496094 449.769531 617.59375 449.980469 C 618.324219 451.671875 619.050781 453.34375 619.769531 454.933594 C 626.421875 469.835938 632.132812 479.914062 632.132812 479.914062 C 632.113281 480.023438 632.09375 480.140625 632.050781 480.289062 C 632.035156 480.414062 632.015625 480.53125 631.984375 480.664062 C 631.972656 480.703125 631.964844 480.742188 631.953125 480.792969 C 629.542969 491.496094 609.210938 566.519531 606.390625 603.667969 L 641.949219 603.667969 C 641.953125 603.652344 641.953125 603.636719 641.953125 603.625 C 643.753906 583.242188 645.648438 562.863281 647.773438 542.5 " fill-opacity="1" fill-rule="nonzero"/></g><path fill="#a3e2e8" d="M 615.585938 372.484375 C 617.101562 371.347656 619.722656 370.308594 622.792969 369.453125 L 615.585938 372.484375 " fill-opacity="1" fill-rule="nonzero"/><path fill="#ffae92" d="M 595.664062 430.265625 L 595.664062 430.242188 C 595.828125 429.832031 595.917969 429.605469 595.917969 429.605469 C 595.917969 429.605469 595.433594 429.816406 595.664062 430.265625 " fill-opacity="1" fill-rule="nonzero"/><path fill="#3c160d" d="M 710.949219 307.679688 C 711.210938 304.132812 711.59375 301.285156 711.953125 299.441406 C 707.535156 295.214844 710.636719 297.75 710.542969 297.601562 C 707.980469 293.203125 711.585938 291.703125 710.246094 286.855469 C 708.328125 279.980469 706.167969 273.179688 704.085938 266.351562 C 703.253906 263.597656 706.050781 261.769531 708.117188 262.363281 C 705.648438 253.605469 697.574219 247.316406 689.230469 243.46875 C 684.515625 243.261719 679.773438 242.519531 675.074219 242.183594 C 666.964844 241.648438 658.734375 241.441406 650.636719 242.398438 C 644.804688 243.066406 637.945312 244.269531 633.574219 248.566406 C 630.300781 251.800781 629.46875 256.335938 628.683594 260.683594 C 627.785156 265.8125 626.6875 270.804688 624.929688 275.746094 C 621.128906 286.316406 619.726562 293.351562 619.878906 304.695312 L 710.949219 307.679688 " fill-opacity="1" fill-rule="nonzero"/><path fill="#ffae92" d="M 693.210938 346.210938 C 689.695312 349.164062 685.746094 351.15625 681.441406 351.839844 C 656.121094 355.832031 627.785156 331.140625 623.796875 305.824219 C 623.796875 305.824219 623.757812 305.621094 623.707031 305.25 C 626.355469 304.832031 628.085938 301.980469 627.585938 298.84375 C 627.144531 295.988281 624.957031 293.914062 622.566406 293.914062 C 622.496094 292.832031 622.914062 290.320312 623.636719 286.949219 C 626.433594 273.886719 633.738281 247.929688 634.007812 242.328125 L 695.117188 245.9375 C 710.769531 268.875 710.828125 283.386719 711.738281 293.152344 C 713.398438 311.375 706.226562 335.304688 693.210938 346.210938 " fill-opacity="1" fill-rule="nonzero"/><path fill="#4a1e14" d="M 712.648438 285.90625 C 712.632812 286.507812 712.589844 287.089844 712.550781 287.621094 C 712.261719 291.03125 711.757812 293.089844 711.738281 293.152344 C 711.429688 291.195312 711.015625 289.328125 710.546875 287.578125 C 710.375 286.917969 710.175781 286.277344 709.984375 285.636719 C 709.804688 285.058594 709.613281 284.488281 709.402344 283.925781 C 705.503906 272.878906 698.433594 265.84375 691.160156 261.398438 C 679.207031 254.054688 666.660156 253.664062 666.660156 253.664062 C 665.746094 258.367188 662.710938 263.179688 658.765625 267.691406 C 657.992188 268.5625 657.191406 269.417969 656.371094 270.253906 C 656.121094 270.507812 655.871094 270.777344 655.617188 271.019531 C 655.046875 271.597656 654.46875 272.15625 653.886719 272.71875 C 652.722656 273.808594 651.53125 274.882812 650.308594 275.90625 C 644.578125 280.824219 638.597656 284.929688 634.609375 287.488281 C 631.734375 289.339844 629.886719 290.390625 629.886719 290.390625 C 629.617188 292.53125 629.515625 294.746094 629.480469 296.996094 L 627.394531 297.988281 L 627.382812 297.988281 L 621.921875 300.585938 C 621.375 298.527344 620.832031 296.476562 620.269531 294.398438 C 616.433594 279.652344 613.324219 264.453125 618.035156 248.308594 C 662.882812 205.496094 696.21875 241.703125 701.015625 247.921875 C 704.613281 252.5625 707.148438 257.355469 708.933594 262 C 712.492188 271.324219 712.9375 280.082031 712.648438 285.90625 " fill-opacity="1" fill-rule="nonzero"/><path fill="#b0251d" d="M 695.507812 317.929688 C 695.285156 318.054688 694.945312 320.976562 693.382812 324.175781 C 693.355469 324.222656 693.335938 324.238281 693.328125 324.28125 L 693.320312 324.269531 C 692.464844 326.007812 691.253906 327.789062 689.523438 329.253906 C 689.007812 329.710938 688.441406 330.109375 687.828125 330.480469 C 685.746094 331.753906 683.070312 332.597656 679.640625 332.59375 C 679.390625 332.597656 679.132812 332.589844 678.917969 332.589844 C 672.273438 332.375 667.871094 329.179688 664.972656 325.464844 C 661.246094 320.695312 660.0625 315.085938 659.933594 313.90625 C 659.933594 313.90625 663.046875 317.070312 668.699219 319.316406 C 674.871094 321.777344 684.070312 323.109375 695.507812 317.929688 " fill-opacity="1" fill-rule="nonzero"/><path fill="#ffffff" d="M 695.535156 317.921875 C 695.15625 320.144531 694.425781 322.269531 693.382812 324.175781 C 693.355469 324.222656 693.335938 324.238281 693.328125 324.28125 L 693.320312 324.269531 C 676.25 331.355469 667.144531 322.429688 664.785156 317.425781 C 665.820312 317.761719 667.59375 319.105469 668.699219 319.316406 C 674.871094 321.777344 684.070312 323.109375 695.507812 317.929688 L 695.535156 317.921875 " fill-opacity="1" fill-rule="nonzero"/><path fill="#250f0a" d="M 690.410156 273.90625 C 696.125 274.917969 703.210938 278.140625 706.414062 280.445312 C 706.375 280.542969 706.320312 280.636719 706.277344 280.726562 C 706.125 281.082031 705.984375 281.449219 705.863281 281.8125 C 702.785156 279.886719 694.601562 277.652344 689.988281 277.027344 C 689.511719 275.035156 690.410156 273.90625 690.410156 273.90625 " fill-opacity="1" fill-rule="nonzero"/><path fill="#fb8876" d="M 678.753906 312.359375 C 675.882812 311.691406 674.453125 309.605469 674.152344 306.8125 C 673.863281 304.171875 675.207031 297.402344 676.621094 294.1875 C 677.46875 295.558594 677.964844 301.042969 680.324219 301.183594 C 684.527344 301.394531 686.851562 304.53125 686.933594 307.441406 L 686.933594 307.460938 C 687.042969 310.65625 684.46875 313.632812 678.753906 312.359375 " fill-opacity="1" fill-rule="nonzero"/><path fill="#fbc7ab" d="M 681.203125 302.285156 C 680.785156 302.816406 681.09375 303.785156 681.902344 304.441406 C 682.730469 305.078125 683.714844 305.167969 684.140625 304.621094 C 684.554688 304.082031 684.246094 303.121094 683.421875 302.480469 C 682.628906 301.824219 681.625 301.734375 681.203125 302.285156 " fill-opacity="1" fill-rule="nonzero"/><path fill="#ec7357" d="M 678.753906 312.359375 C 675.882812 311.691406 674.453125 309.605469 674.152344 306.8125 C 674.152344 306.8125 680.320312 313.40625 686.933594 307.460938 C 687.042969 310.65625 684.46875 313.632812 678.753906 312.359375 " fill-opacity="1" fill-rule="nonzero"/><path fill="#250f0a" d="M 646.5 282.964844 C 649.125 280.488281 656.21875 276.433594 662.011719 274.902344 C 662.011719 274.902344 662.992188 275.925781 662.660156 277.90625 C 657.984375 278.945312 649.519531 282.050781 647.171875 284.203125 C 646.96875 283.769531 646.746094 283.371094 646.5 282.964844 " fill-opacity="1" fill-rule="nonzero"/><path fill="#ffffff" d="M 652.527344 288.863281 C 651.332031 289.375 650.378906 290.101562 649.789062 290.972656 C 649.445312 291.558594 649.234375 292.203125 649.265625 292.851562 C 649.265625 293.15625 649.328125 293.460938 649.445312 293.738281 C 649.753906 294.664062 650.511719 295.441406 651.511719 296.039062 C 652.234375 296.457031 653.097656 296.753906 654.03125 296.957031 C 653.191406 296.207031 652.484375 295.128906 652.117188 293.8125 C 651.535156 291.980469 651.753906 290.144531 652.527344 288.863281 " fill-opacity="1" fill-rule="nonzero"/><path fill="#ffffff" d="M 663.371094 292.40625 C 663.316406 290.292969 660.992188 288.582031 657.929688 288.171875 C 658.769531 288.960938 659.546875 290.160156 659.925781 291.402344 C 660.515625 293.417969 660.222656 295.417969 659.285156 296.683594 C 659.894531 296.492188 660.460938 296.226562 660.964844 295.929688 L 660.953125 295.898438 C 662.449219 295.066406 663.410156 293.761719 663.371094 292.40625 " fill-opacity="1" fill-rule="nonzero"/><path fill="#492516" d="M 659.925781 291.402344 C 659.546875 290.160156 658.769531 288.960938 657.929688 288.171875 C 657.847656 288.097656 657.773438 287.992188 657.683594 287.917969 C 657.175781 287.847656 656.707031 287.828125 656.15625 287.851562 C 655.675781 287.875 655.140625 287.867188 654.675781 287.976562 C 653.871094 288.097656 653.207031 288.574219 652.527344 288.863281 C 651.753906 290.144531 651.535156 291.980469 652.117188 293.8125 C 652.484375 295.128906 653.191406 296.207031 654.03125 296.957031 C 654.34375 297.011719 654.640625 297.058594 654.953125 297.085938 C 655.445312 297.144531 655.964844 297.160156 656.429688 297.140625 L 656.550781 297.140625 C 657.117188 297.121094 657.726562 297.058594 658.277344 296.9375 C 658.617188 296.867188 658.953125 296.792969 659.285156 296.683594 C 660.222656 295.417969 660.515625 293.417969 659.925781 291.402344 " fill-opacity="1" fill-rule="nonzero"/><path fill="#ffffff" d="M 651.425781 292.234375 C 651.449219 293.027344 652.101562 293.648438 652.871094 293.609375 C 653.636719 293.597656 654.261719 292.9375 654.246094 292.164062 C 654.214844 291.371094 653.558594 290.734375 652.792969 290.757812 C 652.007812 290.789062 651.417969 291.445312 651.425781 292.234375 " fill-opacity="1" fill-rule="nonzero"/><path fill="#ffffff" d="M 659.242188 294.707031 C 659.253906 295.296875 659.722656 295.742188 660.304688 295.714844 C 660.863281 295.707031 661.308594 295.238281 661.308594 294.652344 C 661.273438 294.082031 660.792969 293.621094 660.238281 293.640625 C 659.664062 293.660156 659.234375 294.140625 659.242188 294.707031 " fill-opacity="1" fill-rule="nonzero"/><path fill="#2f1e1b" d="M 655.445312 285.839844 C 652.132812 286.398438 650.59375 288.179688 649.875 289.75 C 649.835938 289.75 647.683594 289.972656 646.179688 289.664062 C 646.9375 291.78125 649.191406 292.480469 649.226562 292.480469 L 649.226562 292.503906 L 649.285156 292.480469 C 649.328125 291.976562 649.511719 291.445312 649.789062 290.972656 C 650.378906 290.101562 651.332031 289.375 652.542969 288.863281 C 653.207031 288.582031 653.921875 288.355469 654.71875 288.242188 C 655.203125 288.125 655.691406 288.085938 656.15625 288.066406 C 656.71875 288.058594 657.285156 288.070312 657.808594 288.136719 C 660.375 288.457031 662.449219 289.691406 663.109375 291.3125 L 663.128906 291.3125 C 663.128906 291.3125 661.832031 284.765625 655.445312 285.839844 " fill-opacity="1" fill-rule="nonzero"/><path fill="#ffffff" d="M 698.03125 286.265625 C 698.816406 287.140625 699.496094 288.457031 699.769531 289.757812 C 700.195312 291.867188 699.726562 293.882812 698.644531 295.097656 C 699.285156 294.960938 699.871094 294.734375 700.410156 294.476562 L 700.410156 294.441406 C 702.007812 293.738281 703.121094 292.496094 703.191406 291.101562 C 703.324219 288.933594 701.125 286.96875 698.03125 286.265625 " fill-opacity="1" fill-rule="nonzero"/><path fill="#ffffff" d="M 692.457031 286.46875 C 691.183594 286.882812 690.140625 287.53125 689.457031 288.371094 C 689.042969 288.941406 688.777344 289.554688 688.746094 290.230469 C 688.734375 290.546875 688.761719 290.878906 688.847656 291.160156 C 689.085938 292.140625 689.769531 293 690.738281 293.707031 C 691.457031 294.1875 692.3125 294.585938 693.253906 294.875 C 692.445312 294.019531 691.832031 292.859375 691.558594 291.492188 C 691.15625 289.550781 691.539062 287.703125 692.457031 286.46875 " fill-opacity="1" fill-rule="nonzero"/><path fill="#492516" d="M 699.769531 289.757812 C 699.496094 288.457031 698.816406 287.140625 698.03125 286.265625 C 697.953125 286.183594 697.878906 286.070312 697.792969 285.996094 C 697.289062 285.867188 696.8125 285.816406 696.242188 285.773438 C 695.746094 285.761719 695.207031 285.699219 694.707031 285.761719 C 693.898438 285.824219 693.152344 286.238281 692.457031 286.46875 C 691.539062 287.703125 691.15625 289.550781 691.558594 291.492188 C 691.832031 292.859375 692.445312 294.019531 693.253906 294.875 C 693.554688 294.960938 693.863281 295.027344 694.179688 295.101562 C 694.664062 295.199219 695.195312 295.257812 695.683594 295.277344 L 695.789062 295.296875 C 696.382812 295.339844 696.996094 295.320312 697.5625 295.257812 C 697.929688 295.214844 698.277344 295.164062 698.644531 295.097656 C 699.726562 293.882812 700.195312 291.867188 699.769531 289.757812 " fill-opacity="1" fill-rule="nonzero"/><path fill="#ffffff" d="M 691.019531 289.808594 C 690.964844 290.628906 691.574219 291.3125 692.363281 291.359375 C 693.152344 291.410156 693.851562 290.789062 693.898438 289.988281 C 693.933594 289.1875 693.328125 288.484375 692.542969 288.433594 C 691.746094 288.382812 691.085938 289.003906 691.019531 289.808594 " fill-opacity="1" fill-rule="nonzero"/><path fill="#ffffff" d="M 698.773438 293.070312 C 698.734375 293.667969 699.171875 294.171875 699.753906 294.203125 C 700.328125 294.234375 700.839844 293.789062 700.863281 293.207031 C 700.902344 292.625 700.453125 292.105469 699.898438 292.070312 C 699.304688 292.035156 698.8125 292.496094 698.773438 293.070312 " fill-opacity="1" fill-rule="nonzero"/><path fill="#2f1e1b" d="M 696.183594 283.917969 C 699.613281 284.222656 701.324219 285.917969 702.195312 287.472656 C 702.230469 287.472656 704.4375 287.535156 705.941406 287.09375 C 705.332031 289.308594 703.078125 290.210938 703.058594 290.230469 L 702.992188 290.230469 C 702.914062 289.691406 702.675781 289.175781 702.355469 288.71875 C 701.699219 287.863281 700.664062 287.195312 699.398438 286.761719 C 698.691406 286.554688 697.917969 286.371094 697.101562 286.308594 C 696.621094 286.238281 696.117188 286.234375 695.625 286.25 C 695.054688 286.277344 694.484375 286.347656 693.941406 286.453125 C 691.347656 286.988281 689.320312 288.402344 688.761719 290.121094 L 688.746094 290.121094 C 688.746094 290.121094 689.578125 283.328125 696.183594 283.917969 " fill-opacity="1" fill-rule="nonzero"/><path fill="#ea8e75" d="M 614.621094 302.773438 C 613.160156 293.476562 616.992188 285.203125 623.398438 284.621094 C 625.957031 284.382812 628.316406 289.554688 629.710938 293.175781 C 635.363281 303.382812 628.894531 307.164062 632.1875 316.441406 C 631.148438 317.136719 630 317.621094 628.777344 317.816406 C 622.433594 318.808594 616.101562 312.074219 614.621094 302.773438 " fill-opacity="1" fill-rule="nonzero"/><path fill="#e6edf2" d="M 615.585938 372.484375 L 615.5625 372.503906 C 609.535156 377.085938 604.484375 387.246094 600.871094 398.390625 C 593.269531 421.824219 590.847656 450.929688 590.847656 450.929688 C 591.386719 448.992188 609.503906 424.058594 624.710938 425.640625 L 622.792969 369.453125 C 620.121094 369.996094 617.648438 370.878906 615.585938 372.484375 " fill-opacity="1" fill-rule="nonzero"/><path fill="#6ec6cc" d="M 682.980469 583.628906 C 683.035156 569.839844 683.042969 556.28125 682.980469 544.808594 C 682.941406 536.71875 682.863281 529.667969 682.734375 524.316406 C 682.703125 523.074219 682.664062 521.925781 682.621094 520.875 L 696.859375 511.964844 C 697.207031 515.335938 697.574219 518.75 697.921875 522.160156 C 698.394531 526.71875 698.863281 531.28125 699.324219 535.835938 L 682.980469 583.628906 " fill-opacity="1" fill-rule="nonzero"/><path fill="#cbe2f2" d="M 682.980469 583.628906 L 682.320312 585.582031 L 637.5625 568.90625 L 638.898438 548.222656 L 682.621094 520.875 C 682.664062 521.925781 682.703125 523.074219 682.734375 524.316406 C 682.863281 529.667969 682.941406 536.71875 682.980469 544.808594 C 683.042969 556.28125 683.035156 569.839844 682.980469 583.628906 " fill-opacity="1" fill-rule="nonzero"/><path fill="#cbe2f2" d="M 703.46875 466.78125 L 701.535156 466.242188 C 702.808594 461.679688 702.53125 433.167969 702.191406 418.148438 L 688.59375 412.382812 L 691.988281 411.820312 C 692.03125 411.8125 695.667969 411.199219 700.828125 410.011719 C 700.496094 397.03125 692.109375 379.976562 688.210938 372.75 C 688.707031 372.902344 689.253906 373.105469 689.867188 373.332031 C 690.117188 373.421875 690.375 373.523438 690.644531 373.632812 C 690.777344 373.683594 690.917969 373.734375 691.058594 373.804688 C 695.417969 382.148438 702.839844 398.222656 702.839844 410.800781 L 702.839844 411.601562 L 702.066406 411.78125 C 699.515625 412.382812 697.28125 412.84375 695.605469 413.179688 L 704.164062 416.804688 L 704.171875 417.453125 C 704.222656 419.214844 705.167969 460.699219 703.46875 466.78125 " fill-opacity="1" fill-rule="nonzero"/><path fill="#cbe2f2" d="M 677.050781 475.550781 L 677.050781 475.539062 L 642.925781 432.265625 L 645.078125 417.183594 C 642.945312 417.117188 638.207031 416.976562 635.210938 416.976562 L 634.578125 416.976562 L 634.308594 416.40625 C 626.722656 400.652344 627.683594 376.957031 628.378906 368.070312 C 628.71875 367.992188 629.066406 367.917969 629.421875 367.847656 C 629.757812 367.78125 630.101562 367.710938 630.441406 367.628906 C 629.800781 375.726562 628.695312 399.480469 635.851562 414.976562 C 639.886719 414.992188 646.203125 415.222656 646.273438 415.222656 L 647.382812 415.265625 L 645.027344 431.707031 L 676.460938 471.546875 L 676.460938 471.554688 L 676.773438 471.945312 L 676.773438 471.957031 C 676.972656 473.277344 677.167969 474.609375 677.363281 475.9375 L 677.050781 475.550781 " fill-opacity="1" fill-rule="nonzero"/><path fill="#a5977e" d="M 615.792969 538.984375 L 633.117188 546.527344 L 678.9375 566.441406 C 679.824219 566.828125 680.859375 566.875 681.832031 566.496094 C 682.804688 566.109375 683.527344 565.371094 683.914062 564.484375 L 689.035156 552.726562 L 723.175781 474.367188 L 656.566406 445.40625 L 615.792969 538.984375 " fill-opacity="1" fill-rule="nonzero"/><path fill="#91836d" d="M 688.257812 518.582031 C 679.460938 521.644531 670.914062 527.269531 661.566406 528.476562 C 652.394531 529.65625 644.542969 527.273438 636.011719 524.296875 C 632.082031 522.929688 627.886719 521.746094 624.136719 519.84375 L 615.792969 538.984375 L 633.117188 546.527344 L 679.722656 566.785156 C 680.410156 567.082031 681.210938 567.117188 681.960938 566.820312 C 682.714844 566.527344 683.273438 565.957031 683.570312 565.269531 L 689.035156 552.726562 L 705.339844 515.300781 C 699.511719 515.851562 693.71875 516.679688 688.257812 518.582031 " fill-opacity="1" fill-rule="nonzero"/><path fill="#e6e7e8" d="M 641.90625 555.226562 C 641.90625 555.226562 652.59375 544.886719 652.09375 517.703125 C 638.230469 534.214844 639.234375 548.890625 641.90625 555.226562 " fill-opacity="1" fill-rule="nonzero"/><path fill="#ffae92" d="M 702.613281 528.480469 C 699.609375 527.738281 696.664062 526.773438 693.777344 525.671875 C 692.730469 525.289062 691.5625 524.996094 690.625 524.484375 C 689.824219 524.09375 689.125 523.367188 688.777344 522.59375 C 688.390625 521.589844 688.519531 520.246094 689.167969 519.410156 C 689.75 518.636719 690.632812 518.691406 691.578125 518.617188 C 694.460938 518.371094 703.273438 519.371094 705.980469 518.242188 C 706.414062 518.046875 706.84375 517.792969 707.25 517.46875 C 706.871094 522.230469 706.9375 529.515625 702.613281 528.480469 Z M 710.65625 532.554688 C 715.886719 526.78125 713.097656 516.433594 709.449219 513.789062 C 709.464844 510.320312 706.546875 509.921875 705.558594 510.148438 C 704.507812 510.402344 703.46875 510.519531 702.410156 510.808594 C 699.949219 511.539062 691.527344 511.171875 688.910156 511.21875 C 686.082031 511.269531 683.242188 511.429688 680.421875 511.457031 C 668.621094 511.582031 658.316406 521.726562 655.808594 521.417969 C 655.808594 521.417969 654.136719 521.152344 651.6875 520.789062 C 651.6875 520.789062 649.402344 520.289062 645.902344 519.101562 L 642.855469 538.675781 C 646.804688 539.492188 650.972656 540.191406 655.382812 540.746094 C 655.382812 540.746094 654.585938 540.367188 655.382812 540.746094 C 656.972656 549.214844 688.75 556.84375 691.429688 555.878906 C 694.21875 554.890625 696.890625 553.167969 696.308594 550.246094 C 698.402344 549.011719 702.765625 546.574219 701.796875 543.320312 C 703.066406 542.480469 711.703125 539.679688 710.703125 532.546875 L 710.65625 532.554688 " fill-opacity="1" fill-rule="nonzero"/><path fill="#ea8e75" d="M 651.738281 520.796875 C 651.722656 520.792969 651.707031 520.792969 651.6875 520.789062 C 651.6875 520.789062 649.402344 520.289062 645.902344 519.101562 L 642.855469 538.675781 C 644.921875 539.105469 647.046875 539.496094 649.238281 539.851562 C 648.585938 534.460938 649.839844 525.457031 651.738281 520.796875 " fill-opacity="1" fill-rule="nonzero"/><path fill="#e6edf2" d="M 652.09375 517.703125 C 635.390625 512.648438 606.445312 471.023438 627.546875 418.125 C 609.339844 426.625 595.984375 417.625 595.984375 417.625 C 595.984375 417.625 560.414062 540.214844 641.90625 555.226562 C 642.664062 543.164062 645.382812 530.78125 652.09375 517.703125 " fill-opacity="1" fill-rule="nonzero"/><path fill="#a5977e" d="M 661.609375 443.269531 L 659.609375 446.648438 L 723.175781 474.367188 L 723.125 474.527344 C 723.320312 473.894531 723.300781 473.195312 723.007812 472.542969 C 722.71875 471.890625 722.214844 471.40625 721.613281 471.125 L 661.609375 443.269531 " fill-opacity="1" fill-rule="nonzero"/><path fill="#dbfafc" d="M 661.488281 447.648438 L 662.738281 445.148438 L 721.101562 472.167969 L 720.472656 473.417969 L 661.488281 447.648438 " fill-opacity="1" fill-rule="nonzero"/><path fill="#ea8e75" d="M 693.210938 346.210938 C 689.695312 349.164062 685.746094 351.15625 681.441406 351.839844 C 656.121094 355.832031 630.046875 344.070312 623.796875 305.824219 C 623.796875 305.824219 623.757812 305.621094 623.707031 305.25 C 626.355469 304.832031 628.085938 301.980469 627.585938 298.84375 C 627.535156 298.546875 627.476562 298.265625 627.394531 297.988281 L 629.480469 296.996094 C 629.515625 294.746094 629.617188 292.53125 629.886719 290.390625 C 629.886719 290.390625 631.734375 289.339844 634.609375 287.488281 C 627.792969 326.308594 665.617188 363.585938 693.171875 346.074219 C 693.179688 346.121094 693.199219 346.164062 693.210938 346.210938 " fill-opacity="1" fill-rule="nonzero"/><g clip-path="url(#610ba4ef71)"><path fill="#eaeaea" d="M 860.480469 334.980469 L 797.949219 320.417969 L 816.554688 240.804688 L 879.085938 255.363281 L 860.480469 334.980469 " fill-opacity="1" fill-rule="nonzero"/></g><path fill="#9d9d9c" d="M 871.535156 260.417969 L 821.089844 248.671875 L 821.46875 247.039062 L 871.917969 258.785156 L 871.535156 260.417969 " fill-opacity="1" fill-rule="nonzero"/><path fill="#9d9d9c" d="M 851.628906 309.71875 L 817.082031 301.675781 L 817.460938 300.046875 L 852.011719 308.089844 L 851.628906 309.71875 " fill-opacity="1" fill-rule="nonzero"/><path fill="#9d9d9c" d="M 850.886719 312.902344 L 816.335938 304.859375 L 816.71875 303.230469 L 851.269531 311.273438 L 850.886719 312.902344 " fill-opacity="1" fill-rule="nonzero"/><path fill="#9d9d9c" d="M 850.140625 316.082031 L 815.59375 308.039062 L 815.976562 306.410156 L 850.523438 314.453125 L 850.140625 316.082031 " fill-opacity="1" fill-rule="nonzero"/><path fill="#9d9d9c" d="M 849.398438 319.265625 L 814.851562 311.222656 L 815.230469 309.589844 L 849.78125 317.636719 L 849.398438 319.265625 " fill-opacity="1" fill-rule="nonzero"/><path fill="#9d9d9c" d="M 848.65625 322.449219 L 814.105469 314.40625 L 814.488281 312.773438 L 849.035156 320.816406 L 848.65625 322.449219 " fill-opacity="1" fill-rule="nonzero"/><path fill="#9d9d9c" d="M 855.859375 327.480469 L 805.414062 315.734375 L 805.792969 314.105469 L 856.242188 325.851562 L 855.859375 327.480469 " fill-opacity="1" fill-rule="nonzero"/><path fill="#e6332a" d="M 859.78125 284.414062 C 857.289062 295.074219 846.609375 301.699219 835.929688 299.214844 C 825.25 296.726562 818.613281 286.070312 821.105469 275.410156 C 823.597656 264.75 834.273438 258.125 844.953125 260.613281 C 855.632812 263.097656 862.269531 273.753906 859.78125 284.414062 " fill-opacity="1" fill-rule="nonzero"/><path fill="#eaeaea" d="M 855.25 277.976562 L 846.785156 275.964844 L 848.796875 267.515625 L 838.683594 265.113281 L 836.671875 273.566406 L 828.207031 271.554688 L 825.800781 281.648438 L 834.265625 283.660156 L 832.253906 292.109375 L 842.367188 294.507812 L 844.378906 286.058594 L 852.847656 288.070312 L 855.25 277.976562 " fill-opacity="1" fill-rule="nonzero"/><path fill="#e6332a" d="M 825.996094 281.53125 L 834.460938 283.539062 L 832.449219 291.992188 L 842.25 294.3125 L 844.261719 285.867188 L 852.726562 287.875 L 855.054688 278.09375 L 846.589844 276.085938 L 848.601562 267.632812 L 838.800781 265.308594 L 836.789062 273.757812 L 828.324219 271.75 L 825.996094 281.53125 M 832.058594 292.230469 L 834.070312 283.78125 L 825.605469 281.769531 L 828.085938 271.359375 L 836.550781 273.371094 L 838.5625 264.921875 L 848.992188 267.394531 L 846.980469 275.84375 L 855.289062 277.816406 L 855.25 277.976562 L 855.289062 277.816406 L 855.445312 277.855469 L 852.964844 288.265625 L 844.5 286.253906 L 842.488281 294.703125 L 832.058594 292.230469 " fill-opacity="1" fill-rule="nonzero"/><g clip-path="url(#cc4e05c2ad)"><path fill="#f3f3f3" d="M 879.085938 255.363281 L 861.246094 251.210938 L 879.085938 255.363281 " fill-opacity="1" fill-rule="nonzero"/></g><g clip-path="url(#8c47c1f0cf)"><path fill="#e3e3e3" d="M 860.480469 334.980469 L 837.644531 329.664062 L 849.382812 325.972656 L 855.859375 327.480469 L 856.242188 325.851562 L 849.402344 324.257812 L 848.730469 322.128906 L 849.035156 320.816406 L 848.261719 320.636719 L 847.703125 318.871094 L 849.398438 319.265625 L 849.78125 317.636719 L 847.117188 317.015625 L 846.558594 315.25 L 850.140625 316.082031 L 850.523438 314.453125 L 845.972656 313.394531 L 845.417969 311.628906 L 850.886719 312.902344 L 851.269531 311.273438 L 844.832031 309.773438 L 844.273438 308.007812 L 851.628906 309.71875 L 852.011719 308.089844 L 843.6875 306.152344 L 841.652344 299.699219 C 850.191406 299.183594 857.738281 293.15625 859.78125 284.414062 C 861.925781 275.21875 857.285156 266.027344 849.113281 262.078125 L 855.210938 256.617188 L 871.535156 260.417969 L 871.917969 258.785156 L 856.734375 255.25 L 861.246094 251.210938 L 879.085938 255.363281 L 860.480469 334.980469 " fill-opacity="1" fill-rule="nonzero"/></g><path fill="#a9a9a9" d="M 871.535156 260.417969 L 855.210938 256.617188 L 856.734375 255.25 L 871.917969 258.785156 L 871.535156 260.417969 " fill-opacity="1" fill-rule="nonzero"/><path fill="#a9a9a9" d="M 851.628906 309.71875 L 844.273438 308.007812 L 843.6875 306.152344 L 852.011719 308.089844 L 851.628906 309.71875 " fill-opacity="1" fill-rule="nonzero"/><path fill="#a9a9a9" d="M 850.886719 312.902344 L 845.417969 311.628906 L 844.832031 309.773438 L 851.269531 311.273438 L 850.886719 312.902344 " fill-opacity="1" fill-rule="nonzero"/><path fill="#a9a9a9" d="M 850.140625 316.082031 L 846.558594 315.25 L 845.972656 313.394531 L 850.523438 314.453125 L 850.140625 316.082031 " fill-opacity="1" fill-rule="nonzero"/><path fill="#a9a9a9" d="M 849.398438 319.265625 L 847.703125 318.871094 L 847.117188 317.015625 L 849.78125 317.636719 L 849.398438 319.265625 " fill-opacity="1" fill-rule="nonzero"/><path fill="#a9a9a9" d="M 848.730469 322.128906 L 848.261719 320.636719 L 849.035156 320.816406 L 848.730469 322.128906 " fill-opacity="1" fill-rule="nonzero"/><path fill="#a9a9a9" d="M 855.859375 327.480469 L 849.382812 325.972656 L 849.894531 325.808594 L 849.402344 324.257812 L 856.242188 325.851562 L 855.859375 327.480469 " fill-opacity="1" fill-rule="nonzero"/><path fill="#e05a53" d="M 841.652344 299.699219 L 839.878906 294.085938 L 842.488281 294.703125 L 844.5 286.253906 L 852.964844 288.265625 L 855.445312 277.855469 L 855.289062 277.816406 L 855.25 277.976562 L 855.289062 277.816406 L 846.980469 275.84375 L 848.992188 267.394531 L 844.398438 266.304688 L 849.113281 262.078125 C 857.285156 266.027344 861.925781 275.21875 859.78125 284.414062 C 857.738281 293.15625 850.191406 299.183594 841.652344 299.699219 M 836.550781 273.371094 L 836.519531 273.363281 L 836.558594 273.324219 L 836.550781 273.371094 " fill-opacity="1" fill-rule="nonzero"/><path fill="#e3e3e3" d="M 842.25 294.3125 L 839.765625 293.726562 L 834.039062 275.582031 L 836.226562 273.625 L 836.789062 273.757812 L 836.984375 272.945312 L 844.105469 266.566406 L 848.601562 267.632812 L 846.589844 276.085938 L 855.054688 278.09375 L 852.726562 287.875 L 844.261719 285.867188 L 842.25 294.3125 " fill-opacity="1" fill-rule="nonzero"/><path fill="#e05a53" d="M 842.488281 294.703125 L 839.878906 294.085938 L 839.765625 293.726562 L 842.25 294.3125 L 844.261719 285.867188 L 852.726562 287.875 L 855.054688 278.09375 L 846.589844 276.085938 L 848.601562 267.632812 L 844.105469 266.566406 L 844.398438 266.304688 L 848.992188 267.394531 L 846.980469 275.84375 L 855.289062 277.816406 L 855.25 277.976562 L 855.289062 277.816406 L 855.445312 277.855469 L 852.964844 288.265625 L 844.5 286.253906 L 842.488281 294.703125 M 836.789062 273.757812 L 836.226562 273.625 L 836.519531 273.363281 L 836.550781 273.371094 L 836.558594 273.324219 L 836.984375 272.945312 L 836.789062 273.757812 " fill-opacity="1" fill-rule="nonzero"/><path fill="#ededed" d="M 861.246094 251.210938 L 823.578125 242.441406 L 861.246094 251.210938 " fill-opacity="1" fill-rule="nonzero"/><path fill="#e3e3e3" d="M 830.074219 263.011719 L 825.898438 249.789062 L 855.210938 256.617188 L 849.113281 262.078125 C 847.8125 261.449219 846.421875 260.953125 844.953125 260.613281 C 843.433594 260.257812 841.917969 260.089844 840.425781 260.089844 C 836.707031 260.089844 833.136719 261.136719 830.074219 263.011719 M 856.734375 255.25 L 825.3125 247.933594 L 823.578125 242.441406 L 861.246094 251.210938 L 856.734375 255.25 " fill-opacity="1" fill-rule="nonzero"/><path fill="#bebebd" d="M 855.210938 256.617188 L 825.898438 249.789062 L 825.3125 247.933594 L 856.734375 255.25 L 855.210938 256.617188 " fill-opacity="1" fill-rule="nonzero"/><path fill="#e18a85" d="M 836.519531 273.363281 L 833.082031 272.546875 L 830.074219 263.011719 C 833.136719 261.136719 836.707031 260.089844 840.425781 260.089844 C 841.917969 260.089844 843.433594 260.257812 844.953125 260.613281 C 846.421875 260.953125 847.8125 261.449219 849.113281 262.078125 L 844.398438 266.304688 L 838.5625 264.921875 L 836.558594 273.324219 L 836.519531 273.363281 " fill-opacity="1" fill-rule="nonzero"/><path fill="#e3e3e3" d="M 834.039062 275.582031 L 833.195312 272.90625 L 836.226562 273.625 L 834.039062 275.582031 M 836.984375 272.945312 L 838.800781 265.308594 L 844.105469 266.566406 L 836.984375 272.945312 " fill-opacity="1" fill-rule="nonzero"/><path fill="#e18a85" d="M 836.226562 273.625 L 833.195312 272.90625 L 833.082031 272.546875 L 836.519531 273.363281 L 836.226562 273.625 M 836.558594 273.324219 L 838.5625 264.921875 L 844.398438 266.304688 L 844.105469 266.566406 L 838.800781 265.308594 L 836.984375 272.945312 L 836.558594 273.324219 " fill-opacity="1" fill-rule="nonzero"/><path fill="#ededed" d="M 816.402344 241.457031 L 816.554688 240.804688 L 816.402344 241.457031 M 817.664062 241.0625 L 816.554688 240.804688 L 817.664062 241.0625 " fill-opacity="1" fill-rule="nonzero"/><path fill="#e3e3e3" d="M 816.402344 241.457031 L 816.554688 240.804688 L 817.664062 241.0625 L 816.402344 241.457031 " fill-opacity="1" fill-rule="nonzero"/><g clip-path="url(#6fd8d38bb9)"><path fill="#eaeaea" d="M 849.894531 325.808594 L 782.097656 347.128906 L 754.855469 260.8125 L 822.648438 239.492188 L 849.894531 325.808594 " fill-opacity="1" fill-rule="nonzero"/></g><path fill="#9d9d9c" d="M 818.308594 248.554688 L 763.617188 265.753906 L 763.058594 263.984375 L 817.75 246.789062 L 818.308594 248.554688 " fill-opacity="1" fill-rule="nonzero"/><path fill="#9d9d9c" d="M 827.195312 306.726562 L 789.738281 318.503906 L 789.179688 316.738281 L 826.636719 304.957031 L 827.195312 306.726562 " fill-opacity="1" fill-rule="nonzero"/><path fill="#9d9d9c" d="M 828.285156 310.175781 L 790.828125 321.953125 L 790.269531 320.1875 L 827.726562 308.410156 L 828.285156 310.175781 " fill-opacity="1" fill-rule="nonzero"/><path fill="#9d9d9c" d="M 829.371094 313.625 L 791.914062 325.402344 L 791.359375 323.636719 L 828.816406 311.859375 L 829.371094 313.625 " fill-opacity="1" fill-rule="nonzero"/><path fill="#9d9d9c" d="M 830.460938 317.078125 L 793.003906 328.851562 L 792.445312 327.085938 L 829.902344 315.308594 L 830.460938 317.078125 " fill-opacity="1" fill-rule="nonzero"/><path fill="#9d9d9c" d="M 831.550781 320.527344 L 794.09375 332.304688 L 793.535156 330.535156 L 830.992188 318.757812 L 831.550781 320.527344 " fill-opacity="1" fill-rule="nonzero"/><path fill="#9d9d9c" d="M 841.257812 321.265625 L 786.566406 338.464844 L 786.007812 336.695312 L 840.699219 319.496094 L 841.257812 321.265625 " fill-opacity="1" fill-rule="nonzero"/><path fill="#e6332a" d="M 820.664062 278.03125 C 824.3125 289.589844 817.882812 301.910156 806.304688 305.550781 C 794.726562 309.191406 782.382812 302.773438 778.734375 291.21875 C 775.089844 279.660156 781.515625 267.339844 793.097656 263.699219 C 804.675781 260.058594 817.015625 266.476562 820.664062 278.03125 " fill-opacity="1" fill-rule="nonzero"/><path fill="#eaeaea" d="M 812.714844 274.445312 L 803.511719 277.296875 L 800.65625 268.113281 L 789.664062 271.519531 L 792.523438 280.699219 L 783.324219 283.550781 L 786.734375 294.519531 L 795.933594 291.671875 L 798.789062 300.851562 L 809.78125 297.445312 L 806.925781 288.265625 L 816.125 285.414062 L 812.714844 274.445312 " fill-opacity="1" fill-rule="nonzero"/><path fill="#e6332a" d="M 812.558594 274.492188 L 812.710938 274.445312 L 812.558594 274.492188 M 798.894531 300.648438 L 809.578125 297.339844 L 806.722656 288.160156 L 815.921875 285.308594 L 812.605469 274.648438 L 803.40625 277.496094 L 800.546875 268.316406 L 789.867188 271.625 L 792.722656 280.808594 L 783.523438 283.65625 L 786.839844 294.316406 L 796.039062 291.464844 L 798.894531 300.648438 M 795.828125 291.871094 L 786.625 294.722656 L 783.121094 283.445312 L 792.320312 280.59375 L 789.464844 271.414062 L 800.761719 267.910156 L 803.617188 277.09375 L 812.664062 274.292969 L 812.820312 274.242188 L 816.328125 285.523438 L 807.125 288.371094 L 809.984375 297.554688 L 798.683594 301.054688 L 795.828125 291.871094 " fill-opacity="1" fill-rule="nonzero"/><g clip-path="url(#a300737ab2)"><path fill="#f8f8f8" d="M 776.6875 329.988281 L 754.855469 260.8125 L 776.6875 329.988281 " fill-opacity="1" fill-rule="nonzero"/></g><g clip-path="url(#2608bc0153)"><path fill="#eaeaea" d="M 776.6875 329.988281 L 754.855469 260.8125 L 803.304688 245.574219 L 801.292969 251.964844 L 763.058594 263.984375 L 763.617188 265.753906 L 800.613281 254.121094 L 797.890625 262.757812 C 796.292969 262.890625 794.6875 263.199219 793.097656 263.699219 C 781.515625 267.339844 775.089844 279.660156 778.734375 291.21875 C 780.054688 295.402344 782.515625 298.910156 785.667969 301.515625 L 776.6875 329.988281 " fill-opacity="1" fill-rule="nonzero"/></g><path fill="#b8b8b7" d="M 763.617188 265.753906 L 763.058594 263.984375 L 801.292969 251.964844 L 800.613281 254.121094 L 763.617188 265.753906 " fill-opacity="1" fill-rule="nonzero"/><path fill="#e7736d" d="M 785.667969 301.515625 C 782.515625 298.910156 780.054688 295.402344 778.734375 291.21875 C 775.089844 279.660156 781.515625 267.339844 793.097656 263.699219 C 794.6875 263.199219 796.292969 262.890625 797.890625 262.757812 L 795.777344 269.457031 L 789.464844 271.414062 L 792.292969 280.507812 L 792.257812 280.613281 L 783.121094 283.445312 L 786.625 294.722656 L 787.9375 294.316406 L 785.667969 301.515625 " fill-opacity="1" fill-rule="nonzero"/><path fill="#eaeaea" d="M 786.839844 294.316406 L 783.523438 283.65625 L 792.140625 280.988281 L 788.054688 293.941406 L 786.839844 294.316406 M 792.460938 279.964844 L 789.867188 271.625 L 795.65625 269.832031 L 792.460938 279.964844 " fill-opacity="1" fill-rule="nonzero"/><path fill="#e7736d" d="M 786.625 294.722656 L 783.121094 283.445312 L 792.257812 280.613281 L 792.140625 280.988281 L 783.523438 283.65625 L 786.839844 294.316406 L 788.054688 293.941406 L 787.9375 294.316406 L 786.625 294.722656 M 792.292969 280.507812 L 789.464844 271.414062 L 795.777344 269.457031 L 795.65625 269.832031 L 789.867188 271.625 L 792.460938 279.964844 L 792.292969 280.507812 " fill-opacity="1" fill-rule="nonzero"/></svg>