<svg xmlns="http://www.w3.org/2000/svg" xmlns:xlink="http://www.w3.org/1999/xlink" width="1920" zoomAndPan="magnify" viewBox="0 0 1440 809.999993" height="1080" preserveAspectRatio="xMidYMid meet" version="1.0"><defs><clipPath id="b19379b314"><path d="M 388.628906 69 L 1051.871094 69 L 1051.871094 745.746094 L 388.628906 745.746094 Z M 388.628906 69 " clip-rule="nonzero"/></clipPath></defs><path fill="#100f0d" d="M 508.515625 512.996094 C 514.09375 513.359375 519.699219 514.203125 525.222656 515.496094 C 531.511719 516.984375 537.191406 519.339844 542.089844 522.480469 C 546.886719 525.5625 550.832031 529.703125 553.816406 534.785156 C 556.765625 539.824219 558.265625 546.15625 558.265625 553.609375 C 558.265625 558.96875 556.996094 564.039062 554.503906 568.679688 C 551.96875 573.410156 548.472656 577.597656 544.136719 581.132812 C 539.738281 584.707031 534.570312 587.5625 528.765625 589.625 C 523.097656 591.648438 517.046875 592.699219 510.9375 592.742188 Z M 495.132812 513.027344 L 497.671875 592.34375 L 494.457031 591.902344 C 494.242188 591.875 494.023438 591.875 493.808594 591.898438 C 490.269531 592.289062 488.160156 594.644531 488.160156 598.191406 C 488.160156 600.066406 488.675781 601.628906 489.695312 602.832031 C 490.613281 603.925781 491.789062 604.742188 493.171875 605.257812 C 494.402344 605.722656 495.773438 606 497.382812 606.105469 C 498.757812 606.1875 500.171875 606.230469 501.613281 606.230469 C 511.679688 606.230469 521.074219 605.101562 529.511719 602.875 C 538.074219 600.628906 545.621094 597.207031 551.929688 592.695312 C 558.332031 588.105469 563.40625 582.304688 567.027344 575.457031 C 570.636719 568.605469 572.5625 560.484375 572.746094 551.097656 C 572.214844 542.164062 570.023438 534.371094 566.222656 527.941406 C 562.421875 521.519531 557.390625 516.140625 551.261719 511.949219 C 545.195312 507.820312 538.125 504.699219 530.238281 502.652344 C 522.925781 500.773438 515.125 499.648438 507.046875 499.3125 C 505.511719 496.511719 503.371094 496.050781 502.105469 496.050781 C 501.878906 496.050781 501.582031 496.050781 501.25 496.085938 C 500.917969 496.050781 500.617188 496.050781 500.390625 496.050781 C 499.3125 496.050781 496.988281 496.410156 495.71875 499.332031 C 493.550781 499.527344 491.867188 500.070312 490.617188 500.960938 C 488.273438 502.617188 487.785156 504.648438 487.785156 506.058594 C 487.785156 507.246094 488.171875 509.03125 490.003906 510.773438 C 491.253906 511.96875 492.914062 512.726562 495.132812 513.027344 " fill-opacity="1" fill-rule="nonzero"/><path fill="#100f0d" d="M 592.207031 569.246094 C 592.207031 558.894531 594.4375 551.277344 598.835938 546.585938 C 603.238281 541.878906 609.527344 539.597656 618.046875 539.597656 C 621.273438 539.597656 624.457031 540.160156 627.507812 541.289062 C 630.480469 542.367188 633.15625 544.121094 635.445312 546.480469 C 637.769531 548.890625 639.699219 552.039062 641.175781 555.832031 C 642.648438 559.660156 643.398438 564.375 643.398438 569.863281 C 643.398438 574.128906 642.714844 577.730469 641.371094 580.566406 C 640.027344 583.402344 638.246094 585.625 635.953125 587.351562 C 633.597656 589.105469 630.816406 590.410156 627.691406 591.222656 C 621.964844 592.699219 615.136719 593.097656 608.148438 591.339844 C 605.273438 590.609375 602.617188 589.355469 600.285156 587.601562 C 597.988281 585.882812 596.042969 583.503906 594.5 580.539062 C 592.976562 577.621094 592.207031 573.816406 592.207031 569.246094 Z M 591.269531 598.921875 C 595.105469 601.828125 599.386719 603.929688 604 605.160156 C 608.507812 606.359375 612.902344 606.972656 617.058594 606.972656 C 622.542969 606.972656 627.769531 606.296875 632.601562 604.976562 C 637.585938 603.605469 641.996094 601.308594 645.683594 598.144531 C 649.382812 595 652.339844 590.859375 654.472656 585.847656 C 656.5625 580.921875 657.625 574.882812 657.625 567.886719 C 657.625 560.980469 656.523438 554.835938 654.347656 549.644531 C 652.167969 544.402344 649.207031 539.960938 645.558594 536.445312 C 641.890625 532.917969 637.601562 530.234375 632.808594 528.476562 C 628.050781 526.734375 623.078125 525.847656 618.046875 525.847656 C 611.585938 525.847656 605.789062 526.84375 600.816406 528.800781 C 595.765625 530.808594 591.480469 533.75 588.070312 537.5625 C 584.679688 541.34375 582.09375 545.972656 580.371094 551.324219 C 578.703125 556.550781 577.855469 562.578125 577.855469 569.246094 C 577.855469 576.375 579.132812 582.441406 581.65625 587.273438 C 584.160156 592.0625 587.390625 595.984375 591.269531 598.921875 " fill-opacity="1" fill-rule="nonzero"/><path fill="#100f0d" d="M 667.183594 540.066406 C 667.714844 540.933594 668.210938 541.71875 668.671875 542.390625 C 669.019531 542.898438 669.28125 543.285156 669.417969 543.542969 L 669.667969 544.359375 C 669.691406 544.527344 669.722656 544.695312 669.765625 544.855469 L 671.242188 599.550781 C 671.242188 601.6875 672.007812 603.503906 673.457031 604.816406 C 674.824219 606.066406 676.542969 606.722656 678.417969 606.722656 C 680.15625 606.722656 681.757812 606.164062 683.179688 605.058594 C 684.710938 603.859375 685.585938 602.132812 685.714844 600.027344 C 685.796875 598.035156 685.867188 595.109375 685.902344 591.261719 C 685.945312 587.480469 686.082031 583.304688 686.332031 578.742188 C 686.578125 574.230469 687.039062 569.546875 687.722656 564.816406 C 688.402344 560.128906 689.425781 555.859375 690.746094 552.132812 C 692.019531 548.523438 693.671875 545.535156 695.667969 543.257812 C 697.382812 541.289062 699.519531 540.332031 702.195312 540.332031 C 705.601562 540.332031 708.203125 540.914062 709.921875 542.046875 C 711.691406 543.21875 712.972656 544.746094 713.84375 546.714844 C 714.789062 548.851562 715.40625 551.425781 715.675781 554.328125 C 715.945312 557.484375 716.164062 560.804688 716.339844 564.292969 L 716.582031 600.039062 C 716.582031 603.632812 718.863281 605.859375 722.523438 605.859375 C 726.21875 605.859375 728.921875 604.179688 730.132812 601.136719 C 730.257812 600.828125 730.320312 600.496094 730.320312 600.164062 L 730.320312 564.441406 C 730.320312 558.164062 729.828125 552.636719 728.851562 548 C 727.832031 543.246094 726.191406 539.269531 723.972656 536.183594 C 721.683594 533 718.691406 530.621094 715.089844 529.128906 C 711.605469 527.691406 707.429688 526.960938 702.6875 526.960938 C 700.175781 526.960938 697.761719 527.160156 695.527344 527.558594 C 693.164062 527.96875 690.921875 528.746094 688.867188 529.875 C 686.785156 531.007812 684.890625 532.578125 683.246094 534.554688 C 682.792969 535.09375 682.355469 535.6875 681.929688 536.316406 C 681.476562 535.292969 680.980469 534.316406 680.441406 533.390625 C 679.550781 531.84375 678.480469 530.542969 677.25 529.53125 C 674.226562 527.03125 669.953125 527.148438 667.15625 529.570312 C 665.640625 530.882812 664.839844 532.589844 664.839844 534.507812 C 664.839844 535.476562 665.144531 536.5 666 538.03125 C 666.367188 538.671875 666.753906 539.34375 667.183594 540.066406 " fill-opacity="1" fill-rule="nonzero"/><path fill="#100f0d" d="M 756.6875 567.644531 C 756.6875 566.609375 756.882812 564.628906 757.789062 561.070312 C 758.488281 558.269531 759.714844 555.40625 761.433594 552.542969 C 763.089844 549.78125 765.355469 547.34375 768.175781 545.3125 C 770.871094 543.375 774.195312 542.421875 778.339844 542.421875 C 780.164062 542.421875 782.054688 542.78125 783.953125 543.484375 C 785.894531 544.214844 787.714844 545.277344 789.363281 546.621094 C 791.066406 548.035156 792.546875 549.695312 793.785156 551.546875 C 794.941406 553.28125 795.792969 555.566406 796.304688 558.335938 L 796.789062 567.769531 C 796.789062 572.859375 796.675781 576.484375 796.441406 578.527344 C 796.210938 580.378906 795.871094 582.214844 795.390625 584.132812 C 795.359375 584.273438 795.335938 584.40625 795.324219 584.542969 C 794.246094 587.546875 792.261719 589.761719 789.273438 591.304688 C 785.804688 593.097656 781.949219 593.972656 777.476562 593.972656 C 773.167969 593.972656 769.660156 593.132812 767.054688 591.484375 C 764.351562 589.761719 762.285156 587.695312 760.753906 585.140625 C 759.1875 582.550781 758.121094 579.675781 757.578125 576.597656 C 756.992188 573.382812 756.6875 570.375 756.6875 567.644531 Z M 748.820312 593.351562 C 751.394531 597.53125 755.035156 601.039062 759.632812 603.777344 C 764.292969 606.539062 770.421875 607.949219 777.851562 607.949219 C 782.8125 607.949219 787.425781 607.292969 791.558594 605.988281 C 794.609375 605.042969 797.339844 603.621094 799.714844 601.757812 C 800.523438 603.03125 801.550781 604.046875 802.785156 604.792969 C 804.773438 606.011719 807.117188 606.777344 809.777344 607.089844 C 812.546875 607.390625 814.832031 607.089844 816.597656 606.199219 C 816.628906 606.179688 816.667969 606.164062 816.703125 606.144531 L 817.570312 605.652344 C 817.785156 605.535156 817.980469 605.386719 818.152344 605.214844 C 818.65625 604.699219 819.121094 604.167969 819.527344 603.597656 C 820.09375 602.8125 820.441406 602.046875 820.589844 601.265625 C 820.625 601.105469 820.636719 600.9375 820.636719 600.773438 C 820.636719 597.0625 818.710938 594.429688 815.210938 593.351562 C 814.960938 593.273438 814.699219 593.234375 814.441406 593.234375 C 813.050781 593.234375 812.449219 592.933594 812.253906 592.804688 C 811.824219 592.523438 811.558594 592.203125 811.375 591.769531 C 811.148438 591.210938 811.027344 590.515625 811.027344 589.695312 L 811.027344 584.519531 C 811.027344 581.082031 811.039062 577.515625 811.089844 573.828125 C 811.117188 570.148438 811.1875 566.746094 811.269531 563.613281 C 811.355469 558.359375 811.601562 553.113281 812.007812 547.972656 C 812.160156 545.410156 812.367188 543.214844 812.605469 541.371094 C 812.832031 539.667969 813.113281 538.324219 813.460938 537.355469 C 813.5625 537.074219 813.609375 536.777344 813.609375 536.472656 C 813.609375 535.132812 813.085938 533.210938 810.585938 531.667969 C 807.4375 529.71875 803.59375 529.738281 800.910156 531.335938 C 799.507812 532.164062 798.527344 533.515625 797.941406 535.652344 C 795.660156 533.769531 793.324219 532.339844 790.949219 531.402344 C 787.242188 529.925781 782.917969 529.179688 778.101562 529.179688 C 773.542969 529.179688 769.417969 529.851562 765.84375 531.195312 C 762.308594 532.507812 759.179688 534.300781 756.523438 536.496094 C 753.886719 538.691406 751.644531 541.222656 749.886719 544.003906 C 748.171875 546.703125 746.738281 549.484375 745.644531 552.28125 C 744.558594 555.070312 743.773438 557.796875 743.304688 560.382812 C 742.824219 562.980469 742.578125 565.339844 742.578125 567.394531 C 742.578125 571.238281 742.988281 575.492188 743.789062 580.035156 C 744.609375 584.757812 746.296875 589.230469 748.820312 593.351562 " fill-opacity="1" fill-rule="nonzero"/><path fill="#100f0d" d="M 824.972656 546.667969 C 826.089844 547.199219 827.359375 547.632812 828.773438 547.96875 L 832.371094 548.789062 C 832.492188 548.832031 832.621094 548.875 832.742188 548.898438 C 833.515625 549.070312 834.296875 549.222656 835.109375 549.355469 C 835.109375 549.363281 835.121094 549.363281 835.125 549.363281 C 835.023438 551.617188 834.933594 553.71875 834.871094 555.675781 C 834.789062 558.28125 834.746094 560.964844 834.746094 563.707031 C 834.746094 570.070312 835.089844 575.824219 835.761719 580.800781 C 836.441406 585.953125 837.609375 590.371094 839.238281 593.933594 C 840.972656 597.714844 843.367188 600.605469 846.339844 602.53125 C 848.921875 604.230469 852.070312 605.085938 855.652344 605.085938 C 856.324219 605.085938 857.007812 605.054688 857.710938 604.992188 C 863.320312 604.710938 867.523438 602.867188 870.207031 599.527344 C 872.75 596.371094 874.421875 591.871094 875.316406 585.765625 C 875.347656 585.523438 875.347656 585.277344 875.320312 585.03125 C 875 582.644531 874.089844 580.6875 872.601562 579.203125 C 869.695312 576.34375 865.773438 576.105469 862.953125 578.453125 C 861.664062 579.554688 860.886719 581.164062 860.652344 583.132812 C 860.292969 585.464844 859.695312 587.457031 858.878906 589.050781 C 858.308594 590.160156 857.648438 590.398438 856.835938 590.398438 C 855.566406 590.398438 852.195312 590.398438 851.058594 582.589844 C 850.652344 579.34375 850.347656 575.207031 850.148438 570.304688 C 849.949219 565.5 849.851562 559.714844 849.851562 552.613281 L 849.851562 550.773438 C 851.371094 550.839844 853.601562 550.800781 855.546875 550.734375 C 857.074219 550.695312 858.535156 550.539062 859.894531 550.257812 C 861.359375 549.953125 862.648438 549.46875 863.730469 548.792969 C 865.121094 547.90625 866.011719 546.582031 866.3125 544.964844 C 866.339844 544.8125 866.355469 544.652344 866.355469 544.492188 C 866.355469 543.714844 866.25 542.910156 866.03125 541.992188 C 865.671875 540.5625 864.613281 539.398438 862.914062 538.535156 C 861.65625 537.875 859.878906 537.339844 857.3125 536.855469 C 855.488281 536.515625 853.136719 536.3125 850.183594 536.238281 L 850.203125 535.902344 C 850.613281 529.503906 850.960938 524.246094 851.261719 520.09375 C 851.539062 515.972656 851.804688 512.65625 852.046875 510.128906 C 852.058594 510.046875 852.109375 509.601562 852.109375 509.519531 C 852.15625 509.148438 852.179688 508.800781 852.15625 508.800781 C 852.15625 508.800781 852.15625 508.804688 852.15625 508.816406 L 852.589844 506.058594 C 852.703125 505.285156 852.835938 504.453125 853.046875 503.304688 C 853.234375 500.886719 852.710938 498.984375 851.476562 497.652344 C 850.300781 496.386719 847.570312 494.9375 842.125 496.664062 C 841.824219 496.757812 841.546875 496.902344 841.304688 497.089844 C 839.53125 498.472656 838.496094 500.933594 838.035156 504.8125 C 837.65625 507.925781 837.34375 511.75 837.101562 516.492188 C 836.917969 519.613281 836.726562 522.945312 836.476562 526.511719 C 836.300781 529.089844 836.078125 531.734375 835.8125 534.425781 C 835.488281 534.355469 835.144531 534.289062 834.789062 534.214844 C 831.210938 533.519531 827.605469 533.519531 824.777344 534.761719 C 822.832031 535.632812 821.53125 537.257812 820.976562 539.625 C 820.710938 541.265625 821 542.792969 821.785156 543.96875 C 822.484375 545.078125 823.550781 545.984375 824.972656 546.667969 " fill-opacity="1" fill-rule="nonzero"/><path fill="#100f0d" d="M 892.53125 556.960938 C 893.109375 555.46875 893.796875 554.046875 894.570312 552.703125 C 895.898438 550.417969 897.519531 548.339844 899.378906 546.542969 C 904.011719 542.527344 909.316406 540.574219 915.589844 540.574219 C 920.175781 540.574219 923.980469 541.332031 926.910156 542.820312 C 929.898438 544.324219 932.296875 546.121094 934.058594 548.164062 C 935.792969 550.1875 937.039062 552.277344 937.753906 554.382812 C 938.011719 555.140625 938.222656 555.84375 938.394531 556.5 C 935.015625 556.359375 929.757812 556.378906 923.398438 556.472656 C 919.992188 556.5 916.527344 556.527344 912.960938 556.527344 L 899.28125 556.773438 C 896.746094 556.820312 894.492188 556.882812 892.53125 556.960938 Z M 885.835938 594.242188 C 889.15625 598.050781 893.363281 601.15625 898.355469 603.464844 C 903.355469 605.792969 909.320312 606.972656 916.09375 606.972656 C 919.433594 606.972656 922.785156 606.53125 926.066406 605.652344 C 929.363281 604.765625 932.492188 603.5 935.355469 601.890625 C 938.261719 600.257812 940.925781 598.308594 943.265625 596.089844 C 945.496094 593.992188 947.375 591.59375 948.863281 588.949219 C 948.957031 588.851562 949.03125 588.746094 949.101562 588.628906 C 950.492188 586.449219 950.933594 584.328125 950.417969 582.320312 C 949.921875 580.441406 948.9375 578.96875 947.480469 577.945312 C 946.054688 576.945312 944.5 576.484375 942.6875 576.546875 C 940.683594 576.609375 938.984375 577.503906 937.53125 579.503906 C 935.378906 583.746094 932.34375 586.882812 928.359375 589.0625 C 926.160156 590.132812 923.980469 590.992188 921.871094 591.617188 C 919.914062 592.191406 917.972656 592.484375 916.09375 592.484375 C 911.496094 592.484375 907.546875 591.84375 904.359375 590.574219 C 901.214844 589.335938 898.640625 587.632812 896.699219 585.515625 C 894.757812 583.398438 893.332031 580.914062 892.46875 578.128906 C 891.792969 575.972656 891.375 573.714844 891.203125 571.398438 C 894.941406 571.101562 898.652344 570.878906 902.265625 570.75 L 916.535156 570.257812 C 926.894531 570.011719 935.65625 569.882812 943.050781 569.871094 C 947.792969 570.390625 950.019531 567.882812 950.890625 566.359375 C 952.117188 564.214844 952.71875 561.167969 952.71875 557.054688 C 952.71875 553.558594 951.824219 549.921875 950.046875 546.238281 C 948.300781 542.609375 945.792969 539.296875 942.625 536.40625 C 939.457031 533.496094 935.574219 531.070312 931.082031 529.195312 C 926.539062 527.296875 921.414062 526.339844 915.847656 526.339844 C 909.582031 526.339844 903.914062 527.53125 899.007812 529.871094 C 894.140625 532.191406 889.964844 535.277344 886.59375 539.039062 C 883.226562 542.816406 880.632812 547.160156 878.871094 551.96875 C 877.140625 556.753906 876.269531 561.703125 876.269531 566.664062 C 876.269531 571.609375 877.027344 576.515625 878.535156 581.246094 C 880.078125 586.097656 882.535156 590.464844 885.835938 594.242188 " fill-opacity="1" fill-rule="nonzero"/><g clip-path="url(#b19379b314)"><path fill="#100f0d" d="M 1023.695312 717.203125 L 416.808594 717.203125 L 416.808594 438.023438 L 1023.695312 438.023438 Z M 569.609375 341.015625 L 652.878906 341.015625 C 675.1875 356.289062 694.90625 367.03125 705.492188 372.457031 L 569.609375 372.457031 C 560.925781 372.457031 553.882812 365.417969 553.882812 356.734375 C 553.882812 348.054688 560.925781 341.015625 569.609375 341.015625 Z M 581.070312 145.363281 C 592.214844 121.503906 612.75 104.773438 634.6875 101.707031 C 640.253906 100.921875 645.519531 100.570312 650.492188 100.570312 C 687.714844 100.570312 708.257812 119.976562 709.144531 120.832031 C 715.050781 126.726562 725.5 126.734375 731.382812 120.832031 C 731.648438 120.578125 757.929688 94.929688 805.828125 101.679688 C 827.765625 104.746094 848.308594 121.484375 859.449219 145.363281 C 872.679688 173.71875 869.972656 206.457031 852.019531 235.179688 C 850.625 237.402344 849.160156 239.59375 847.660156 241.769531 C 847.449219 242.070312 847.238281 242.363281 847.03125 242.660156 C 810.070312 295.515625 741.734375 333.558594 720.226562 344.648438 C 699.578125 334.023438 635.804688 298.613281 597.972656 248.894531 C 596.414062 246.839844 594.902344 244.769531 593.429688 242.667969 C 593.230469 242.378906 593.027344 242.097656 592.828125 241.808594 C 591.324219 239.636719 589.859375 237.441406 588.46875 235.21875 C 570.519531 206.496094 567.828125 173.742188 581.070312 145.363281 Z M 886.617188 356.734375 C 886.617188 365.417969 879.574219 372.457031 870.890625 372.457031 L 734.972656 372.457031 C 745.5625 367.03125 765.273438 356.289062 787.582031 341.015625 L 870.890625 341.015625 C 879.574219 341.015625 886.617188 348.054688 886.617188 356.734375 Z M 1051.855469 416.945312 C 1051.847656 415.738281 1051.710938 414.539062 1051.496094 413.34375 C 1051.441406 413.046875 1051.390625 412.753906 1051.324219 412.460938 C 1051.0625 411.296875 1050.726562 410.160156 1050.261719 409.042969 C 1050.183594 408.859375 1050.085938 408.6875 1050 408.507812 C 1049.730469 407.890625 1049.460938 407.285156 1049.128906 406.691406 L 965.257812 259.476562 C 961.53125 252.933594 954.574219 248.894531 947.039062 248.894531 L 880.417969 248.894531 C 902.492188 211.671875 905.3125 169.285156 887.949219 132.070312 C 872.355469 98.648438 842.566406 75.074219 810.199219 70.539062 C 766.480469 64.394531 735.636719 79.425781 720.265625 89.800781 C 704.890625 79.425781 674.074219 64.417969 630.320312 70.566406 C 597.960938 75.089844 568.175781 98.660156 552.574219 132.070312 C 535.199219 169.285156 537.992188 211.667969 560.050781 248.894531 L 493.460938 248.894531 C 485.925781 248.894531 478.96875 252.933594 475.242188 259.476562 L 391.371094 406.691406 C 391.039062 407.285156 390.773438 407.890625 390.5 408.507812 C 390.414062 408.6875 390.316406 408.859375 390.238281 409.042969 C 389.773438 410.160156 389.4375 411.296875 389.175781 412.460938 C 389.109375 412.753906 389.058594 413.046875 389.003906 413.34375 C 388.789062 414.539062 388.652344 415.738281 388.644531 416.945312 C 388.644531 416.988281 388.628906 417.027344 388.628906 417.066406 L 388.628906 417.15625 C 388.628906 417.160156 388.628906 417.164062 388.628906 417.171875 L 388.628906 724.410156 C 388.628906 735.988281 398.015625 745.367188 409.589844 745.367188 L 1030.910156 745.367188 C 1042.484375 745.367188 1051.867188 735.988281 1051.867188 724.410156 L 1051.867188 417.171875 C 1051.867188 417.164062 1051.867188 417.160156 1051.867188 417.15625 L 1051.867188 417.066406 C 1051.867188 417.027344 1051.855469 416.988281 1051.855469 416.945312 " fill-opacity="1" fill-rule="nonzero"/></g></svg>