<svg xmlns="http://www.w3.org/2000/svg" xmlns:xlink="http://www.w3.org/1999/xlink" width="500" zoomAndPan="magnify" viewBox="0 0 375 358.49999" height="478" preserveAspectRatio="xMidYMid meet" version="1.0"><defs><clipPath id="34c8506bbd"><path d="M 291 185 L 374.738281 185 L 374.738281 271 L 291 271 Z M 291 185 " clip-rule="nonzero"/></clipPath><clipPath id="f5d9c4af9d"><path d="M 0.261719 241 L 323 241 L 323 358 L 0.261719 358 Z M 0.261719 241 " clip-rule="nonzero"/></clipPath></defs><g clip-path="url(#34c8506bbd)"><path fill="#655f68" d="M 373.484375 247.492188 C 374.304688 249.472656 374.738281 251.613281 374.738281 253.800781 C 374.738281 258.351562 372.898438 262.480469 369.914062 265.457031 C 366.9375 268.445312 362.820312 270.289062 358.277344 270.289062 C 353.90625 270.289062 349.71875 268.550781 346.628906 265.457031 L 291.332031 210.105469 C 293.128906 198.015625 302.164062 185.371094 313.511719 185.691406 L 369.914062 242.152344 C 371.457031 243.691406 372.667969 245.511719 373.484375 247.492188 Z M 373.484375 247.492188 " fill-opacity="1" fill-rule="nonzero"/></g><path fill="#ffc05a" d="M 303.65625 175.824219 L 313.511719 185.691406 C 313.46875 186.148438 311.722656 204 291.332031 210.105469 L 281.476562 200.238281 C 280.226562 182.382812 290.296875 171.457031 303.65625 175.824219 Z M 303.65625 175.824219 " fill-opacity="1" fill-rule="nonzero"/><path fill="#655f68" d="M 291.601562 163.757812 L 303.65625 175.824219 C 303.609375 176.28125 301.867188 194.132812 281.476562 200.238281 L 268.316406 187.0625 C 267.359375 167.140625 275.527344 159.9375 291.601562 163.757812 Z M 291.601562 163.757812 " fill-opacity="1" fill-rule="nonzero"/><path fill="#604533" d="M 315.589844 39.164062 C 283.820312 7.363281 239.570312 0.101562 216.742188 22.945312 C 209.429688 30.265625 205.203125 39.796875 203.886719 50.410156 L 304.355469 150.988281 C 314.960938 149.667969 324.480469 145.441406 331.796875 138.117188 C 354.613281 115.265625 347.359375 70.96875 315.589844 39.164062 Z M 315.589844 39.164062 " fill-opacity="1" fill-rule="nonzero"/><path fill="#ffc05a" d="M 290.464844 64.316406 C 273.652344 47.484375 250.429688 37.078125 224.773438 37.078125 C 222.351562 37.078125 219.976562 37.558594 217.785156 38.472656 C 215.585938 39.378906 213.570312 40.71875 211.855469 42.433594 L 203.886719 50.410156 L 194.328125 59.980469 L 294.796875 160.554688 L 304.355469 150.988281 L 312.324219 143.007812 C 315.75 139.582031 317.675781 134.925781 317.675781 130.078125 C 317.675781 104.394531 307.28125 81.148438 290.464844 64.316406 Z M 290.464844 64.316406 " fill-opacity="1" fill-rule="nonzero"/><path fill="#604533" d="M 272.9375 81.863281 C 256.125 65.03125 232.894531 54.625 207.242188 54.625 C 204.824219 54.625 202.449219 55.105469 200.257812 56.019531 C 198.058594 56.925781 196.039062 58.265625 194.328125 59.980469 L 156.269531 98.078125 L 256.742188 198.652344 L 268.316406 187.0625 L 291.601562 163.757812 L 294.796875 160.554688 C 298.222656 157.128906 300.148438 152.472656 300.148438 147.625 C 300.148438 121.949219 289.75 98.695312 272.9375 81.863281 Z M 272.9375 81.863281 " fill-opacity="1" fill-rule="nonzero"/><path fill="#a35757" d="M 234.878906 119.960938 C 218.066406 103.128906 194.835938 92.722656 169.1875 92.722656 C 166.765625 92.722656 164.390625 93.203125 162.199219 94.117188 C 160 95.023438 157.984375 96.363281 156.269531 98.078125 L 142.570312 111.792969 L 243.101562 212.304688 L 256.742188 198.652344 C 260.164062 195.222656 262.089844 190.570312 262.089844 185.722656 C 262.089844 160.046875 251.695312 136.792969 234.878906 119.960938 Z M 234.878906 119.960938 " fill-opacity="1" fill-rule="nonzero"/><path fill="#ffc05a" d="M 221.179688 133.675781 C 204.367188 116.84375 181.136719 106.4375 155.488281 106.4375 C 153.066406 106.4375 150.691406 106.917969 148.5 107.832031 C 146.300781 108.738281 144.28125 110.078125 142.570312 111.792969 L 139.136719 115.230469 L 139.136719 115.238281 L 239.425781 212.304688 L 243.101562 212.304688 C 246.488281 208.886719 248.390625 204.253906 248.390625 199.4375 C 248.390625 173.761719 237.992188 150.507812 221.179688 133.675781 Z M 221.179688 133.675781 " fill-opacity="1" fill-rule="nonzero"/><path fill="#a35757" d="M 207.289062 147.582031 C 186.785156 127.054688 161.539062 115.863281 139.136719 115.238281 C 123.496094 114.792969 109.234375 119.511719 98.949219 129.804688 C 89.527344 139.246094 85.058594 152.023438 84.390625 166.132812 C 83.765625 179.292969 85.765625 190.765625 87.953125 198.980469 L 215.199219 212.304688 L 239.425781 212.304688 C 237.796875 190.773438 226.730469 167.039062 207.289062 147.582031 Z M 207.289062 147.582031 " fill-opacity="1" fill-rule="nonzero"/><path fill="#604533" d="M 215.199219 212.304688 C 174.097656 226.753906 133.1875 228.324219 92.546875 212.304688 C 92.546875 212.304688 90.160156 207.316406 87.953125 198.980469 C 83.316406 180.359375 86.421875 162.460938 98.15625 150.710938 C 119.1875 129.660156 159.960938 136.351562 189.234375 165.652344 C 203.269531 179.703125 212.113281 196.40625 215.199219 212.304688 Z M 215.199219 212.304688 " fill-opacity="1" fill-rule="nonzero"/><g clip-path="url(#f5d9c4af9d)"><path fill="#a35757" d="M 268.179688 244.773438 C 198.777344 240.285156 127.683594 240.433594 55.0625 244.773438 C 39.046875 248.339844 25.347656 257.222656 15.652344 269.320312 C 5.953125 281.421875 0.261719 296.734375 0.261719 313.15625 L 0.261719 346.46875 C 0.261719 352.769531 5.359375 357.875 11.65625 357.875 L 311.585938 357.875 C 317.882812 357.875 322.980469 352.769531 322.980469 346.46875 L 322.980469 313.15625 C 322.980469 280.324219 300.199219 251.898438 268.179688 244.773438 Z M 268.179688 244.773438 " fill-opacity="1" fill-rule="nonzero"/></g><path fill="#e0ac69" d="M 243.101562 212.304688 L 253.726562 212.304688 C 259.015625 212.304688 263.523438 216.140625 264.375 221.375 L 268.179688 244.773438 L 55.0625 244.773438 L 58.867188 221.375 C 59.722656 216.140625 64.226562 212.304688 69.515625 212.304688 Z M 243.101562 212.304688 " fill-opacity="1" fill-rule="nonzero"/><path fill="#f9b132" d="M 317.675781 130.078125 C 317.675781 134.925781 315.75 139.582031 312.324219 143.007812 L 304.355469 150.988281 L 294.796875 160.554688 C 298.222656 157.128906 300.148438 152.472656 300.148438 147.625 C 300.148438 138.375 298.800781 129.445312 296.289062 121.011719 C 296.699219 120.957031 311.574219 119.0625 315.902344 111.914062 C 317.066406 117.789062 317.675781 123.863281 317.675781 130.078125 Z M 317.675781 130.078125 " fill-opacity="1" fill-rule="nonzero"/><path fill="#543927" d="M 300.148438 147.625 C 300.148438 152.472656 298.222656 157.128906 294.796875 160.554688 L 291.601562 163.757812 L 268.316406 187.0625 L 256.742188 198.652344 C 260.164062 195.222656 262.089844 190.570312 262.089844 185.722656 C 262.089844 176.183594 260.652344 166.980469 257.988281 158.308594 L 296.28125 121.011719 C 296.28125 121.011719 296.28125 121.011719 296.289062 121.011719 C 298.800781 129.445312 300.148438 138.375 300.148438 147.625 Z M 300.148438 147.625 " fill-opacity="1" fill-rule="nonzero"/><path fill="#543927" d="M 342.671875 84.972656 C 347.976562 105.453125 344.6875 125.210938 331.796875 138.117188 C 324.480469 145.441406 314.960938 149.667969 304.355469 150.988281 L 312.324219 143.007812 C 315.75 139.582031 317.675781 134.925781 317.675781 130.078125 C 317.675781 123.863281 317.066406 117.789062 315.902344 111.914062 C 315.902344 111.914062 343.746094 108 342.671875 84.972656 Z M 342.671875 84.972656 " fill-opacity="1" fill-rule="nonzero"/><path fill="#9e4949" d="M 262.089844 185.722656 C 262.089844 190.570312 260.164062 195.222656 256.742188 198.652344 L 243.101562 212.304688 C 246.488281 208.886719 248.390625 204.253906 248.390625 199.4375 C 248.390625 189.792969 246.921875 180.488281 244.195312 171.742188 L 257.988281 158.308594 C 260.652344 166.980469 262.089844 176.183594 262.089844 185.722656 Z M 262.089844 185.722656 " fill-opacity="1" fill-rule="nonzero"/><path fill="#f9b132" d="M 248.390625 199.4375 C 248.390625 204.253906 246.488281 208.886719 243.101562 212.304688 L 239.425781 212.304688 C 238.714844 202.964844 236.234375 193.210938 232.058594 183.582031 C 232.058594 183.574219 232.058594 183.574219 232.058594 183.566406 L 244.195312 171.742188 C 246.921875 180.488281 248.390625 189.792969 248.390625 199.4375 Z M 248.390625 199.4375 " fill-opacity="1" fill-rule="nonzero"/><path fill="#9e4949" d="M 239.425781 212.304688 L 215.199219 212.304688 C 214.421875 208.320312 213.289062 204.277344 211.796875 200.238281 C 211.796875 200.238281 230.753906 199.972656 232.058594 183.582031 C 236.234375 193.210938 238.714844 202.964844 239.425781 212.304688 Z M 239.425781 212.304688 " fill-opacity="1" fill-rule="nonzero"/><path fill="#543927" d="M 215.199219 212.304688 L 92.546875 212.304688 C 92.546875 212.304688 90.160156 207.316406 87.953125 198.980469 L 211.796875 200.238281 C 213.289062 204.277344 214.421875 208.320312 215.199219 212.304688 Z M 215.199219 212.304688 " fill-opacity="1" fill-rule="nonzero"/><path fill="#e7f2f1" d="M 204.441406 272.558594 C 202.761719 272.558594 201.398438 273.925781 201.398438 275.609375 L 201.398438 327.039062 C 201.398438 328.722656 202.761719 330.085938 204.441406 330.085938 C 206.125 330.085938 207.488281 328.722656 207.488281 327.039062 L 207.488281 275.609375 C 207.488281 273.925781 206.125 272.558594 204.441406 272.558594 Z M 204.441406 272.558594 " fill-opacity="1" fill-rule="nonzero"/><path fill="#e7f2f1" d="M 189.746094 272.558594 L 165.570312 272.558594 C 163.890625 272.558594 162.527344 273.925781 162.527344 275.609375 C 162.527344 277.289062 163.890625 278.65625 165.570312 278.65625 L 174.613281 278.65625 L 174.613281 327.039062 C 174.613281 328.722656 175.976562 330.085938 177.660156 330.085938 C 179.339844 330.085938 180.703125 328.722656 180.703125 327.039062 L 180.703125 278.65625 L 189.746094 278.65625 C 191.425781 278.65625 192.789062 277.289062 192.789062 275.609375 C 192.789062 273.925781 191.425781 272.558594 189.746094 272.558594 Z M 189.746094 272.558594 " fill-opacity="1" fill-rule="nonzero"/><path fill="#e7f2f1" d="M 110.335938 272.558594 C 108.65625 272.558594 107.292969 273.925781 107.292969 275.609375 L 107.292969 314.9375 C 107.292969 317.351562 106.351562 319.625 104.644531 321.339844 C 102.9375 323.046875 100.664062 323.992188 98.25 323.992188 C 93.257812 323.992188 89.199219 319.929688 89.199219 314.9375 L 89.199219 275.609375 C 89.199219 273.925781 87.835938 272.558594 86.15625 272.558594 C 84.472656 272.558594 83.109375 273.925781 83.109375 275.609375 L 83.109375 314.9375 C 83.109375 323.289062 89.902344 330.085938 98.25 330.085938 C 102.292969 330.085938 106.09375 328.511719 108.953125 325.644531 C 111.808594 322.777344 113.378906 318.976562 113.378906 314.9375 L 113.378906 275.609375 C 113.378906 273.925781 112.019531 272.558594 110.335938 272.558594 Z M 110.335938 272.558594 " fill-opacity="1" fill-rule="nonzero"/><path fill="#e7f2f1" d="M 137.949219 278.65625 C 140.59375 278.65625 143.074219 279.683594 144.933594 281.546875 C 146.800781 283.421875 147.828125 285.90625 147.828125 288.546875 C 147.828125 290.226562 149.191406 291.59375 150.875 291.59375 C 152.554688 291.59375 153.917969 290.226562 153.917969 288.546875 C 153.917969 284.28125 152.261719 280.269531 149.242188 277.238281 C 146.230469 274.222656 142.21875 272.558594 137.949219 272.558594 C 129.148438 272.558594 121.988281 279.730469 121.988281 288.546875 L 121.988281 314.101562 C 121.988281 318.363281 123.648438 322.378906 126.664062 325.40625 C 129.679688 328.425781 133.6875 330.085938 137.949219 330.085938 C 146.753906 330.085938 153.917969 322.914062 153.917969 314.101562 C 153.917969 312.417969 152.554688 311.054688 150.875 311.054688 C 149.191406 311.054688 147.828125 312.417969 147.828125 314.101562 C 147.828125 319.554688 143.398438 323.992188 137.949219 323.992188 C 135.3125 323.992188 132.832031 322.960938 130.972656 321.101562 C 129.105469 319.226562 128.078125 316.738281 128.078125 314.101562 L 128.078125 288.546875 C 128.078125 283.089844 132.507812 278.65625 137.949219 278.65625 Z M 137.949219 278.65625 " fill-opacity="1" fill-rule="nonzero"/><path fill="#e7f2f1" d="M 232.058594 272.558594 C 227.792969 272.558594 223.785156 274.222656 220.765625 277.242188 C 217.753906 280.269531 216.097656 284.28125 216.097656 288.542969 L 216.097656 314.101562 C 216.097656 322.914062 223.253906 330.085938 232.058594 330.085938 C 240.863281 330.085938 248.023438 322.914062 248.023438 314.101562 L 248.023438 288.542969 C 248.023438 279.730469 240.863281 272.558594 232.058594 272.558594 Z M 241.9375 314.101562 C 241.9375 319.554688 237.503906 323.992188 232.058594 323.992188 C 226.613281 323.992188 222.183594 319.554688 222.183594 314.101562 L 222.183594 288.546875 C 222.183594 285.90625 223.214844 283.421875 225.078125 281.550781 C 226.941406 279.683594 229.421875 278.65625 232.058594 278.65625 C 237.503906 278.65625 241.9375 283.09375 241.9375 288.546875 Z M 241.9375 314.101562 " fill-opacity="1" fill-rule="nonzero"/><path fill="#e7f2f1" d="M 58.335938 274.699219 C 57.9375 273.425781 56.761719 272.558594 55.429688 272.558594 C 54.097656 272.558594 52.917969 273.425781 52.523438 274.699219 L 41.539062 309.941406 C 41.53125 309.964844 41.515625 309.984375 41.507812 310.007812 L 36.484375 326.128906 C 35.984375 327.738281 36.878906 329.445312 38.484375 329.945312 C 38.785156 330.042969 39.089844 330.085938 39.390625 330.085938 C 40.6875 330.085938 41.890625 329.25 42.296875 327.945312 L 46.652344 313.964844 L 64.199219 313.964844 L 68.558594 327.945312 C 68.964844 329.25 70.167969 330.085938 71.464844 330.085938 C 71.765625 330.085938 72.070312 330.042969 72.371094 329.945312 C 73.976562 329.445312 74.871094 327.734375 74.371094 326.128906 Z M 48.5625 307.867188 L 55.429688 285.839844 L 62.296875 307.867188 Z M 48.5625 307.867188 " fill-opacity="1" fill-rule="nonzero"/><path fill="#e7f2f1" d="M 283.851562 272.558594 C 282.171875 272.558594 280.808594 273.925781 280.808594 275.609375 L 280.808594 313.402344 L 262.433594 274.308594 C 261.828125 273.019531 260.40625 272.324219 259.015625 272.632812 C 257.621094 272.945312 256.632812 274.179688 256.632812 275.609375 L 256.632812 327.039062 C 256.632812 328.722656 257.996094 330.085938 259.679688 330.085938 C 261.359375 330.085938 262.722656 328.722656 262.722656 327.039062 L 262.722656 289.242188 L 281.097656 328.335938 C 281.605469 329.421875 282.691406 330.085938 283.851562 330.085938 C 284.070312 330.085938 284.292969 330.0625 284.515625 330.011719 C 285.90625 329.699219 286.894531 328.464844 286.894531 327.039062 L 286.894531 275.605469 C 286.894531 273.925781 285.535156 272.558594 283.851562 272.558594 Z M 283.851562 272.558594 " fill-opacity="1" fill-rule="nonzero"/></svg>