<svg xmlns="http://www.w3.org/2000/svg" xmlns:xlink="http://www.w3.org/1999/xlink" width="500" zoomAndPan="magnify" viewBox="0 0 375 141.750002" height="189" preserveAspectRatio="xMidYMid meet" version="1.0"><defs><g/><clipPath id="ed325fd42b"><path d="M 261.265625 67 L 279.234375 67 L 279.234375 95.292969 L 261.265625 95.292969 Z M 261.265625 67 " clip-rule="nonzero"/></clipPath><clipPath id="1b9d860dd5"><path d="M 264 64.597656 L 268 64.597656 L 268 68 L 264 68 Z M 264 64.597656 " clip-rule="nonzero"/></clipPath><clipPath id="2f3761b900"><path d="M 71 23 L 91 23 L 91 51 L 71 51 Z M 71 23 " clip-rule="nonzero"/></clipPath><clipPath id="5131e7547b"><path d="M 57.90625 36.703125 L 79.613281 14.996094 L 100.257812 35.644531 L 78.554688 57.347656 Z M 57.90625 36.703125 " clip-rule="nonzero"/></clipPath><clipPath id="765b0683fe"><path d="M 57.90625 36.703125 L 79.613281 14.996094 L 100.257812 35.644531 L 78.554688 57.347656 Z M 57.90625 36.703125 " clip-rule="nonzero"/></clipPath><clipPath id="6de9d709a8"><path d="M 83 30 L 87 30 L 87 33 L 83 33 Z M 83 30 " clip-rule="nonzero"/></clipPath><clipPath id="77ebc27558"><path d="M 57.90625 36.703125 L 79.613281 14.996094 L 100.257812 35.644531 L 78.554688 57.347656 Z M 57.90625 36.703125 " clip-rule="nonzero"/></clipPath><clipPath id="fd10ea8316"><path d="M 57.90625 36.703125 L 79.613281 14.996094 L 100.257812 35.644531 L 78.554688 57.347656 Z M 57.90625 36.703125 " clip-rule="nonzero"/></clipPath><clipPath id="2fd850c146"><path d="M 78 29 L 82 29 L 82 32 L 78 32 Z M 78 29 " clip-rule="nonzero"/></clipPath><clipPath id="b9f1c39514"><path d="M 57.90625 36.703125 L 79.613281 14.996094 L 100.257812 35.644531 L 78.554688 57.347656 Z M 57.90625 36.703125 " clip-rule="nonzero"/></clipPath><clipPath id="97eb06cabc"><path d="M 57.90625 36.703125 L 79.613281 14.996094 L 100.257812 35.644531 L 78.554688 57.347656 Z M 57.90625 36.703125 " clip-rule="nonzero"/></clipPath><clipPath id="95a882f579"><path d="M 66 26 L 76 26 L 76 45 L 66 45 Z M 66 26 " clip-rule="nonzero"/></clipPath><clipPath id="f371715be7"><path d="M 57.90625 36.703125 L 79.613281 14.996094 L 100.257812 35.644531 L 78.554688 57.347656 Z M 57.90625 36.703125 " clip-rule="nonzero"/></clipPath><clipPath id="930d56b77f"><path d="M 57.90625 36.703125 L 79.613281 14.996094 L 100.257812 35.644531 L 78.554688 57.347656 Z M 57.90625 36.703125 " clip-rule="nonzero"/></clipPath><clipPath id="47e1a25dd3"><path d="M 72 48 L 79 48 L 79 52 L 72 52 Z M 72 48 " clip-rule="nonzero"/></clipPath><clipPath id="0d5fe1dcb3"><path d="M 57.90625 36.703125 L 79.613281 14.996094 L 100.257812 35.644531 L 78.554688 57.347656 Z M 57.90625 36.703125 " clip-rule="nonzero"/></clipPath><clipPath id="b20558349b"><path d="M 57.90625 36.703125 L 79.613281 14.996094 L 100.257812 35.644531 L 78.554688 57.347656 Z M 57.90625 36.703125 " clip-rule="nonzero"/></clipPath><clipPath id="182c323418"><path d="M 71 32 L 74 32 L 74 34 L 71 34 Z M 71 32 " clip-rule="nonzero"/></clipPath><clipPath id="1fad101045"><path d="M 57.90625 36.703125 L 79.613281 14.996094 L 100.257812 35.644531 L 78.554688 57.347656 Z M 57.90625 36.703125 " clip-rule="nonzero"/></clipPath><clipPath id="17d119a462"><path d="M 57.90625 36.703125 L 79.613281 14.996094 L 100.257812 35.644531 L 78.554688 57.347656 Z M 57.90625 36.703125 " clip-rule="nonzero"/></clipPath><clipPath id="fc7b04ebf2"><path d="M 164 93.210938 L 170 93.210938 L 170 99 L 164 99 Z M 164 93.210938 " clip-rule="nonzero"/></clipPath><clipPath id="b6271d3718"><path d="M 155.277344 95 L 179.234375 95 L 179.234375 118.664062 L 155.277344 118.664062 Z M 155.277344 95 " clip-rule="nonzero"/></clipPath><clipPath id="ef2b88caff"><path d="M 162 118 L 165 118 L 165 118.664062 L 162 118.664062 Z M 162 118 " clip-rule="nonzero"/></clipPath><clipPath id="542ecc87be"><path d="M 170 118 L 172 118 L 172 118.664062 L 170 118.664062 Z M 170 118 " clip-rule="nonzero"/></clipPath></defs><g fill="#000000" fill-opacity="0.6118"><g transform="translate(13.622025, 122.836646)"><g><path d="M 32.140625 0 C 31.191406 0 30.640625 -0.515625 30.484375 -1.546875 L 27.046875 -31.4375 C 27.046875 -31.75 26.925781 -31.90625 26.6875 -31.90625 C 26.375 -31.90625 26.21875 -31.707031 26.21875 -31.3125 L 22.53125 -1.78125 C 22.457031 -1.226562 22.242188 -0.789062 21.890625 -0.46875 C 21.535156 -0.15625 21.117188 0 20.640625 0 L 2.375 0 C 1.894531 0 1.515625 -0.15625 1.234375 -0.46875 C 0.960938 -0.789062 0.867188 -1.226562 0.953125 -1.78125 L 10.671875 -81.265625 C 10.753906 -81.816406 10.972656 -82.25 11.328125 -82.5625 C 11.679688 -82.875 12.097656 -83.03125 12.578125 -83.03125 L 38.546875 -83.03125 C 44.878906 -83.03125 49.882812 -81.015625 53.5625 -76.984375 C 57.238281 -72.953125 59.078125 -67.613281 59.078125 -60.96875 C 59.078125 -59.070312 59 -57.609375 58.84375 -56.578125 C 58.28125 -52.234375 57.050781 -48.335938 55.15625 -44.890625 C 53.257812 -41.453125 50.8125 -38.664062 47.8125 -36.53125 C 47.414062 -36.300781 47.296875 -36.023438 47.453125 -35.703125 L 52.546875 -2.015625 L 52.546875 -1.546875 C 52.546875 -1.066406 52.390625 -0.6875 52.078125 -0.40625 C 51.765625 -0.132812 51.367188 0 50.890625 0 Z M 30.71875 -63.9375 C 30.320312 -63.9375 30.125 -63.738281 30.125 -63.34375 L 28.34375 -49.46875 C 28.34375 -49.070312 28.539062 -48.875 28.9375 -48.875 L 30.484375 -48.875 C 32.378906 -48.875 33.976562 -49.703125 35.28125 -51.359375 C 36.59375 -53.023438 37.25 -55.320312 37.25 -58.25 C 37.25 -60.0625 36.8125 -61.460938 35.9375 -62.453125 C 35.070312 -63.441406 33.890625 -63.9375 32.390625 -63.9375 Z M 30.71875 -63.9375 "/></g></g></g><g fill="#000000" fill-opacity="0.6118"><g transform="translate(69.966011, 122.836646)"><g><path d="M 36.890625 0 C 35.785156 0 35.269531 -0.550781 35.34375 -1.65625 L 35.109375 -10.671875 C 35.191406 -10.828125 35.148438 -10.960938 34.984375 -11.078125 C 34.828125 -11.203125 34.671875 -11.265625 34.515625 -11.265625 L 24.203125 -11.265625 C 23.804688 -11.265625 23.53125 -11.066406 23.375 -10.671875 L 21.109375 -1.65625 C 20.878906 -0.550781 20.207031 0 19.09375 0 L 1.0625 0 C -0.125 0 -0.554688 -0.628906 -0.234375 -1.890625 L 25.859375 -81.5 C 26.171875 -82.519531 26.882812 -83.03125 28 -83.03125 L 48.984375 -83.03125 C 50.097656 -83.03125 50.691406 -82.519531 50.765625 -81.5 L 57.296875 -1.890625 L 57.296875 -1.65625 C 57.296875 -0.550781 56.703125 0 55.515625 0 Z M 28.234375 -28.9375 C 28.078125 -28.539062 28.195312 -28.34375 28.59375 -28.34375 L 34.15625 -28.34375 C 34.394531 -28.34375 34.59375 -28.539062 34.75 -28.9375 L 34.28125 -50.890625 C 34.28125 -51.203125 34.179688 -51.335938 33.984375 -51.296875 C 33.785156 -51.265625 33.6875 -51.128906 33.6875 -50.890625 Z M 28.234375 -28.9375 "/></g></g></g><g fill="#000000" fill-opacity="0.6118"><g transform="translate(131.054748, 122.836646)"><g><path d="M 54.8125 -65.71875 C 54.726562 -65.164062 54.507812 -64.726562 54.15625 -64.40625 C 53.800781 -64.09375 53.34375 -63.9375 52.78125 -63.9375 L 30.71875 -63.9375 C 30.320312 -63.9375 30.125 -63.738281 30.125 -63.34375 L 28.703125 -51.71875 C 28.546875 -51.320312 28.707031 -51.125 29.1875 -51.125 L 40.6875 -51.125 C 41.238281 -51.125 41.648438 -50.960938 41.921875 -50.640625 C 42.203125 -50.328125 42.304688 -49.894531 42.234375 -49.34375 L 40.328125 -33.8125 C 40.097656 -32.625 39.425781 -32.03125 38.3125 -32.03125 L 26.8125 -32.03125 C 26.414062 -32.03125 26.21875 -31.832031 26.21875 -31.4375 L 22.53125 -1.78125 C 22.457031 -1.226562 22.242188 -0.789062 21.890625 -0.46875 C 21.535156 -0.15625 21.117188 0 20.640625 0 L 2.375 0 C 1.894531 0 1.515625 -0.15625 1.234375 -0.46875 C 0.960938 -0.789062 0.867188 -1.226562 0.953125 -1.78125 L 10.671875 -81.265625 C 10.753906 -81.816406 10.972656 -82.25 11.328125 -82.5625 C 11.679688 -82.875 12.097656 -83.03125 12.578125 -83.03125 L 55.15625 -83.03125 C 55.707031 -83.03125 56.125 -82.875 56.40625 -82.5625 C 56.6875 -82.25 56.785156 -81.816406 56.703125 -81.265625 Z M 54.8125 -65.71875 "/></g></g></g><g fill="#000000" fill-opacity="0.6118"><g transform="translate(180.756077, 122.836646)"><g><path d="M 54.8125 -65.71875 C 54.726562 -65.164062 54.507812 -64.726562 54.15625 -64.40625 C 53.800781 -64.09375 53.34375 -63.9375 52.78125 -63.9375 L 30.71875 -63.9375 C 30.320312 -63.9375 30.125 -63.738281 30.125 -63.34375 L 28.703125 -51.71875 C 28.546875 -51.320312 28.707031 -51.125 29.1875 -51.125 L 40.6875 -51.125 C 41.238281 -51.125 41.648438 -50.960938 41.921875 -50.640625 C 42.203125 -50.328125 42.304688 -49.894531 42.234375 -49.34375 L 40.328125 -33.8125 C 40.097656 -32.625 39.425781 -32.03125 38.3125 -32.03125 L 26.8125 -32.03125 C 26.414062 -32.03125 26.21875 -31.832031 26.21875 -31.4375 L 22.53125 -1.78125 C 22.457031 -1.226562 22.242188 -0.789062 21.890625 -0.46875 C 21.535156 -0.15625 21.117188 0 20.640625 0 L 2.375 0 C 1.894531 0 1.515625 -0.15625 1.234375 -0.46875 C 0.960938 -0.789062 0.867188 -1.226562 0.953125 -1.78125 L 10.671875 -81.265625 C 10.753906 -81.816406 10.972656 -82.25 11.328125 -82.5625 C 11.679688 -82.875 12.097656 -83.03125 12.578125 -83.03125 L 55.15625 -83.03125 C 55.707031 -83.03125 56.125 -82.875 56.40625 -82.5625 C 56.6875 -82.25 56.785156 -81.816406 56.703125 -81.265625 Z M 54.8125 -65.71875 "/></g></g></g><g fill="#000000" fill-opacity="0.6118"><g transform="translate(230.457405, 122.836646)"><g><path d="M 2.375 0 C 1.894531 0 1.515625 -0.15625 1.234375 -0.46875 C 0.960938 -0.789062 0.867188 -1.226562 0.953125 -1.78125 L 10.671875 -81.265625 C 10.753906 -81.816406 10.972656 -82.25 11.328125 -82.5625 C 11.679688 -82.875 12.097656 -83.03125 12.578125 -83.03125 L 30.84375 -83.03125 C 31.3125 -83.03125 31.6875 -82.875 31.96875 -82.5625 C 32.25 -82.25 32.347656 -81.816406 32.265625 -81.265625 L 24.796875 -19.6875 C 24.640625 -19.289062 24.796875 -19.09375 25.265625 -19.09375 L 47.8125 -19.09375 C 48.363281 -19.09375 48.773438 -18.9375 49.046875 -18.625 C 49.328125 -18.3125 49.425781 -17.875 49.34375 -17.3125 L 47.453125 -1.78125 C 47.210938 -0.59375 46.539062 0 45.4375 0 Z M 2.375 0 "/></g></g></g><g fill="#000000" fill-opacity="0.6118"><g transform="translate(281.819386, 122.836646)"><g><path d="M 2.375 0 C 1.894531 0 1.515625 -0.15625 1.234375 -0.46875 C 0.960938 -0.789062 0.867188 -1.226562 0.953125 -1.78125 L 10.671875 -81.265625 C 10.753906 -81.816406 10.972656 -82.25 11.328125 -82.5625 C 11.679688 -82.875 12.097656 -83.03125 12.578125 -83.03125 L 30.84375 -83.03125 C 31.3125 -83.03125 31.6875 -82.875 31.96875 -82.5625 C 32.25 -82.25 32.347656 -81.816406 32.265625 -81.265625 L 22.53125 -1.78125 C 22.457031 -1.226562 22.242188 -0.789062 21.890625 -0.46875 C 21.535156 -0.15625 21.117188 0 20.640625 0 Z M 2.375 0 "/></g></g></g><g fill="#000000" fill-opacity="0.6118"><g transform="translate(309.457607, 122.836646)"><g><path d="M 1.3125 0 C 0.351562 0 -0.125 -0.351562 -0.125 -1.0625 L 0.125 -2.015625 L 20.171875 -41.15625 C 20.242188 -41.394531 20.242188 -41.632812 20.171875 -41.875 L 9.84375 -81.015625 C 9.769531 -81.179688 9.734375 -81.378906 9.734375 -81.609375 C 9.734375 -82.554688 10.320312 -83.03125 11.5 -83.03125 L 29.890625 -83.03125 C 30.367188 -83.03125 30.765625 -82.890625 31.078125 -82.609375 C 31.390625 -82.335938 31.585938 -81.96875 31.671875 -81.5 L 34.28125 -65 C 34.363281 -64.769531 34.484375 -64.65625 34.640625 -64.65625 C 34.796875 -64.65625 34.914062 -64.769531 35 -65 L 41.75 -81.5 C 42.144531 -82.519531 42.859375 -83.03125 43.890625 -83.03125 L 62.15625 -83.03125 C 63.101562 -83.03125 63.578125 -82.675781 63.578125 -81.96875 L 63.34375 -81.015625 L 43.296875 -41.875 C 43.210938 -41.632812 43.210938 -41.394531 43.296875 -41.15625 L 53.625 -2.015625 C 53.695312 -1.859375 53.734375 -1.660156 53.734375 -1.421875 C 53.734375 -0.472656 53.140625 0 51.953125 0 L 33.8125 0 C 33.332031 0 32.929688 -0.132812 32.609375 -0.40625 C 32.296875 -0.6875 32.101562 -1.066406 32.03125 -1.546875 L 29.1875 -17.90625 C 29.1875 -18.226562 29.101562 -18.390625 28.9375 -18.390625 C 28.78125 -18.390625 28.664062 -18.226562 28.59375 -17.90625 L 21.703125 -1.546875 C 21.304688 -0.515625 20.597656 0 19.578125 0 Z M 1.3125 0 "/></g></g></g><g fill="#ffffff" fill-opacity="1"><g transform="translate(10.636145, 118.058239)"><g><path d="M 32.140625 0 C 31.191406 0 30.640625 -0.515625 30.484375 -1.546875 L 27.046875 -31.4375 C 27.046875 -31.75 26.925781 -31.90625 26.6875 -31.90625 C 26.375 -31.90625 26.21875 -31.707031 26.21875 -31.3125 L 22.53125 -1.78125 C 22.457031 -1.226562 22.242188 -0.789062 21.890625 -0.46875 C 21.535156 -0.15625 21.117188 0 20.640625 0 L 2.375 0 C 1.894531 0 1.515625 -0.15625 1.234375 -0.46875 C 0.960938 -0.789062 0.867188 -1.226562 0.953125 -1.78125 L 10.671875 -81.265625 C 10.753906 -81.816406 10.972656 -82.25 11.328125 -82.5625 C 11.679688 -82.875 12.097656 -83.03125 12.578125 -83.03125 L 38.546875 -83.03125 C 44.878906 -83.03125 49.882812 -81.015625 53.5625 -76.984375 C 57.238281 -72.953125 59.078125 -67.613281 59.078125 -60.96875 C 59.078125 -59.070312 59 -57.609375 58.84375 -56.578125 C 58.28125 -52.234375 57.050781 -48.335938 55.15625 -44.890625 C 53.257812 -41.453125 50.8125 -38.664062 47.8125 -36.53125 C 47.414062 -36.300781 47.296875 -36.023438 47.453125 -35.703125 L 52.546875 -2.015625 L 52.546875 -1.546875 C 52.546875 -1.066406 52.390625 -0.6875 52.078125 -0.40625 C 51.765625 -0.132812 51.367188 0 50.890625 0 Z M 30.71875 -63.9375 C 30.320312 -63.9375 30.125 -63.738281 30.125 -63.34375 L 28.34375 -49.46875 C 28.34375 -49.070312 28.539062 -48.875 28.9375 -48.875 L 30.484375 -48.875 C 32.378906 -48.875 33.976562 -49.703125 35.28125 -51.359375 C 36.59375 -53.023438 37.25 -55.320312 37.25 -58.25 C 37.25 -60.0625 36.8125 -61.460938 35.9375 -62.453125 C 35.070312 -63.441406 33.890625 -63.9375 32.390625 -63.9375 Z M 30.71875 -63.9375 "/></g></g></g><g fill="#ffffff" fill-opacity="1"><g transform="translate(66.980131, 118.058239)"><g><path d="M 36.890625 0 C 35.785156 0 35.269531 -0.550781 35.34375 -1.65625 L 35.109375 -10.671875 C 35.191406 -10.828125 35.148438 -10.960938 34.984375 -11.078125 C 34.828125 -11.203125 34.671875 -11.265625 34.515625 -11.265625 L 24.203125 -11.265625 C 23.804688 -11.265625 23.53125 -11.066406 23.375 -10.671875 L 21.109375 -1.65625 C 20.878906 -0.550781 20.207031 0 19.09375 0 L 1.0625 0 C -0.125 0 -0.554688 -0.628906 -0.234375 -1.890625 L 25.859375 -81.5 C 26.171875 -82.519531 26.882812 -83.03125 28 -83.03125 L 48.984375 -83.03125 C 50.097656 -83.03125 50.691406 -82.519531 50.765625 -81.5 L 57.296875 -1.890625 L 57.296875 -1.65625 C 57.296875 -0.550781 56.703125 0 55.515625 0 Z M 28.234375 -28.9375 C 28.078125 -28.539062 28.195312 -28.34375 28.59375 -28.34375 L 34.15625 -28.34375 C 34.394531 -28.34375 34.59375 -28.539062 34.75 -28.9375 L 34.28125 -50.890625 C 34.28125 -51.203125 34.179688 -51.335938 33.984375 -51.296875 C 33.785156 -51.265625 33.6875 -51.128906 33.6875 -50.890625 Z M 28.234375 -28.9375 "/></g></g></g><g fill="#ffffff" fill-opacity="1"><g transform="translate(128.068868, 118.058239)"><g><path d="M 54.8125 -65.71875 C 54.726562 -65.164062 54.507812 -64.726562 54.15625 -64.40625 C 53.800781 -64.09375 53.34375 -63.9375 52.78125 -63.9375 L 30.71875 -63.9375 C 30.320312 -63.9375 30.125 -63.738281 30.125 -63.34375 L 28.703125 -51.71875 C 28.546875 -51.320312 28.707031 -51.125 29.1875 -51.125 L 40.6875 -51.125 C 41.238281 -51.125 41.648438 -50.960938 41.921875 -50.640625 C 42.203125 -50.328125 42.304688 -49.894531 42.234375 -49.34375 L 40.328125 -33.8125 C 40.097656 -32.625 39.425781 -32.03125 38.3125 -32.03125 L 26.8125 -32.03125 C 26.414062 -32.03125 26.21875 -31.832031 26.21875 -31.4375 L 22.53125 -1.78125 C 22.457031 -1.226562 22.242188 -0.789062 21.890625 -0.46875 C 21.535156 -0.15625 21.117188 0 20.640625 0 L 2.375 0 C 1.894531 0 1.515625 -0.15625 1.234375 -0.46875 C 0.960938 -0.789062 0.867188 -1.226562 0.953125 -1.78125 L 10.671875 -81.265625 C 10.753906 -81.816406 10.972656 -82.25 11.328125 -82.5625 C 11.679688 -82.875 12.097656 -83.03125 12.578125 -83.03125 L 55.15625 -83.03125 C 55.707031 -83.03125 56.125 -82.875 56.40625 -82.5625 C 56.6875 -82.25 56.785156 -81.816406 56.703125 -81.265625 Z M 54.8125 -65.71875 "/></g></g></g><g fill="#ffffff" fill-opacity="1"><g transform="translate(177.770197, 118.058239)"><g><path d="M 54.8125 -65.71875 C 54.726562 -65.164062 54.507812 -64.726562 54.15625 -64.40625 C 53.800781 -64.09375 53.34375 -63.9375 52.78125 -63.9375 L 30.71875 -63.9375 C 30.320312 -63.9375 30.125 -63.738281 30.125 -63.34375 L 28.703125 -51.71875 C 28.546875 -51.320312 28.707031 -51.125 29.1875 -51.125 L 40.6875 -51.125 C 41.238281 -51.125 41.648438 -50.960938 41.921875 -50.640625 C 42.203125 -50.328125 42.304688 -49.894531 42.234375 -49.34375 L 40.328125 -33.8125 C 40.097656 -32.625 39.425781 -32.03125 38.3125 -32.03125 L 26.8125 -32.03125 C 26.414062 -32.03125 26.21875 -31.832031 26.21875 -31.4375 L 22.53125 -1.78125 C 22.457031 -1.226562 22.242188 -0.789062 21.890625 -0.46875 C 21.535156 -0.15625 21.117188 0 20.640625 0 L 2.375 0 C 1.894531 0 1.515625 -0.15625 1.234375 -0.46875 C 0.960938 -0.789062 0.867188 -1.226562 0.953125 -1.78125 L 10.671875 -81.265625 C 10.753906 -81.816406 10.972656 -82.25 11.328125 -82.5625 C 11.679688 -82.875 12.097656 -83.03125 12.578125 -83.03125 L 55.15625 -83.03125 C 55.707031 -83.03125 56.125 -82.875 56.40625 -82.5625 C 56.6875 -82.25 56.785156 -81.816406 56.703125 -81.265625 Z M 54.8125 -65.71875 "/></g></g></g><g fill="#ffffff" fill-opacity="1"><g transform="translate(227.471525, 118.058239)"><g><path d="M 2.375 0 C 1.894531 0 1.515625 -0.15625 1.234375 -0.46875 C 0.960938 -0.789062 0.867188 -1.226562 0.953125 -1.78125 L 10.671875 -81.265625 C 10.753906 -81.816406 10.972656 -82.25 11.328125 -82.5625 C 11.679688 -82.875 12.097656 -83.03125 12.578125 -83.03125 L 30.84375 -83.03125 C 31.3125 -83.03125 31.6875 -82.875 31.96875 -82.5625 C 32.25 -82.25 32.347656 -81.816406 32.265625 -81.265625 L 24.796875 -19.6875 C 24.640625 -19.289062 24.796875 -19.09375 25.265625 -19.09375 L 47.8125 -19.09375 C 48.363281 -19.09375 48.773438 -18.9375 49.046875 -18.625 C 49.328125 -18.3125 49.425781 -17.875 49.34375 -17.3125 L 47.453125 -1.78125 C 47.210938 -0.59375 46.539062 0 45.4375 0 Z M 2.375 0 "/></g></g></g><g fill="#ffffff" fill-opacity="1"><g transform="translate(278.833506, 118.058239)"><g><path d="M 2.375 0 C 1.894531 0 1.515625 -0.15625 1.234375 -0.46875 C 0.960938 -0.789062 0.867188 -1.226562 0.953125 -1.78125 L 10.671875 -81.265625 C 10.753906 -81.816406 10.972656 -82.25 11.328125 -82.5625 C 11.679688 -82.875 12.097656 -83.03125 12.578125 -83.03125 L 30.84375 -83.03125 C 31.3125 -83.03125 31.6875 -82.875 31.96875 -82.5625 C 32.25 -82.25 32.347656 -81.816406 32.265625 -81.265625 L 22.53125 -1.78125 C 22.457031 -1.226562 22.242188 -0.789062 21.890625 -0.46875 C 21.535156 -0.15625 21.117188 0 20.640625 0 Z M 2.375 0 "/></g></g></g><g fill="#ffffff" fill-opacity="1"><g transform="translate(306.471727, 118.058239)"><g><path d="M 1.3125 0 C 0.351562 0 -0.125 -0.351562 -0.125 -1.0625 L 0.125 -2.015625 L 20.171875 -41.15625 C 20.242188 -41.394531 20.242188 -41.632812 20.171875 -41.875 L 9.84375 -81.015625 C 9.769531 -81.179688 9.734375 -81.378906 9.734375 -81.609375 C 9.734375 -82.554688 10.320312 -83.03125 11.5 -83.03125 L 29.890625 -83.03125 C 30.367188 -83.03125 30.765625 -82.890625 31.078125 -82.609375 C 31.390625 -82.335938 31.585938 -81.96875 31.671875 -81.5 L 34.28125 -65 C 34.363281 -64.769531 34.484375 -64.65625 34.640625 -64.65625 C 34.796875 -64.65625 34.914062 -64.769531 35 -65 L 41.75 -81.5 C 42.144531 -82.519531 42.859375 -83.03125 43.890625 -83.03125 L 62.15625 -83.03125 C 63.101562 -83.03125 63.578125 -82.675781 63.578125 -81.96875 L 63.34375 -81.015625 L 43.296875 -41.875 C 43.210938 -41.632812 43.210938 -41.394531 43.296875 -41.15625 L 53.625 -2.015625 C 53.695312 -1.859375 53.734375 -1.660156 53.734375 -1.421875 C 53.734375 -0.472656 53.140625 0 51.953125 0 L 33.8125 0 C 33.332031 0 32.929688 -0.132812 32.609375 -0.40625 C 32.296875 -0.6875 32.101562 -1.066406 32.03125 -1.546875 L 29.1875 -17.90625 C 29.1875 -18.226562 29.101562 -18.390625 28.9375 -18.390625 C 28.78125 -18.390625 28.664062 -18.226562 28.59375 -17.90625 L 21.703125 -1.546875 C 21.304688 -0.515625 20.597656 0 19.578125 0 Z M 1.3125 0 "/></g></g></g><g clip-path="url(#ed325fd42b)"><path fill="#ffffff" d="M 276.769531 91.007812 L 275.289062 91.734375 L 276.195312 80.941406 C 276.253906 80.882812 276.3125 80.820312 276.367188 80.757812 L 278.121094 79.832031 Z M 274.246094 92.242188 L 272.78125 92.964844 L 273.222656 82.40625 L 275.101562 81.417969 C 275.121094 81.417969 275.136719 81.414062 275.152344 81.414062 Z M 271.761719 93.460938 L 270.828125 93.921875 L 270.75 83.707031 L 272.203125 82.945312 Z M 270.25 82.847656 L 268.917969 82.148438 C 269.074219 82.050781 269.222656 81.9375 269.34375 81.792969 C 269.550781 81.878906 269.773438 81.925781 270 81.925781 C 270.503906 81.925781 270.953125 81.710938 271.273438 81.367188 C 271.425781 81.40625 271.585938 81.429688 271.746094 81.429688 C 272.25 81.429688 272.738281 81.230469 273.105469 80.890625 C 273.316406 80.9375 273.535156 80.941406 273.75 80.910156 C 273.769531 80.933594 273.796875 80.953125 273.820312 80.972656 Z M 268.742188 93.460938 L 268.296875 82.945312 L 269.753906 83.710938 L 269.828125 94.050781 Z M 267.257812 80.6875 C 267.257812 80.484375 267.34375 80.292969 267.492188 80.148438 C 267.683594 79.972656 267.703125 79.679688 267.539062 79.476562 C 267.414062 79.320312 267.257812 79.058594 267.257812 78.707031 C 267.257812 78.191406 267.574219 77.75 268.027344 77.5625 C 268.117188 77.578125 268.207031 77.589844 268.296875 77.589844 C 268.472656 77.589844 268.640625 77.554688 268.804688 77.507812 C 269.347656 77.640625 269.75 78.125 269.75 78.707031 C 269.75 78.773438 269.738281 78.835938 269.730469 78.898438 C 269.6875 79.164062 269.867188 79.414062 270.136719 79.464844 C 270.488281 79.527344 270.75 79.832031 270.75 80.191406 C 270.75 80.601562 270.414062 80.933594 270 80.933594 C 269.769531 80.933594 269.605469 80.828125 269.507812 80.742188 C 269.382812 80.632812 269.210938 80.589844 269.050781 80.628906 C 268.894531 80.671875 268.761719 80.785156 268.707031 80.941406 C 268.597656 81.230469 268.316406 81.429688 268.007812 81.429688 C 267.59375 81.429688 267.257812 81.097656 267.257812 80.6875 Z M 266.246094 92.109375 L 265.34375 81.390625 L 267.277344 82.40625 L 267.71875 92.90625 Z M 264.222656 91.011719 L 262.421875 79.855469 L 264.300781 80.839844 L 265.195312 91.542969 Z M 262.609375 78.082031 C 262.785156 77.96875 262.871094 77.757812 262.820312 77.554688 C 262.792969 77.445312 262.769531 77.332031 262.769531 77.222656 C 262.769531 77.136719 262.78125 77.054688 262.796875 76.976562 C 262.917969 77.8125 263.640625 78.457031 264.515625 78.457031 C 264.726562 78.457031 264.933594 78.414062 265.121094 78.347656 C 265.171875 78.421875 265.234375 78.488281 265.320312 78.527344 C 265.589844 78.648438 265.761719 78.914062 265.761719 79.199219 C 265.761719 79.609375 265.425781 79.945312 265.015625 79.945312 C 264.703125 79.945312 264.421875 79.75 264.316406 79.457031 C 264.257812 79.300781 264.128906 79.1875 263.964844 79.148438 C 263.804688 79.105469 263.636719 79.148438 263.511719 79.257812 C 263.503906 79.269531 263.488281 79.277344 263.476562 79.289062 L 262.277344 78.660156 C 262.292969 78.425781 262.410156 78.214844 262.609375 78.082031 Z M 263.765625 74.003906 C 264.089844 74.003906 264.382812 74.152344 264.574219 74.417969 C 264.714844 74.609375 264.976562 74.675781 265.191406 74.574219 C 265.710938 74.328125 266.261719 74.726562 266.261719 75.242188 C 266.261719 75.601562 266 75.90625 265.644531 75.96875 C 265.507812 75.992188 265.390625 76.066406 265.316406 76.183594 C 265.238281 76.292969 265.214844 76.433594 265.242188 76.5625 C 265.257812 76.625 265.261719 76.675781 265.261719 76.726562 C 265.261719 77.136719 264.929688 77.46875 264.515625 77.46875 C 264.101562 77.46875 263.765625 77.136719 263.765625 76.726562 C 263.765625 76.671875 263.777344 76.609375 263.796875 76.535156 C 263.867188 76.277344 263.722656 76.011719 263.46875 75.929688 C 263.050781 75.800781 262.769531 75.421875 262.769531 74.992188 C 262.769531 74.449219 263.21875 74.003906 263.765625 74.003906 Z M 266.601562 70.660156 C 266.78125 70.539062 266.867188 70.324219 266.808594 70.117188 C 266.773438 69.992188 266.757812 69.890625 266.757812 69.792969 C 266.757812 69.113281 267.320312 68.554688 268.007812 68.554688 C 268.695312 68.554688 269.253906 69.113281 269.253906 69.792969 C 269.253906 70 269.195312 70.207031 269.082031 70.402344 C 269.011719 70.523438 268.996094 70.667969 269.042969 70.800781 C 269.085938 70.933594 269.183594 71.042969 269.308594 71.101562 C 269.578125 71.21875 269.75 71.484375 269.75 71.773438 C 269.75 72.183594 269.417969 72.515625 269.003906 72.515625 C 268.695312 72.515625 268.414062 72.320312 268.304688 72.027344 C 268.246094 71.875 268.117188 71.757812 267.957031 71.71875 C 267.917969 71.707031 267.878906 71.703125 267.835938 71.703125 C 267.714844 71.703125 267.597656 71.746094 267.503906 71.828125 C 267.40625 71.917969 267.238281 72.023438 267.007812 72.023438 C 266.597656 72.023438 266.261719 71.691406 266.261719 71.28125 C 266.261719 71.027344 266.386719 70.796875 266.601562 70.660156 Z M 266.152344 77.890625 C 266.222656 77.671875 266.261719 77.449219 266.261719 77.222656 C 266.261719 77.125 266.25 77.03125 266.238281 76.945312 C 266.246094 76.894531 266.257812 76.851562 266.257812 76.804688 C 266.421875 76.730469 266.566406 76.628906 266.691406 76.511719 C 266.773438 76.703125 266.882812 76.882812 267.03125 77.039062 C 266.710938 77.320312 266.472656 77.6875 266.355469 78.105469 C 266.292969 78.03125 266.226562 77.957031 266.152344 77.890625 Z M 266.269531 80.757812 L 266.007812 80.621094 C 266.113281 80.546875 266.207031 80.464844 266.292969 80.371094 C 266.273438 80.472656 266.261719 80.578125 266.261719 80.6875 C 266.261719 80.710938 266.265625 80.734375 266.269531 80.757812 Z M 270.25 73.753906 C 270.25 74.085938 270.121094 74.394531 269.878906 74.632812 C 269.730469 74.78125 269.550781 74.882812 269.335938 74.941406 C 269.199219 74.976562 269.082031 75.066406 269.019531 75.195312 C 268.953125 75.316406 268.945312 75.464844 268.996094 75.597656 C 269.101562 75.867188 269.03125 76.175781 268.824219 76.382812 C 268.773438 76.433594 268.714844 76.460938 268.652344 76.492188 C 268.605469 76.488281 268.554688 76.476562 268.503906 76.476562 C 268.332031 76.476562 268.171875 76.5 268.011719 76.535156 C 267.921875 76.5 267.839844 76.449219 267.769531 76.378906 C 267.550781 76.164062 267.492188 75.828125 267.625 75.542969 C 267.695312 75.390625 267.683594 75.21875 267.597656 75.074219 C 267.515625 74.9375 267.367188 74.855469 267.207031 74.84375 C 267.109375 74.4375 266.871094 74.085938 266.542969 73.847656 C 266.582031 73.75 266.636719 73.65625 266.710938 73.582031 C 266.890625 73.402344 267.148438 73.328125 267.402344 73.378906 C 267.613281 73.425781 267.824219 73.324219 267.929688 73.140625 C 267.929688 73.140625 267.933594 73.136719 267.933594 73.136719 C 268.230469 73.371094 268.609375 73.507812 269.003906 73.507812 C 269.410156 73.507812 269.777344 73.363281 270.074219 73.132812 C 270.183594 73.320312 270.25 73.53125 270.25 73.753906 Z M 271.019531 78.789062 C 271.199219 78.589844 271.457031 78.457031 271.746094 78.457031 C 271.953125 78.457031 272.128906 78.527344 272.253906 78.605469 C 272.292969 79.078125 272.496094 79.511719 272.824219 79.839844 C 272.71875 79.871094 272.625 79.929688 272.554688 80.023438 C 272.355469 80.292969 272.039062 80.4375 271.722656 80.429688 C 271.734375 80.351562 271.746094 80.273438 271.746094 80.191406 C 271.746094 79.617188 271.460938 79.105469 271.019531 78.789062 Z M 271.332031 76.972656 C 271.851562 76.972656 272.328125 76.71875 272.617188 76.308594 C 272.746094 76.316406 272.867188 76.3125 272.992188 76.296875 C 273.089844 76.449219 273.21875 76.582031 273.363281 76.6875 C 272.964844 76.882812 272.644531 77.207031 272.449219 77.605469 C 272.222656 77.515625 271.988281 77.46875 271.746094 77.46875 C 271.308594 77.46875 270.902344 77.609375 270.570312 77.847656 C 270.394531 77.433594 270.101562 77.082031 269.726562 76.835938 C 269.855469 76.652344 269.945312 76.445312 269.992188 76.226562 C 270.269531 76.671875 270.765625 76.972656 271.332031 76.972656 Z M 271.285156 74.835938 C 271.546875 74.816406 271.75 74.601562 271.75 74.339844 C 271.75 74.332031 271.746094 74.324219 271.746094 74.3125 C 271.757812 73.777344 272.199219 73.34375 272.742188 73.34375 C 273.292969 73.34375 273.742188 73.789062 273.742188 74.332031 C 273.742188 74.878906 273.292969 75.324219 272.742188 75.324219 C 272.667969 75.324219 272.582031 75.308594 272.480469 75.28125 C 272.226562 75.210938 271.960938 75.347656 271.875 75.59375 C 271.792969 75.828125 271.574219 75.984375 271.332031 75.984375 C 271.011719 75.984375 270.75 75.722656 270.75 75.40625 C 270.75 75.109375 270.984375 74.859375 271.285156 74.835938 Z M 274.570312 75.125 C 274.644531 75.195312 274.703125 75.28125 274.726562 75.382812 C 274.765625 75.550781 274.890625 75.683594 275.054688 75.738281 C 275.21875 75.792969 275.398438 75.761719 275.53125 75.648438 C 275.660156 75.542969 275.816406 75.488281 275.984375 75.488281 C 276.3125 75.488281 276.585938 75.695312 276.6875 75.988281 C 276.167969 76 275.691406 76.222656 275.335938 76.578125 C 275.289062 76.488281 275.253906 76.394531 275.246094 76.292969 C 275.230469 76.125 275.128906 75.972656 274.976562 75.894531 C 274.824219 75.816406 274.640625 75.824219 274.492188 75.910156 C 274.4375 75.941406 274.347656 75.984375 274.238281 75.984375 C 274.136719 75.984375 274.042969 75.949219 273.964844 75.894531 C 274.222656 75.691406 274.4375 75.433594 274.570312 75.125 Z M 277.730469 77.964844 C 277.730469 78.632812 277.019531 79.144531 276.363281 78.878906 C 276.183594 78.808594 275.980469 78.84375 275.839844 78.972656 C 275.699219 79.101562 275.644531 79.300781 275.699219 79.484375 C 275.726562 79.566406 275.734375 79.632812 275.734375 79.695312 C 275.734375 79.804688 275.710938 79.910156 275.667969 80 L 274.878906 80.417969 C 274.558594 80.367188 274.292969 80.121094 274.25 79.792969 C 274.226562 79.605469 274.097656 79.449219 273.917969 79.390625 C 273.511719 79.25 273.242188 78.878906 273.242188 78.457031 C 273.242188 77.914062 273.691406 77.46875 274.238281 77.46875 C 274.515625 77.46875 274.777344 77.582031 274.96875 77.789062 C 275.085938 77.914062 275.261719 77.972656 275.433594 77.9375 C 275.601562 77.902344 275.742188 77.785156 275.800781 77.621094 C 275.945312 77.234375 276.320312 76.972656 276.734375 76.972656 C 277.28125 76.972656 277.730469 77.417969 277.730469 77.964844 Z M 277.730469 76.257812 C 277.730469 76.246094 277.730469 76.242188 277.730469 76.230469 C 277.730469 75.273438 276.949219 74.496094 275.984375 74.496094 C 275.792969 74.496094 275.609375 74.527344 275.429688 74.589844 C 275.25 74.351562 274.996094 74.183594 274.714844 74.085938 C 274.589844 73.113281 273.757812 72.351562 272.742188 72.351562 C 272.089844 72.351562 271.515625 72.667969 271.152344 73.152344 C 271.0625 72.828125 270.898438 72.527344 270.664062 72.277344 C 270.714844 72.113281 270.75 71.949219 270.75 71.773438 C 270.75 71.265625 270.519531 70.789062 270.140625 70.464844 C 270.214844 70.246094 270.25 70.023438 270.25 69.792969 C 270.25 68.566406 269.242188 67.566406 268.007812 67.566406 C 266.769531 67.566406 265.761719 68.566406 265.761719 69.792969 C 265.761719 69.878906 265.769531 69.960938 265.78125 70.050781 C 265.453125 70.371094 265.261719 70.8125 265.261719 71.28125 C 265.261719 71.917969 265.621094 72.472656 266.140625 72.773438 C 266.09375 72.808594 266.046875 72.839844 266.007812 72.878906 C 265.828125 73.058594 265.695312 73.28125 265.605469 73.515625 C 265.574219 73.515625 265.546875 73.507812 265.511719 73.507812 C 265.382812 73.507812 265.253906 73.523438 265.128906 73.550781 C 264.761719 73.210938 264.277344 73.011719 263.765625 73.011719 C 262.667969 73.011719 261.773438 73.898438 261.773438 74.992188 C 261.773438 75.386719 261.894531 75.757812 262.101562 76.070312 C 261.886719 76.414062 261.773438 76.808594 261.773438 77.222656 C 261.773438 77.308594 261.78125 77.398438 261.789062 77.476562 C 261.460938 77.800781 261.273438 78.238281 261.273438 78.707031 C 261.273438 78.753906 261.285156 78.800781 261.289062 78.847656 C 261.277344 78.90625 261.269531 78.96875 261.28125 79.03125 L 263.273438 91.410156 C 263.300781 91.5625 263.394531 91.691406 263.53125 91.765625 L 269.929688 95.230469 C 270.003906 95.269531 270.085938 95.292969 270.167969 95.292969 C 270.242188 95.292969 270.320312 95.273438 270.390625 95.238281 L 277.453125 91.773438 C 277.605469 91.699219 277.707031 91.554688 277.726562 91.390625 L 279.222656 79.011719 C 279.246094 78.828125 279.164062 78.648438 279.011719 78.546875 C 278.902344 78.472656 278.777344 78.449219 278.65625 78.46875 C 278.699219 78.304688 278.730469 78.136719 278.730469 77.964844 C 278.730469 77.230469 278.324219 76.601562 277.730469 76.257812 " fill-opacity="1" fill-rule="nonzero"/></g><path fill="#ffffff" d="M 276.734375 71.28125 C 276.734375 71.691406 276.398438 72.023438 275.984375 72.023438 C 275.597656 72.023438 275.28125 71.730469 275.246094 71.34375 C 275.230469 71.171875 275.128906 71.019531 274.976562 70.941406 C 274.90625 70.90625 274.828125 70.890625 274.75 70.890625 C 274.660156 70.890625 274.570312 70.914062 274.492188 70.957031 C 274.15625 71.160156 273.742188 70.898438 273.742188 70.535156 C 273.742188 70.265625 273.964844 70.042969 274.238281 70.042969 C 274.472656 70.042969 274.671875 70.199219 274.722656 70.425781 C 274.761719 70.59375 274.882812 70.726562 275.046875 70.785156 C 275.210938 70.839844 275.386719 70.808594 275.523438 70.703125 C 275.617188 70.628906 275.773438 70.535156 275.984375 70.535156 C 276.398438 70.535156 276.734375 70.871094 276.734375 71.28125 Z M 275.433594 69.636719 C 275.15625 69.277344 274.722656 69.050781 274.238281 69.050781 C 273.414062 69.050781 272.742188 69.71875 272.742188 70.535156 C 272.742188 71.410156 273.53125 72.109375 274.40625 72.011719 C 274.683594 72.609375 275.285156 73.011719 275.984375 73.011719 C 276.949219 73.011719 277.730469 72.234375 277.730469 71.28125 C 277.730469 70.324219 276.949219 69.546875 275.984375 69.546875 C 275.792969 69.546875 275.609375 69.578125 275.433594 69.636719 " fill-opacity="1" fill-rule="nonzero"/><path fill="#ffffff" d="M 273.171875 67.492188 C 272.953125 67.386719 272.695312 67.453125 272.554688 67.648438 C 272.363281 67.910156 272.066406 68.0625 271.746094 68.0625 C 271.199219 68.0625 270.75 67.617188 270.75 67.070312 C 270.75 66.527344 271.199219 66.082031 271.746094 66.082031 C 272.019531 66.082031 272.230469 66.195312 272.355469 66.296875 C 272.546875 66.441406 272.816406 66.433594 272.996094 66.273438 C 273.09375 66.1875 273.261719 66.082031 273.492188 66.082031 C 273.90625 66.082031 274.238281 66.414062 274.238281 66.824219 C 274.238281 67.339844 273.691406 67.738281 273.171875 67.492188 Z M 273.492188 65.089844 C 273.195312 65.089844 272.90625 65.167969 272.648438 65.308594 C 272.371094 65.167969 272.0625 65.089844 271.746094 65.089844 C 270.644531 65.089844 269.75 65.980469 269.75 67.070312 C 269.75 68.164062 270.644531 69.050781 271.746094 69.050781 C 272.253906 69.050781 272.742188 68.855469 273.109375 68.511719 C 273.234375 68.542969 273.363281 68.554688 273.492188 68.554688 C 274.453125 68.554688 275.238281 67.777344 275.238281 66.824219 C 275.238281 65.867188 274.453125 65.089844 273.492188 65.089844 " fill-opacity="1" fill-rule="nonzero"/><path fill="#ffffff" d="M 262.769531 68.554688 C 262.769531 68.828125 262.992188 69.050781 263.269531 69.050781 C 263.542969 69.050781 263.765625 68.828125 263.765625 68.554688 C 263.765625 68.285156 263.542969 68.0625 263.269531 68.0625 C 262.992188 68.0625 262.769531 68.285156 262.769531 68.554688 " fill-opacity="1" fill-rule="nonzero"/><path fill="#ffffff" d="M 277.234375 67.566406 C 277.234375 67.292969 277.007812 67.070312 276.734375 67.070312 C 276.460938 67.070312 276.234375 67.292969 276.234375 67.566406 C 276.234375 67.839844 276.460938 68.0625 276.734375 68.0625 C 277.007812 68.0625 277.234375 67.839844 277.234375 67.566406 " fill-opacity="1" fill-rule="nonzero"/><g clip-path="url(#1b9d860dd5)"><path fill="#ffffff" d="M 265.761719 65.585938 C 266.035156 65.585938 266.261719 65.808594 266.261719 66.082031 C 266.261719 66.355469 266.035156 66.578125 265.761719 66.578125 C 265.488281 66.578125 265.261719 66.355469 265.261719 66.082031 C 265.261719 65.808594 265.488281 65.585938 265.761719 65.585938 Z M 264.265625 66.082031 C 264.265625 66.902344 264.9375 67.566406 265.761719 67.566406 C 266.589844 67.566406 267.257812 66.902344 267.257812 66.082031 C 267.257812 65.261719 266.589844 64.597656 265.761719 64.597656 C 264.9375 64.597656 264.265625 65.261719 264.265625 66.082031 " fill-opacity="1" fill-rule="nonzero"/></g><g clip-path="url(#2f3761b900)"><g clip-path="url(#5131e7547b)"><g clip-path="url(#765b0683fe)"><path fill="#ffffff" d="M 80.566406 48.753906 C 80.488281 49.121094 80.722656 49.476562 81.089844 49.550781 L 85.105469 50.367188 C 85.28125 50.402344 85.464844 50.367188 85.613281 50.269531 C 85.652344 50.242188 85.6875 50.214844 85.71875 50.183594 C 85.8125 50.089844 85.878906 49.96875 85.90625 49.839844 L 90.75 26.621094 C 90.785156 26.445312 90.75 26.261719 90.652344 26.113281 C 90.554688 25.960938 90.398438 25.859375 90.222656 25.820312 L 86.210938 25.003906 C 86.03125 24.96875 85.851562 25.003906 85.699219 25.105469 C 85.550781 25.203125 85.445312 25.359375 85.40625 25.535156 C 85.339844 25.867188 85.175781 26.167969 84.933594 26.410156 C 84.519531 26.824219 83.929688 27.003906 83.355469 26.886719 C 82.421875 26.695312 81.820312 25.78125 82.015625 24.84375 C 82.050781 24.667969 82.015625 24.484375 81.917969 24.335938 C 81.820312 24.183594 81.664062 24.082031 81.488281 24.042969 L 77.476562 23.226562 C 77.109375 23.152344 76.75 23.390625 76.675781 23.757812 L 71.832031 46.976562 C 71.753906 47.34375 71.988281 47.699219 72.355469 47.773438 L 76.371094 48.589844 C 76.546875 48.628906 76.730469 48.589844 76.878906 48.492188 C 77.027344 48.394531 77.132812 48.238281 77.171875 48.0625 C 77.242188 47.730469 77.402344 47.425781 77.644531 47.1875 C 78.058594 46.769531 78.648438 46.59375 79.222656 46.710938 C 80.15625 46.898438 80.761719 47.816406 80.566406 48.753906 Z M 76.6875 46.230469 C 76.421875 46.496094 76.210938 46.804688 76.058594 47.144531 L 73.296875 46.582031 L 76.671875 30.398438 L 77 30.46875 C 77.175781 30.503906 77.347656 30.445312 77.464844 30.328125 C 77.53125 30.257812 77.582031 30.171875 77.601562 30.070312 C 77.660156 29.796875 77.484375 29.527344 77.210938 29.472656 L 76.878906 29.40625 L 77.859375 24.691406 L 80.625 25.25 C 80.644531 26.664062 81.640625 27.921875 83.078125 28.214844 C 84.101562 28.421875 85.148438 28.105469 85.890625 27.363281 C 86.15625 27.097656 86.367188 26.789062 86.523438 26.453125 L 89.285156 27.015625 L 88.300781 31.730469 L 87.96875 31.660156 C 87.695312 31.605469 87.425781 31.78125 87.367188 32.058594 C 87.3125 32.332031 87.488281 32.601562 87.761719 32.65625 L 88.09375 32.722656 L 84.71875 48.90625 L 81.957031 48.34375 C 81.933594 46.933594 80.9375 45.675781 79.5 45.382812 C 78.480469 45.175781 77.429688 45.492188 76.6875 46.230469 Z M 76.6875 46.230469 " fill-opacity="1" fill-rule="nonzero"/></g></g></g><g clip-path="url(#6de9d709a8)"><g clip-path="url(#77ebc27558)"><g clip-path="url(#fd10ea8316)"><path fill="#ffffff" d="M 85.609375 32.21875 C 85.785156 32.253906 85.953125 32.195312 86.070312 32.078125 C 86.140625 32.011719 86.191406 31.921875 86.210938 31.820312 C 86.269531 31.546875 86.089844 31.277344 85.816406 31.222656 L 83.664062 30.785156 C 83.390625 30.730469 83.121094 30.90625 83.0625 31.183594 C 83.007812 31.457031 83.183594 31.726562 83.457031 31.78125 Z M 85.609375 32.21875 " fill-opacity="1" fill-rule="nonzero"/></g></g></g><g clip-path="url(#2fd850c146)"><g clip-path="url(#b9f1c39514)"><g clip-path="url(#97eb06cabc)"><path fill="#ffffff" d="M 81.304688 31.34375 C 81.480469 31.378906 81.652344 31.320312 81.765625 31.203125 C 81.835938 31.136719 81.886719 31.046875 81.90625 30.945312 C 81.964844 30.671875 81.789062 30.402344 81.511719 30.347656 L 79.359375 29.910156 C 79.085938 29.851562 78.820312 30.03125 78.761719 30.304688 C 78.703125 30.582031 78.878906 30.847656 79.152344 30.90625 Z M 81.304688 31.34375 " fill-opacity="1" fill-rule="nonzero"/></g></g></g><g clip-path="url(#95a882f579)"><g clip-path="url(#f371715be7)"><g clip-path="url(#930d56b77f)"><path fill="#ffffff" d="M 72.238281 26.902344 C 72.144531 26.542969 71.777344 26.324219 71.414062 26.417969 L 67.4375 27.433594 C 67.074219 27.527344 66.855469 27.894531 66.945312 28.253906 C 66.96875 28.351562 69.332031 38.101562 70.773438 43.828125 C 70.863281 44.191406 71.230469 44.410156 71.59375 44.316406 C 71.714844 44.285156 71.820312 44.222656 71.90625 44.140625 C 72.070312 43.976562 72.144531 43.734375 72.085938 43.492188 C 71.414062 40.820312 70.539062 37.269531 69.796875 34.234375 L 70.023438 34.175781 C 70.117188 34.152344 70.195312 34.105469 70.257812 34.042969 C 70.382812 33.917969 70.4375 33.738281 70.394531 33.558594 C 70.324219 33.285156 70.050781 33.121094 69.777344 33.191406 L 69.554688 33.25 C 69.054688 31.191406 68.632812 29.46875 68.417969 28.578125 L 71.160156 27.878906 C 71.410156 28.371094 71.789062 28.785156 72.269531 29.085938 C 72.273438 29.089844 72.277344 29.09375 72.285156 29.097656 C 72.304688 29.109375 72.324219 29.125 72.34375 29.136719 C 72.351562 29.144531 72.359375 29.144531 72.367188 29.148438 C 72.375 29.152344 72.378906 29.15625 72.386719 29.160156 C 73.261719 29.589844 74.15625 29.609375 74.917969 29.214844 C 74.980469 29.179688 75.035156 29.140625 75.082031 29.089844 C 75.289062 28.886719 75.347656 28.566406 75.207031 28.300781 C 75.035156 27.96875 74.625 27.839844 74.292969 28.015625 C 73.9375 28.203125 73.484375 28.179688 73.019531 27.957031 C 72.625 27.722656 72.347656 27.347656 72.238281 26.902344 Z M 72.238281 26.902344 " fill-opacity="1" fill-rule="nonzero"/></g></g></g><g clip-path="url(#47e1a25dd3)"><g clip-path="url(#0d5fe1dcb3)"><g clip-path="url(#b20558349b)"><path fill="#ffffff" d="M 72.640625 48.417969 C 72.277344 48.511719 72.058594 48.878906 72.148438 49.242188 C 72.367188 50.113281 72.703125 51.199219 72.71875 51.246094 C 72.824219 51.589844 73.179688 51.789062 73.527344 51.699219 L 77.507812 50.679688 C 77.625 50.648438 77.734375 50.585938 77.820312 50.5 C 77.859375 50.460938 77.894531 50.417969 77.921875 50.367188 C 78.015625 50.214844 78.042969 50.027344 78 49.855469 C 77.964844 49.710938 77.945312 49.566406 77.945312 49.421875 C 77.949219 49.046875 77.648438 48.742188 77.273438 48.742188 C 76.902344 48.742188 76.597656 49.042969 76.59375 49.417969 C 76.59375 49.449219 76.59375 49.484375 76.59375 49.519531 L 73.828125 50.226562 C 73.714844 49.84375 73.570312 49.339844 73.460938 48.90625 C 73.371094 48.542969 73.003906 48.324219 72.640625 48.417969 Z M 72.640625 48.417969 " fill-opacity="1" fill-rule="nonzero"/></g></g></g><g clip-path="url(#182c323418)"><g clip-path="url(#1fad101045)"><g clip-path="url(#17d119a462)"><path fill="#ffffff" d="M 71.347656 32.789062 L 71.582031 33.777344 C 71.582031 33.777344 72.90625 33.453125 73.152344 33.390625 C 73.246094 33.367188 73.324219 33.320312 73.386719 33.257812 C 73.507812 33.136719 73.566406 32.953125 73.519531 32.773438 C 73.453125 32.503906 73.175781 32.339844 72.90625 32.40625 C 72.660156 32.472656 71.347656 32.789062 71.347656 32.789062 Z M 71.347656 32.789062 " fill-opacity="1" fill-rule="nonzero"/></g></g></g><g clip-path="url(#fc7b04ebf2)"><path fill="#ffffff" d="M 165.976562 94.484375 C 166.019531 94.410156 166.15625 94.234375 166.425781 94.234375 L 168.089844 94.234375 C 168.359375 94.234375 168.492188 94.410156 168.539062 94.484375 C 168.582031 94.5625 168.675781 94.761719 168.546875 94.992188 L 167.257812 97.273438 L 165.96875 94.992188 C 165.839844 94.761719 165.929688 94.5625 165.976562 94.484375 Z M 166.800781 98.574219 C 166.894531 98.738281 167.066406 98.839844 167.257812 98.839844 C 167.445312 98.839844 167.621094 98.738281 167.710938 98.574219 L 169.453125 95.492188 C 169.726562 95.011719 169.71875 94.441406 169.433594 93.96875 C 169.152344 93.492188 168.648438 93.210938 168.089844 93.210938 L 166.425781 93.210938 C 165.863281 93.210938 165.363281 93.492188 165.078125 93.96875 C 164.796875 94.441406 164.789062 95.011719 165.058594 95.492188 L 166.800781 98.574219 " fill-opacity="1" fill-rule="nonzero"/></g><path fill="#ffffff" d="M 166.738281 100.371094 L 167.777344 100.371094 L 167.777344 99.351562 L 166.738281 99.351562 L 166.738281 100.371094 " fill-opacity="1" fill-rule="nonzero"/><path fill="#ffffff" d="M 163.425781 101.519531 L 164.324219 101.007812 L 162.765625 98.351562 L 161.863281 98.863281 L 163.425781 101.519531 " fill-opacity="1" fill-rule="nonzero"/><path fill="#ffffff" d="M 161.136719 104.140625 L 161.660156 103.253906 L 158.953125 101.71875 L 158.433594 102.605469 L 161.136719 104.140625 " fill-opacity="1" fill-rule="nonzero"/><path fill="#ffffff" d="M 157.371094 107.535156 L 160.492188 107.535156 L 160.492188 106.511719 L 157.371094 106.511719 L 157.371094 107.535156 " fill-opacity="1" fill-rule="nonzero"/><path fill="#ffffff" d="M 161.660156 110.792969 L 161.136719 109.90625 L 158.433594 111.441406 L 158.953125 112.328125 L 161.660156 110.792969 " fill-opacity="1" fill-rule="nonzero"/><path fill="#ffffff" d="M 164.324219 113.039062 L 163.425781 112.527344 L 161.863281 115.1875 L 162.765625 115.699219 L 164.324219 113.039062 " fill-opacity="1" fill-rule="nonzero"/><path fill="#ffffff" d="M 166.738281 113.675781 L 166.738281 116.742188 L 167.777344 116.742188 L 167.777344 113.675781 L 166.738281 113.675781 " fill-opacity="1" fill-rule="nonzero"/><path fill="#ffffff" d="M 172.652344 115.1875 L 171.089844 112.527344 L 170.1875 113.039062 L 171.75 115.699219 L 172.652344 115.1875 " fill-opacity="1" fill-rule="nonzero"/><path fill="#ffffff" d="M 173.375 109.90625 L 172.855469 110.792969 L 175.558594 112.328125 L 176.078125 111.441406 L 173.375 109.90625 " fill-opacity="1" fill-rule="nonzero"/><path fill="#ffffff" d="M 177.144531 106.511719 L 174.023438 106.511719 L 174.023438 107.535156 L 177.144531 107.535156 L 177.144531 106.511719 " fill-opacity="1" fill-rule="nonzero"/><path fill="#ffffff" d="M 173.375 104.140625 L 176.078125 102.605469 L 175.558594 101.71875 L 172.855469 103.253906 L 173.375 104.140625 " fill-opacity="1" fill-rule="nonzero"/><path fill="#ffffff" d="M 171.089844 101.519531 L 172.652344 98.863281 L 171.75 98.351562 L 170.1875 101.007812 L 171.089844 101.519531 " fill-opacity="1" fill-rule="nonzero"/><g clip-path="url(#b6271d3718)"><path fill="#ffffff" d="M 164.933594 117.523438 L 167.101562 109.578125 C 167.152344 109.578125 167.203125 109.582031 167.257812 109.582031 C 167.308594 109.582031 167.363281 109.578125 167.414062 109.578125 L 169.578125 117.523438 C 168.832031 117.683594 168.054688 117.765625 167.257812 117.765625 C 166.460938 117.765625 165.683594 117.683594 164.933594 117.523438 Z M 166.09375 104.734375 C 166 104.78125 165.910156 104.835938 165.824219 104.890625 L 159.90625 99.074219 C 161.042969 98.054688 162.40625 97.265625 163.929688 96.789062 Z M 165.824219 109.15625 C 165.910156 109.214844 166 109.265625 166.09375 109.3125 L 163.929688 117.257812 C 162.421875 116.78125 161.054688 115.996094 159.910156 114.96875 Z M 164.929688 108.167969 C 164.976562 108.257812 165.03125 108.347656 165.085938 108.433594 L 159.175781 114.246094 C 158.132812 113.121094 157.332031 111.777344 156.847656 110.296875 Z M 165.085938 105.613281 C 165.03125 105.699219 164.976562 105.789062 164.929688 105.882812 L 156.847656 103.753906 C 157.328125 102.277344 158.125 100.929688 159.171875 99.796875 Z M 156.328125 107.023438 C 156.328125 106.242188 156.414062 105.480469 156.578125 104.742188 L 164.660156 106.871094 C 164.65625 106.921875 164.65625 106.972656 164.65625 107.023438 C 164.65625 107.074219 164.65625 107.125 164.660156 107.179688 L 156.578125 109.308594 C 156.417969 108.570312 156.328125 107.808594 156.328125 107.023438 Z M 168.816406 107.023438 C 168.816406 107.871094 168.117188 108.558594 167.257812 108.558594 C 166.394531 108.558594 165.695312 107.871094 165.695312 107.023438 C 165.695312 106.175781 166.394531 105.488281 167.257812 105.488281 C 168.117188 105.488281 168.816406 106.175781 168.816406 107.023438 Z M 170.585938 96.789062 C 172.109375 97.265625 173.472656 98.054688 174.605469 99.074219 L 168.691406 104.890625 C 168.605469 104.835938 168.511719 104.78125 168.417969 104.734375 Z M 169.425781 108.433594 C 169.484375 108.347656 169.535156 108.257812 169.582031 108.167969 L 177.664062 110.296875 C 177.183594 111.777344 176.382812 113.121094 175.339844 114.246094 Z M 168.691406 109.15625 L 174.601562 114.96875 C 173.457031 115.996094 172.09375 116.78125 170.585938 117.257812 L 168.417969 109.3125 C 168.511719 109.265625 168.605469 109.214844 168.691406 109.15625 Z M 175.34375 99.796875 C 176.386719 100.929688 177.183594 102.277344 177.664062 103.753906 L 169.582031 105.882812 C 169.535156 105.789062 169.484375 105.699219 169.425781 105.613281 Z M 178.183594 107.023438 C 178.183594 107.808594 178.097656 108.570312 177.933594 109.308594 L 169.855469 107.179688 C 169.855469 107.125 169.859375 107.074219 169.859375 107.023438 C 169.859375 106.972656 169.855469 106.921875 169.855469 106.871094 L 177.933594 104.742188 C 178.097656 105.480469 178.183594 106.242188 178.183594 107.023438 Z M 170.355469 95.65625 C 170.078125 95.582031 169.792969 95.746094 169.71875 96.019531 L 167.414062 104.472656 C 167.363281 104.46875 167.308594 104.464844 167.257812 104.464844 C 167.203125 104.464844 167.152344 104.46875 167.101562 104.472656 L 164.796875 96.015625 C 164.722656 95.746094 164.4375 95.582031 164.160156 95.65625 C 158.9375 97.027344 155.289062 101.703125 155.289062 107.023438 C 155.289062 113.511719 160.65625 118.789062 167.257812 118.789062 C 173.855469 118.789062 179.226562 113.511719 179.226562 107.023438 C 179.226562 101.703125 175.578125 97.027344 170.355469 95.65625 " fill-opacity="1" fill-rule="nonzero"/></g><g clip-path="url(#ef2b88caff)"><path fill="#ffffff" d="M 163.144531 118.683594 L 162.808594 120.21875 L 163.824219 120.433594 L 164.160156 118.898438 L 163.144531 118.683594 " fill-opacity="1" fill-rule="nonzero"/></g><g clip-path="url(#542ecc87be)"><path fill="#ffffff" d="M 171.371094 118.683594 L 170.351562 118.898438 L 170.6875 120.433594 L 171.707031 120.21875 L 171.371094 118.683594 " fill-opacity="1" fill-rule="nonzero"/></g></svg>